M48
;Layer_Color=9474304
;FILE_FORMAT=2:5
INCH,TZ
;TYPE=PLATED
T1F00S00C0.01181
T2F00S00C0.03346
T3F00S00C0.03543
T4F00S00C0.05118
;TYPE=NON_PLATED
T5F00S00C0.12598
T6F00S00C0.12992
%
T01
X372850Y131360
X384350Y144860
X404850Y131317
X410350Y169360
X418350Y168404
X387850Y176360
X398350Y201360
X396350Y215360
X351850Y217120
Y211614
Y206282
X346850Y237153
X341564Y235860
X324850Y247360
X330564Y263148
X342031Y304360
X376850Y288860
X391350
X313650Y206282
X313850Y168360
X313350Y160860
X318850
X323350
X303650Y183860
X282350Y177360
Y199860
X291350Y219360
X281350Y227605
X274850Y222360
X247622Y231360
X225850Y227360
X219850Y223360
X225850Y199860
Y177360
X248850Y183860
X258850Y167860
X203350
X193450Y183860
X169850Y177360
Y199860
Y227360
X163850Y222360
X193151Y231360
X203450Y205961
X212350Y287860
X222350Y284360
X234850Y280860
X250850Y276860
X292350
X300850Y237360
X190850Y298360
X185850
X180850
X157620Y303860
X123350Y260360
X128905Y226360
X136350Y231360
X147350Y205860
X137250Y183860
X147250Y167860
X112811Y177360
X112850Y199860
X91050Y205861
X81350Y183860
X91050Y167860
X34850
X24850Y183860
X34850Y205860
X39850Y223360
X49350Y223860
X61350
X56350Y240288
X82901Y231360
X26850Y230860
X183350Y318860
Y323762
Y328860
Y333860
Y338860
Y343860
Y348860
Y353860
X204850Y367860
X209350
X227350Y368860
Y363860
Y358860
X234350Y353860
X238850Y348860
X245850Y343860
X241350Y328860
Y323860
Y318860
X266350Y333860
X261850Y338860
X269850Y340860
X268350Y368860
X281850Y393360
X281350Y404860
Y422360
X249350Y402646
X218922Y402360
X215350
X211350
X199850Y405360
X198456Y392967
X185082Y390211
X307850Y323860
X307881Y319860
X325850Y336360
X330350Y348360
X340350Y338360
X339350Y330360
X339850Y322360
X347350Y323860
X353850Y339360
X361126Y314360
X400850Y332075
X428850
X371350Y361892
X367850Y401360
X387350Y407360
X349850Y428860
X344850
X339850
X334850
X324850Y416860
X323850Y407360
T02
X348350Y17860
Y27360
X347728Y44860
X377728
X378350Y27360
Y17860
X377728Y103360
X347728
X358850Y131360
X366850
X410850
X418850
Y161360
X410850
X366850
X358850
Y171360
X366850
Y201360
X358850
T03
X76850Y15860
X86850
X123309Y15860
X133309
X169768Y16043
X179768
X216226
X226226
X262685
X272685
X309144
X319144
X400850Y45860
Y55860
Y65860
Y83360
Y93360
Y103360
X401350Y268521
X391350
Y278521
X401350
X411350
Y268521
X392350Y360860
X382350
T04
X19968Y45754
X49732
X76168
X105932
X132368
Y105282
Y125124
Y144967
X105932
Y125124
Y105282
X76168
Y125124
Y144967
X49732
Y125124
Y105282
X19968
Y125124
Y144967
X162132
Y125124
Y105282
X188568
Y125124
Y144967
X218332
Y125124
Y105282
X243968
Y125124
Y144967
X273732
Y125124
Y105282
X298768
Y125124
Y144967
Y45754
X273732
X243968
X218332
X188568
X162132
X328532
Y105282
Y125124
Y144967
X152527Y374364
X140716
X128905
X117094
X105283
X93472
X81661
X69850
X75756Y384207
Y396018
X87567
X99378
Y384207
X87567
X111189
Y396018
X123000
X134811
X146622
Y384207
X134811
X123000
X128905Y405860
X140716
X152527
X117094
X105283
X93472
X81661
X69850
X164338
X158433Y396018
Y384207
X164338Y374364
T05
X43850Y16309
X426850Y229860
X15850Y397719
X228850Y427860
X426850Y397719
T06
X41307Y431451
X192882
M30
