G04*
G04 #@! TF.GenerationSoftware,Altium Limited,Altium Designer,19.0.15 (446)*
G04*
G04 Layer_Physical_Order=1*
G04 Layer_Color=255*
%FSLAX25Y25*%
%MOIN*%
G70*
G01*
G75*
%ADD27R,0.03937X0.03937*%
%ADD61R,0.06378X0.02047*%
%ADD62R,0.03543X0.03937*%
%ADD63R,0.09449X0.12992*%
%ADD64R,0.09449X0.03937*%
%ADD65R,0.02756X0.03543*%
%ADD66R,0.04331X0.04331*%
%ADD67R,0.03937X0.03543*%
G04:AMPARAMS|DCode=68|XSize=21.65mil|YSize=31.5mil|CornerRadius=1.95mil|HoleSize=0mil|Usage=FLASHONLY|Rotation=90.000|XOffset=0mil|YOffset=0mil|HoleType=Round|Shape=RoundedRectangle|*
%AMROUNDEDRECTD68*
21,1,0.02165,0.02760,0,0,90.0*
21,1,0.01776,0.03150,0,0,90.0*
1,1,0.00390,0.01380,0.00888*
1,1,0.00390,0.01380,-0.00888*
1,1,0.00390,-0.01380,-0.00888*
1,1,0.00390,-0.01380,0.00888*
%
%ADD68ROUNDEDRECTD68*%
%ADD69R,0.05315X0.03740*%
%ADD70R,0.03543X0.03150*%
%ADD71R,0.07008X0.05984*%
%ADD72R,0.03543X0.02756*%
%ADD73R,0.04331X0.10236*%
%ADD74R,0.03150X0.03150*%
%ADD75O,0.02165X0.06890*%
%ADD76O,0.06890X0.02165*%
%ADD77R,0.06693X0.03150*%
%ADD78R,0.05472X0.03898*%
%ADD79R,0.05906X0.21654*%
%ADD80R,0.06102X0.02362*%
%ADD81R,0.02362X0.05906*%
%ADD82R,0.10236X0.03740*%
%ADD83R,0.04331X0.04331*%
%ADD84R,0.05906X0.21654*%
%ADD85R,0.05500X0.08300*%
G04:AMPARAMS|DCode=86|XSize=21.65mil|YSize=49.21mil|CornerRadius=1.95mil|HoleSize=0mil|Usage=FLASHONLY|Rotation=90.000|XOffset=0mil|YOffset=0mil|HoleType=Round|Shape=RoundedRectangle|*
%AMROUNDEDRECTD86*
21,1,0.02165,0.04532,0,0,90.0*
21,1,0.01776,0.04921,0,0,90.0*
1,1,0.00390,0.02266,0.00888*
1,1,0.00390,0.02266,-0.00888*
1,1,0.00390,-0.02266,-0.00888*
1,1,0.00390,-0.02266,0.00888*
%
%ADD86ROUNDEDRECTD86*%
G04:AMPARAMS|DCode=87|XSize=21.65mil|YSize=31.5mil|CornerRadius=1.95mil|HoleSize=0mil|Usage=FLASHONLY|Rotation=180.000|XOffset=0mil|YOffset=0mil|HoleType=Round|Shape=RoundedRectangle|*
%AMROUNDEDRECTD87*
21,1,0.02165,0.02760,0,0,180.0*
21,1,0.01776,0.03150,0,0,180.0*
1,1,0.00390,-0.00888,0.01380*
1,1,0.00390,0.00888,0.01380*
1,1,0.00390,0.00888,-0.01380*
1,1,0.00390,-0.00888,-0.01380*
%
%ADD87ROUNDEDRECTD87*%
%ADD88R,0.05709X0.05906*%
%ADD89C,0.02000*%
%ADD90C,0.04000*%
%ADD91C,0.23622*%
%ADD92R,0.05906X0.05906*%
%ADD93C,0.05906*%
%ADD94C,0.07087*%
%ADD95C,0.12992*%
%ADD96C,0.07677*%
%ADD97R,0.07677X0.07677*%
%ADD98R,0.05906X0.05906*%
%ADD99C,0.05512*%
%ADD100C,0.02756*%
G36*
X408123Y407524D02*
X417883D01*
X418056Y407055D01*
X417763Y406805D01*
X416454Y405272D01*
X415400Y403552D01*
X414628Y401689D01*
X414158Y399729D01*
X414000Y397719D01*
X414158Y395708D01*
X414628Y393747D01*
X415400Y391884D01*
X416454Y390165D01*
X417763Y388632D01*
X419297Y387322D01*
X421016Y386268D01*
X422879Y385497D01*
X424840Y385026D01*
X426850Y384868D01*
X428860Y385026D01*
X430821Y385497D01*
X432684Y386268D01*
X434404Y387322D01*
X435937Y388632D01*
X437247Y390165D01*
X438020Y391427D01*
X438520Y391286D01*
Y236293D01*
X438020Y236152D01*
X437247Y237414D01*
X435937Y238947D01*
X434404Y240257D01*
X432684Y241310D01*
X430821Y242082D01*
X428860Y242553D01*
X426850Y242711D01*
X424840Y242553D01*
X422879Y242082D01*
X421016Y241310D01*
X419297Y240257D01*
X417763Y238947D01*
X416454Y237414D01*
X415400Y235695D01*
X414628Y233831D01*
X414158Y231871D01*
X414000Y229860D01*
X414158Y227850D01*
X414628Y225889D01*
X415400Y224026D01*
X416454Y222307D01*
X417763Y220774D01*
X419297Y219464D01*
X421016Y218410D01*
X422879Y217639D01*
X424840Y217168D01*
X426850Y217010D01*
X428860Y217168D01*
X430821Y217639D01*
X432684Y218410D01*
X434404Y219464D01*
X435937Y220774D01*
X437247Y222307D01*
X438020Y223569D01*
X438520Y223428D01*
Y36775D01*
X408123Y33879D01*
Y6379D01*
X52672D01*
X52499Y6848D01*
X52937Y7222D01*
X54246Y8756D01*
X55300Y10475D01*
X56072Y12338D01*
X56542Y14299D01*
X56701Y16309D01*
X56542Y18319D01*
X56072Y20280D01*
X55300Y22143D01*
X54246Y23863D01*
X52937Y25396D01*
X51403Y26706D01*
X49684Y27759D01*
X47821Y28531D01*
X45860Y29002D01*
X43850Y29160D01*
X41840Y29002D01*
X39879Y28531D01*
X38016Y27759D01*
X36297Y26706D01*
X34763Y25396D01*
X33623Y24061D01*
X33123Y24246D01*
Y33879D01*
X5623D01*
Y383879D01*
X33123D01*
Y412879D01*
X61605D01*
X61797Y412417D01*
X59681Y410302D01*
X59240Y409641D01*
X59084Y408860D01*
Y398839D01*
X59240Y398059D01*
X59681Y397397D01*
X71208Y385871D01*
X71042Y385470D01*
X70875Y384207D01*
X71042Y382944D01*
X71529Y381767D01*
X72305Y380756D01*
X73315Y379980D01*
X74492Y379493D01*
X75756Y379327D01*
X77019Y379493D01*
X78196Y379980D01*
X79207Y380756D01*
X79982Y381767D01*
X80470Y382944D01*
X80636Y384207D01*
X80470Y385470D01*
X79982Y386647D01*
X79207Y387658D01*
X78196Y388433D01*
X77019Y388921D01*
X75756Y389087D01*
X74492Y388921D01*
X74091Y388755D01*
X63163Y399684D01*
Y408016D01*
X64968Y409821D01*
X66286D01*
X66447Y409348D01*
X66399Y409311D01*
X65624Y408301D01*
X65136Y407124D01*
X64970Y405860D01*
X65136Y404597D01*
X65624Y403420D01*
X66399Y402410D01*
X67410Y401634D01*
X68587Y401146D01*
X69850Y400980D01*
X71113Y401146D01*
X72290Y401634D01*
X73301Y402410D01*
X74077Y403420D01*
X74564Y404597D01*
X74730Y405860D01*
X74564Y407124D01*
X74077Y408301D01*
X73301Y409311D01*
X73254Y409348D01*
X73414Y409821D01*
X78097D01*
X78258Y409348D01*
X78210Y409311D01*
X77435Y408301D01*
X76947Y407124D01*
X76781Y405860D01*
X76947Y404597D01*
X77435Y403420D01*
X78210Y402410D01*
X79221Y401634D01*
X80398Y401146D01*
X81661Y400980D01*
X82924Y401146D01*
X84101Y401634D01*
X85112Y402410D01*
X85888Y403420D01*
X86375Y404597D01*
X86541Y405860D01*
X86375Y407124D01*
X85888Y408301D01*
X85112Y409311D01*
X85065Y409348D01*
X85225Y409821D01*
X89908D01*
X90069Y409348D01*
X90021Y409311D01*
X89246Y408301D01*
X88758Y407124D01*
X88592Y405860D01*
X88758Y404597D01*
X89246Y403420D01*
X90021Y402410D01*
X91032Y401634D01*
X92209Y401146D01*
X93472Y400980D01*
X94735Y401146D01*
X95912Y401634D01*
X96923Y402410D01*
X97699Y403420D01*
X98186Y404597D01*
X98352Y405860D01*
X98186Y407124D01*
X97699Y408301D01*
X96923Y409311D01*
X96876Y409348D01*
X97036Y409821D01*
X101719D01*
X101880Y409348D01*
X101832Y409311D01*
X101057Y408301D01*
X100569Y407124D01*
X100403Y405860D01*
X100569Y404597D01*
X101057Y403420D01*
X101832Y402410D01*
X102843Y401634D01*
X104020Y401146D01*
X105283Y400980D01*
X106546Y401146D01*
X107723Y401634D01*
X108734Y402410D01*
X109510Y403420D01*
X109997Y404597D01*
X110163Y405860D01*
X109997Y407124D01*
X109510Y408301D01*
X108734Y409311D01*
X108687Y409348D01*
X108847Y409821D01*
X113530Y409821D01*
X113691Y409348D01*
X113643Y409311D01*
X112868Y408301D01*
X112380Y407124D01*
X112214Y405860D01*
X112380Y404597D01*
X112868Y403420D01*
X113643Y402410D01*
X114654Y401634D01*
X115831Y401146D01*
X117094Y400980D01*
X118357Y401146D01*
X119534Y401634D01*
X120545Y402410D01*
X121321Y403420D01*
X121808Y404597D01*
X121975Y405860D01*
X121808Y407124D01*
X121321Y408301D01*
X120545Y409311D01*
X120498Y409348D01*
X120658Y409821D01*
X125341D01*
X125502Y409348D01*
X125454Y409311D01*
X124679Y408301D01*
X124191Y407124D01*
X124025Y405860D01*
X124191Y404597D01*
X124679Y403420D01*
X125454Y402410D01*
X126465Y401634D01*
X127642Y401146D01*
X128905Y400980D01*
X130168Y401146D01*
X131345Y401634D01*
X132356Y402410D01*
X132682Y402835D01*
X136939D01*
X137265Y402410D01*
X138276Y401634D01*
X139453Y401146D01*
X140716Y400980D01*
X141979Y401146D01*
X143156Y401634D01*
X144167Y402410D01*
X144493Y402835D01*
X148750D01*
X149076Y402410D01*
X150087Y401634D01*
X151264Y401146D01*
X152527Y400980D01*
X153790Y401146D01*
X154967Y401634D01*
X155978Y402410D01*
X156304Y402835D01*
X160561D01*
X160887Y402410D01*
X161898Y401634D01*
X163075Y401146D01*
X164338Y400980D01*
X165602Y401146D01*
X166779Y401634D01*
X167789Y402410D01*
X168115Y402835D01*
X177597D01*
X192656Y387775D01*
Y385485D01*
X155481Y348309D01*
X155000Y347683D01*
X154697Y346953D01*
X154594Y346170D01*
Y303860D01*
X154697Y303077D01*
X155000Y302347D01*
X155481Y301721D01*
X156107Y301240D01*
X156837Y300938D01*
X157620Y300834D01*
X158403Y300938D01*
X159133Y301240D01*
X159760Y301721D01*
X160241Y302347D01*
X160543Y303077D01*
X160646Y303860D01*
Y344916D01*
X195682Y379953D01*
X200914Y374721D01*
X200914Y374721D01*
X201541Y374240D01*
X202271Y373938D01*
X203054Y373834D01*
X203054Y373834D01*
X217386D01*
X218169Y373938D01*
X218899Y374240D01*
X219525Y374721D01*
X224646Y379842D01*
X226334D01*
X226770Y379900D01*
X232059D01*
Y385837D01*
X226978D01*
X226303Y385925D01*
X222595D01*
X222415Y385949D01*
X214279D01*
X213843Y385892D01*
X211508D01*
Y384071D01*
X211390Y383787D01*
X211130Y383744D01*
X210870Y383787D01*
X210752Y384071D01*
Y385892D01*
X209291D01*
X207423Y387759D01*
Y392801D01*
X207397Y392998D01*
Y395888D01*
X207423Y396085D01*
Y396654D01*
X210104Y399335D01*
X210906D01*
X211303Y399085D01*
X211303Y398834D01*
Y393967D01*
X214468D01*
Y392967D01*
X215468D01*
Y386848D01*
X217634D01*
Y388897D01*
X243445D01*
Y384427D01*
X248169D01*
Y391923D01*
Y399419D01*
X243445D01*
Y394949D01*
X217634D01*
Y398834D01*
X217634Y399085D01*
X218030Y399335D01*
X220610D01*
Y398010D01*
X225898D01*
X226334Y397953D01*
X226770Y398010D01*
X232059D01*
Y403947D01*
X227645D01*
X227092Y404500D01*
X226465Y404981D01*
X225735Y405283D01*
X224952Y405386D01*
X208850D01*
X208850Y405386D01*
X208067Y405283D01*
X207337Y404981D01*
X206711Y404500D01*
X202258Y400047D01*
X201777Y399420D01*
X201638Y399085D01*
X201067D01*
Y395006D01*
X199685D01*
X199384Y395207D01*
X198456Y395391D01*
X197529Y395207D01*
X196742Y394681D01*
X196216Y393894D01*
X196148Y393549D01*
X195605Y393385D01*
X180990Y408000D01*
X180363Y408481D01*
X179633Y408783D01*
X178850Y408886D01*
X168115D01*
X167789Y409311D01*
X167742Y409348D01*
X167903Y409821D01*
X200720D01*
X200927Y409321D01*
X199277Y407671D01*
X198922Y407600D01*
X198136Y407075D01*
X197610Y406288D01*
X197426Y405360D01*
X197610Y404433D01*
X198136Y403646D01*
X198922Y403120D01*
X199850Y402936D01*
X200778Y403120D01*
X201565Y403646D01*
X202090Y404433D01*
X202161Y404787D01*
X203695Y406321D01*
X258159D01*
X261710Y402770D01*
X261385Y402388D01*
X260942Y402388D01*
X259159D01*
X257459Y404088D01*
X256798Y404530D01*
X256017Y404685D01*
X250578D01*
X250278Y404886D01*
X249350Y405070D01*
X248422Y404886D01*
X247636Y404360D01*
X247110Y403574D01*
X246926Y402646D01*
X247110Y401718D01*
X247636Y400932D01*
X248422Y400406D01*
X249350Y400221D01*
X250278Y400406D01*
X250578Y400607D01*
X255173D01*
X256275Y399504D01*
Y397238D01*
X261425D01*
Y401890D01*
X261425Y402348D01*
X261807Y402673D01*
X266573Y397907D01*
X267235Y397465D01*
X268015Y397309D01*
X275232D01*
Y396479D01*
X286431D01*
X286623Y396017D01*
X284649Y394043D01*
X284106Y394207D01*
X284090Y394288D01*
X283564Y395075D01*
X282778Y395600D01*
X281850Y395785D01*
X280922Y395600D01*
X280136Y395075D01*
X279610Y394288D01*
X279426Y393360D01*
X279610Y392433D01*
X280136Y391646D01*
X280922Y391120D01*
X281277Y391050D01*
X281929Y390398D01*
Y384892D01*
X287472D01*
Y390829D01*
X287472Y390829D01*
X287472D01*
X287641Y391267D01*
X291553Y395179D01*
X298142D01*
Y395321D01*
X301956D01*
X302737Y395476D01*
X303398Y395918D01*
X307801Y400321D01*
X311299D01*
Y400179D01*
X319401D01*
Y404541D01*
X311299D01*
Y404400D01*
X307889D01*
Y423860D01*
X307889Y423860D01*
X307734Y424641D01*
X307292Y425302D01*
X303957Y428637D01*
X303854Y428706D01*
Y431526D01*
X297523D01*
Y425195D01*
X301632D01*
X302536Y424291D01*
X302344Y423829D01*
X297728D01*
Y417892D01*
X298461D01*
Y414909D01*
X298142Y414541D01*
X290754D01*
X290734Y414641D01*
X290292Y415302D01*
X288017Y417577D01*
X287468Y417944D01*
Y419719D01*
X282577D01*
X282425Y420219D01*
X283065Y420646D01*
X283590Y421433D01*
X283775Y422360D01*
X283590Y423288D01*
X283389Y423589D01*
Y425002D01*
X287468D01*
Y425833D01*
X290437D01*
Y425195D01*
X292161D01*
Y423829D01*
X291429D01*
Y417892D01*
X296972D01*
Y423829D01*
X296240D01*
Y425195D01*
X296767D01*
Y431526D01*
X290437D01*
Y429911D01*
X287468D01*
Y430742D01*
X275232D01*
Y425002D01*
X279311D01*
Y423589D01*
X279110Y423288D01*
X278926Y422360D01*
X279110Y421433D01*
X279636Y420646D01*
X280275Y420219D01*
X280123Y419719D01*
X275232D01*
Y418888D01*
X264338D01*
X263558Y418733D01*
X262896Y418291D01*
X258506Y413900D01*
X242897D01*
Y439379D01*
X408123D01*
Y407524D01*
D02*
G37*
%LPC*%
G36*
X316606Y433132D02*
X315228D01*
Y431360D01*
X316606D01*
Y433132D01*
D02*
G37*
G36*
Y429360D02*
X315228D01*
Y427589D01*
X316606D01*
Y429360D01*
D02*
G37*
G36*
X390303Y436419D02*
X382397D01*
Y412766D01*
X382397D01*
X382536Y412430D01*
X370615Y400509D01*
X370154Y400756D01*
X370275Y401360D01*
X370090Y402288D01*
X369565Y403075D01*
X368778Y403600D01*
X368405Y403675D01*
X368240Y404217D01*
X368962Y404939D01*
X371819D01*
Y410482D01*
X365882D01*
Y407626D01*
X362411Y404156D01*
X362031Y404313D01*
Y404313D01*
X357669D01*
Y397242D01*
X357169Y396975D01*
X357031Y397067D01*
Y404313D01*
X352669D01*
Y396408D01*
X352811D01*
Y396018D01*
X352966Y395237D01*
X353408Y394576D01*
X354355Y393629D01*
X354163Y393167D01*
X353577D01*
X352070Y394674D01*
Y398408D01*
X352070Y398408D01*
X352031Y398605D01*
Y404313D01*
X347669D01*
Y396408D01*
X347992D01*
Y393829D01*
X348069Y393441D01*
X348147Y393049D01*
X348147Y393049D01*
X348147Y393049D01*
X348458Y392584D01*
X348069Y392266D01*
X346889Y393446D01*
Y396408D01*
X347031D01*
Y404313D01*
X342669D01*
Y396408D01*
X342811D01*
Y392601D01*
X342966Y391821D01*
X343408Y391159D01*
X349558Y385009D01*
X350220Y384567D01*
X351000Y384412D01*
X360915D01*
X369311Y376016D01*
Y363121D01*
X369110Y362820D01*
X368926Y361892D01*
X369110Y360964D01*
X369636Y360178D01*
X370422Y359652D01*
X371350Y359468D01*
X372278Y359652D01*
X373064Y360178D01*
X373590Y360964D01*
X373775Y361892D01*
X373590Y362820D01*
X373389Y363121D01*
Y376860D01*
X373234Y377641D01*
X372792Y378302D01*
X363201Y387893D01*
X362540Y388335D01*
X361759Y388490D01*
X351845D01*
X351169Y389166D01*
X351488Y389554D01*
X351696Y389415D01*
X351952Y389244D01*
X351952Y389244D01*
X351952Y389244D01*
X352344Y389166D01*
X352732Y389089D01*
X352732Y389089D01*
X352732Y389089D01*
X382397D01*
Y379301D01*
X390303D01*
Y388172D01*
X398382D01*
Y387439D01*
X404319D01*
Y392982D01*
X398382D01*
Y392250D01*
X390303D01*
Y402955D01*
X382397D01*
Y393167D01*
X369694D01*
X369503Y393629D01*
X385208Y409334D01*
X385596Y409015D01*
X385413Y408742D01*
X385110Y408288D01*
X384926Y407360D01*
X385110Y406433D01*
X385636Y405646D01*
X386422Y405120D01*
X387350Y404936D01*
X388278Y405120D01*
X389065Y405646D01*
X389516Y406321D01*
X399311D01*
Y399282D01*
X398382D01*
Y393738D01*
X404319D01*
Y399282D01*
X403389D01*
Y408360D01*
Y415439D01*
X404319D01*
Y420982D01*
X398382D01*
Y415439D01*
X399311D01*
Y410400D01*
X388350D01*
X387570Y410244D01*
X386908Y409802D01*
X386777Y409671D01*
X386422Y409600D01*
X385969Y409297D01*
X385695Y409115D01*
X385377Y409503D01*
X387792Y411918D01*
X388234Y412580D01*
X388271Y412766D01*
X390303D01*
Y422471D01*
X398382D01*
Y421738D01*
X404319D01*
Y427282D01*
X398382D01*
Y426549D01*
X390303D01*
Y436419D01*
D02*
G37*
G36*
X314472Y433132D02*
X309716D01*
Y427589D01*
X310055D01*
Y425829D01*
X308535D01*
Y419892D01*
X314472D01*
Y425829D01*
X314133D01*
Y427589D01*
X314472D01*
Y433132D01*
D02*
G37*
G36*
X362031Y425573D02*
X357669D01*
Y417667D01*
X362031D01*
Y425573D01*
D02*
G37*
G36*
X357031D02*
X352669D01*
Y417667D01*
X357031D01*
Y425573D01*
D02*
G37*
G36*
X319984Y433132D02*
X318606D01*
Y430360D01*
Y427589D01*
X319984D01*
Y427895D01*
X320484Y428103D01*
X326455Y422131D01*
X327117Y421689D01*
X327669Y421579D01*
Y419719D01*
X325873D01*
X325873Y419719D01*
X325873Y419719D01*
X325500Y419644D01*
X325093Y419563D01*
X325093Y419563D01*
X325093Y419563D01*
X324797Y419366D01*
X324603Y419236D01*
X323922Y419100D01*
X323136Y418575D01*
X322658Y417860D01*
X324850D01*
Y415860D01*
X322658D01*
X323136Y415146D01*
X323504Y414900D01*
X323353Y414400D01*
X320585D01*
X320175Y414900D01*
X320236Y415207D01*
Y419892D01*
X321165D01*
Y425829D01*
X315228D01*
Y419892D01*
X316158D01*
Y416052D01*
X315959Y415854D01*
X315517Y415192D01*
X315388Y414541D01*
X311299D01*
Y410179D01*
X319401D01*
Y410321D01*
X326505D01*
X332014Y404813D01*
X331806Y404313D01*
X331624Y404313D01*
X327669D01*
Y400401D01*
X327117Y400292D01*
X326455Y399850D01*
X326455Y399850D01*
X326006Y399400D01*
X319401D01*
Y399541D01*
X311299D01*
Y395179D01*
X315388D01*
X315517Y394529D01*
X315959Y393867D01*
X316158Y393669D01*
Y390829D01*
X315228D01*
Y384892D01*
X321165D01*
Y390829D01*
X320236D01*
Y394514D01*
X320175Y394821D01*
X320585Y395321D01*
X326850D01*
X327630Y395476D01*
X328292Y395918D01*
X328742Y396368D01*
X329669D01*
X329670Y396369D01*
X329670Y396368D01*
X329867Y396408D01*
X332031D01*
Y403636D01*
X332506Y403902D01*
X332531Y403903D01*
X332669Y403811D01*
Y396408D01*
X337031D01*
Y404313D01*
X336889D01*
Y404860D01*
X336734Y405641D01*
X336292Y406302D01*
X328792Y413802D01*
X328131Y414244D01*
X327350Y414400D01*
X326347D01*
X326196Y414900D01*
X326565Y415146D01*
X326895Y415640D01*
X329187D01*
X332259Y412568D01*
X332259Y412568D01*
X332259Y412568D01*
X332920Y412126D01*
X332920D01*
X332920Y412126D01*
X333390Y412033D01*
X333700Y411971D01*
X333700Y411971D01*
X333700Y411971D01*
X365882D01*
Y411238D01*
X367850D01*
Y414010D01*
Y416782D01*
X365882D01*
Y416049D01*
X334545D01*
X333389Y417205D01*
X333580Y417667D01*
X337031D01*
Y425573D01*
X336889D01*
Y427632D01*
X337009Y427810D01*
X337470Y427842D01*
X337569Y427818D01*
X337811Y427544D01*
Y425573D01*
X337669D01*
Y417667D01*
X342031D01*
Y425573D01*
X341889D01*
Y427632D01*
X342008Y427810D01*
X342470Y427842D01*
X342569Y427818D01*
X342811Y427544D01*
Y425573D01*
X342669D01*
Y417667D01*
X347031D01*
Y425573D01*
X346889D01*
Y427632D01*
X347008Y427810D01*
X347470Y427842D01*
X347569Y427818D01*
X347811Y427544D01*
Y425573D01*
X347669D01*
Y417667D01*
X352031D01*
Y425573D01*
X351889D01*
Y427632D01*
X352090Y427933D01*
X352275Y428860D01*
X352090Y429788D01*
X351565Y430575D01*
X350778Y431100D01*
X349850Y431285D01*
X348922Y431100D01*
X348136Y430575D01*
X347610Y429788D01*
X347605Y429763D01*
X347095D01*
X347090Y429788D01*
X346565Y430575D01*
X345778Y431100D01*
X344850Y431285D01*
X343922Y431100D01*
X343136Y430575D01*
X342610Y429788D01*
X342605Y429763D01*
X342095D01*
X342090Y429788D01*
X341564Y430575D01*
X340778Y431100D01*
X339850Y431285D01*
X338922Y431100D01*
X338136Y430575D01*
X337610Y429788D01*
X337605Y429763D01*
X337095D01*
X337090Y429788D01*
X336564Y430575D01*
X335778Y431100D01*
X334850Y431285D01*
X333922Y431100D01*
X333136Y430575D01*
X332610Y429788D01*
X332426Y428860D01*
X332610Y427933D01*
X332811Y427632D01*
Y425573D01*
X332669D01*
Y419073D01*
X332169Y418806D01*
X332070Y418872D01*
Y421439D01*
X332070Y421440D01*
X332070Y421440D01*
X332031Y421637D01*
Y425573D01*
X329867D01*
X329670Y425612D01*
X329670Y425612D01*
X329669Y425612D01*
X328742D01*
X322552Y431802D01*
X321890Y432244D01*
X321110Y432400D01*
X319984D01*
Y433132D01*
D02*
G37*
G36*
X371819Y416782D02*
X369850D01*
Y415010D01*
X371819D01*
Y416782D01*
D02*
G37*
G36*
Y413010D02*
X369850D01*
Y411238D01*
X371819D01*
Y413010D01*
D02*
G37*
G36*
X322850Y409552D02*
X322622Y409400D01*
X319401D01*
Y409542D01*
X316350D01*
Y407360D01*
Y405179D01*
X319401D01*
Y405321D01*
X322622D01*
X322850Y405169D01*
Y407360D01*
Y409552D01*
D02*
G37*
G36*
X314350Y409542D02*
X311299D01*
Y408360D01*
X314350D01*
Y409542D01*
D02*
G37*
G36*
X324850Y409552D02*
Y408360D01*
X326042D01*
X325565Y409075D01*
X324850Y409552D01*
D02*
G37*
G36*
X314350Y406360D02*
X311299D01*
Y405179D01*
X314350D01*
Y406360D01*
D02*
G37*
G36*
X326042Y406360D02*
X324850D01*
Y405169D01*
X325565Y405646D01*
X326042Y406360D01*
D02*
G37*
G36*
X342031Y404313D02*
X337669D01*
Y396408D01*
X342031D01*
Y404313D01*
D02*
G37*
G36*
X254893Y399419D02*
X250169D01*
Y392923D01*
X254893D01*
Y399419D01*
D02*
G37*
G36*
X158433Y400898D02*
X157170Y400732D01*
X155993Y400244D01*
X154982Y399469D01*
X154206Y398458D01*
X153719Y397281D01*
X153552Y396018D01*
X153719Y394755D01*
X154206Y393578D01*
X154841Y392750D01*
X154607Y392250D01*
X150448D01*
X150213Y392750D01*
X150848Y393578D01*
X151336Y394755D01*
X151502Y396018D01*
X151336Y397281D01*
X150848Y398458D01*
X150073Y399469D01*
X149062Y400244D01*
X147885Y400732D01*
X146622Y400898D01*
X145359Y400732D01*
X144182Y400244D01*
X143171Y399469D01*
X142395Y398458D01*
X141908Y397281D01*
X141741Y396018D01*
X141908Y394755D01*
X142395Y393578D01*
X143030Y392750D01*
X142796Y392250D01*
X138637Y392250D01*
X138402Y392750D01*
X139037Y393578D01*
X139525Y394755D01*
X139691Y396018D01*
X139525Y397281D01*
X139037Y398458D01*
X138262Y399469D01*
X137251Y400244D01*
X136074Y400732D01*
X134811Y400898D01*
X133548Y400732D01*
X132371Y400244D01*
X131360Y399469D01*
X130584Y398458D01*
X130097Y397281D01*
X129930Y396018D01*
X130097Y394755D01*
X130584Y393578D01*
X131219Y392750D01*
X130985Y392250D01*
X126826D01*
X126591Y392750D01*
X127226Y393578D01*
X127714Y394755D01*
X127880Y396018D01*
X127714Y397281D01*
X127226Y398458D01*
X126451Y399469D01*
X125440Y400244D01*
X124263Y400732D01*
X123000Y400898D01*
X121737Y400732D01*
X120560Y400244D01*
X119549Y399469D01*
X118773Y398458D01*
X118286Y397281D01*
X118119Y396018D01*
X118286Y394755D01*
X118773Y393578D01*
X119408Y392750D01*
X119174Y392250D01*
X115015D01*
X114780Y392750D01*
X115415Y393578D01*
X115903Y394755D01*
X116069Y396018D01*
X115903Y397281D01*
X115415Y398458D01*
X114640Y399469D01*
X113629Y400244D01*
X112452Y400732D01*
X111189Y400898D01*
X109926Y400732D01*
X108749Y400244D01*
X107738Y399469D01*
X106962Y398458D01*
X106475Y397281D01*
X106308Y396018D01*
X106475Y394755D01*
X106962Y393578D01*
X107597Y392750D01*
X107363Y392250D01*
X103203D01*
X102969Y392750D01*
X103604Y393578D01*
X104092Y394755D01*
X104258Y396018D01*
X104092Y397281D01*
X103604Y398458D01*
X102829Y399469D01*
X101818Y400244D01*
X100641Y400732D01*
X99378Y400898D01*
X98114Y400732D01*
X96937Y400244D01*
X95927Y399469D01*
X95151Y398458D01*
X94664Y397281D01*
X94497Y396018D01*
X94664Y394755D01*
X95151Y393578D01*
X95786Y392750D01*
X95552Y392250D01*
X93571D01*
X92790Y392095D01*
X92129Y391653D01*
X89231Y388755D01*
X88830Y388921D01*
X87567Y389087D01*
X86303Y388921D01*
X85126Y388433D01*
X84116Y387658D01*
X83340Y386647D01*
X82853Y385470D01*
X82686Y384207D01*
X82853Y382944D01*
X83340Y381767D01*
X84116Y380756D01*
X85126Y379980D01*
X86303Y379493D01*
X87567Y379327D01*
X88830Y379493D01*
X90007Y379980D01*
X91018Y380756D01*
X91793Y381767D01*
X92281Y382944D01*
X92447Y384207D01*
X92281Y385470D01*
X92115Y385871D01*
X94415Y388172D01*
X95819D01*
X95979Y387698D01*
X95927Y387658D01*
X95151Y386647D01*
X94664Y385470D01*
X94497Y384207D01*
X94664Y382944D01*
X95151Y381767D01*
X95927Y380756D01*
X96937Y379980D01*
X98114Y379493D01*
X99378Y379327D01*
X100641Y379493D01*
X101818Y379980D01*
X102829Y380756D01*
X103604Y381767D01*
X104092Y382944D01*
X104258Y384207D01*
X104092Y385470D01*
X103604Y386647D01*
X102829Y387658D01*
X102776Y387698D01*
X102936Y388172D01*
X107630D01*
X107791Y387698D01*
X107738Y387658D01*
X106962Y386647D01*
X106475Y385470D01*
X106308Y384207D01*
X106475Y382944D01*
X106962Y381767D01*
X107738Y380756D01*
X108749Y379980D01*
X109926Y379493D01*
X111189Y379327D01*
X112452Y379493D01*
X113629Y379980D01*
X114640Y380756D01*
X115415Y381767D01*
X115903Y382944D01*
X116069Y384207D01*
X115903Y385470D01*
X115415Y386647D01*
X114640Y387658D01*
X114587Y387698D01*
X114748Y388172D01*
X119441D01*
X119602Y387698D01*
X119549Y387658D01*
X118773Y386647D01*
X118286Y385470D01*
X118119Y384207D01*
X118286Y382944D01*
X118773Y381767D01*
X119549Y380756D01*
X120560Y379980D01*
X121737Y379493D01*
X123000Y379327D01*
X124263Y379493D01*
X125440Y379980D01*
X126451Y380756D01*
X127226Y381767D01*
X127714Y382944D01*
X127880Y384207D01*
X127714Y385470D01*
X127226Y386647D01*
X126451Y387658D01*
X126398Y387698D01*
X126559Y388172D01*
X131252D01*
X131413Y387698D01*
X131360Y387658D01*
X130584Y386647D01*
X130097Y385470D01*
X129930Y384207D01*
X130097Y382944D01*
X130584Y381767D01*
X131360Y380756D01*
X132371Y379980D01*
X133548Y379493D01*
X134811Y379327D01*
X136074Y379493D01*
X137251Y379980D01*
X138262Y380756D01*
X139037Y381767D01*
X139525Y382944D01*
X139691Y384207D01*
X139525Y385470D01*
X139037Y386647D01*
X138262Y387658D01*
X138209Y387698D01*
X138370Y388172D01*
X143063Y388172D01*
X143224Y387698D01*
X143171Y387658D01*
X142395Y386647D01*
X141908Y385470D01*
X141741Y384207D01*
X141908Y382944D01*
X142395Y381767D01*
X143171Y380756D01*
X144182Y379980D01*
X145359Y379493D01*
X146622Y379327D01*
X147885Y379493D01*
X149062Y379980D01*
X150073Y380756D01*
X150848Y381767D01*
X151336Y382944D01*
X151502Y384207D01*
X151336Y385470D01*
X150848Y386647D01*
X150073Y387658D01*
X150020Y387698D01*
X150181Y388172D01*
X154874D01*
X155034Y387698D01*
X154982Y387658D01*
X154206Y386647D01*
X153719Y385470D01*
X153552Y384207D01*
X153719Y382944D01*
X154206Y381767D01*
X154982Y380756D01*
X155993Y379980D01*
X157170Y379493D01*
X158433Y379327D01*
X159087Y379413D01*
X159500Y378963D01*
Y369526D01*
X162299D01*
Y363939D01*
X150188Y351827D01*
X149634Y351981D01*
X149629Y352001D01*
X153969Y356341D01*
X154411Y357003D01*
X154566Y357783D01*
Y369972D01*
X154967Y370138D01*
X155978Y370914D01*
X156754Y371924D01*
X157241Y373101D01*
X157407Y374364D01*
X157241Y375627D01*
X156754Y376805D01*
X155978Y377815D01*
X154967Y378591D01*
X153790Y379078D01*
X152527Y379245D01*
X151264Y379078D01*
X150087Y378591D01*
X149076Y377815D01*
X148301Y376805D01*
X147813Y375627D01*
X147647Y374364D01*
X147813Y373101D01*
X148301Y371924D01*
X149076Y370914D01*
X150087Y370138D01*
X150488Y369972D01*
Y358628D01*
X145808Y353948D01*
X145366Y353287D01*
X145211Y352506D01*
Y300383D01*
X144711Y300175D01*
X142163Y302724D01*
Y369726D01*
X143156Y370138D01*
X144167Y370914D01*
X144943Y371924D01*
X145430Y373101D01*
X145597Y374364D01*
X145430Y375627D01*
X144943Y376805D01*
X144167Y377815D01*
X143156Y378591D01*
X141979Y379078D01*
X140716Y379245D01*
X139453Y379078D01*
X138276Y378591D01*
X137265Y377815D01*
X136490Y376805D01*
X136002Y375627D01*
X135836Y374364D01*
X136002Y373101D01*
X136490Y371924D01*
X137265Y370914D01*
X138084Y370285D01*
Y301879D01*
X138103Y301786D01*
X137642Y301540D01*
X130944Y308238D01*
Y369972D01*
X131345Y370138D01*
X132356Y370914D01*
X133132Y371924D01*
X133619Y373101D01*
X133785Y374364D01*
X133619Y375627D01*
X133132Y376805D01*
X132356Y377815D01*
X131345Y378591D01*
X130168Y379078D01*
X128905Y379245D01*
X127642Y379078D01*
X126465Y378591D01*
X125454Y377815D01*
X124679Y376805D01*
X124191Y375627D01*
X124025Y374364D01*
X124191Y373101D01*
X124679Y371924D01*
X125454Y370914D01*
X126465Y370138D01*
X126866Y369972D01*
Y307393D01*
X126907Y307187D01*
X126446Y306940D01*
X119133Y314253D01*
Y369972D01*
X119534Y370138D01*
X120545Y370914D01*
X121321Y371924D01*
X121808Y373101D01*
X121975Y374364D01*
X121808Y375627D01*
X121321Y376805D01*
X120545Y377815D01*
X119534Y378591D01*
X118357Y379078D01*
X117094Y379245D01*
X115831Y379078D01*
X114654Y378591D01*
X113643Y377815D01*
X112868Y376805D01*
X112380Y375627D01*
X112214Y374364D01*
X112380Y373101D01*
X112868Y371924D01*
X113643Y370914D01*
X114654Y370138D01*
X115055Y369972D01*
Y313409D01*
X115210Y312628D01*
X115652Y311967D01*
X152700Y274919D01*
X152700Y274919D01*
X153362Y274476D01*
X154142Y274321D01*
X154142Y274321D01*
X179046D01*
X191414Y261954D01*
X191245Y261415D01*
X190656Y261021D01*
X186437Y256802D01*
X185995Y256141D01*
X185840Y255360D01*
Y253900D01*
X184714D01*
Y248357D01*
X190651D01*
Y253900D01*
X189918D01*
Y254516D01*
X192017Y256614D01*
X192517Y256407D01*
X192517Y256247D01*
Y250317D01*
X195056D01*
Y246483D01*
X194324D01*
Y241778D01*
X193824Y241571D01*
X190651Y244744D01*
Y247601D01*
X184714D01*
Y242057D01*
X187570D01*
X193706Y235922D01*
X191709Y233924D01*
X191267Y233263D01*
X191142Y232634D01*
X190911Y232288D01*
X190726Y231360D01*
X190911Y230433D01*
X191436Y229646D01*
X192223Y229120D01*
X193151Y228936D01*
X194079Y229120D01*
X194865Y229646D01*
X195391Y230433D01*
X195575Y231360D01*
X195465Y231913D01*
X197405Y233853D01*
X199867D01*
Y234388D01*
X209261D01*
Y234010D01*
X214804D01*
Y239947D01*
X209261D01*
Y238467D01*
X207741D01*
Y242742D01*
X207009D01*
Y251104D01*
X207151D01*
Y256648D01*
X201214D01*
Y251104D01*
X202930D01*
Y242742D01*
X202198D01*
Y238467D01*
X199867D01*
Y239002D01*
X196718D01*
X196521Y239041D01*
X196354D01*
X194562Y240833D01*
X194769Y241333D01*
X199867D01*
Y246483D01*
X199135D01*
Y252069D01*
X198980Y252849D01*
X198848Y253047D01*
Y256648D01*
X192968D01*
X192895Y256740D01*
X192745Y257142D01*
X192948Y257404D01*
X198848D01*
Y263734D01*
X195401D01*
X181333Y277802D01*
X181305Y277821D01*
X181456Y278321D01*
X234350D01*
X235131Y278476D01*
X235163Y278498D01*
X235778Y278620D01*
X236564Y279146D01*
X237090Y279933D01*
X237275Y280860D01*
X237090Y281788D01*
X236564Y282575D01*
X235778Y283100D01*
X234850Y283285D01*
X233922Y283100D01*
X233136Y282575D01*
X233019Y282400D01*
X224501D01*
X224234Y282900D01*
X224590Y283433D01*
X224775Y284360D01*
X224590Y285288D01*
X224064Y286075D01*
X223278Y286600D01*
X222350Y286785D01*
X221422Y286600D01*
X221122Y286400D01*
X214764D01*
X214529Y286841D01*
X214590Y286933D01*
X214775Y287860D01*
X214590Y288788D01*
X214234Y289321D01*
X214501Y289821D01*
X301806D01*
X311496Y280130D01*
Y271489D01*
X310370D01*
Y265158D01*
X316701D01*
Y266284D01*
X319945D01*
Y264961D01*
X325882D01*
Y270505D01*
X319945D01*
Y270363D01*
X316701D01*
Y271489D01*
X315575D01*
Y280975D01*
X315420Y281755D01*
X314978Y282417D01*
X304092Y293302D01*
X303431Y293744D01*
X302650Y293900D01*
X161595D01*
X153163Y302332D01*
Y349035D01*
X165780Y361652D01*
X166222Y362314D01*
X166377Y363094D01*
Y369526D01*
X169177D01*
Y379203D01*
X160303D01*
X160203Y379703D01*
X160873Y379980D01*
X161884Y380756D01*
X162659Y381767D01*
X163147Y382944D01*
X163313Y384207D01*
X163147Y385470D01*
X162659Y386647D01*
X161884Y387658D01*
X161831Y387698D01*
X161992Y388172D01*
X183854D01*
X184155Y387971D01*
X185082Y387786D01*
X186010Y387971D01*
X186797Y388496D01*
X187322Y389283D01*
X187507Y390211D01*
X187322Y391139D01*
X186797Y391925D01*
X186010Y392451D01*
X185082Y392635D01*
X184155Y392451D01*
X183854Y392250D01*
X162259D01*
X162024Y392750D01*
X162659Y393578D01*
X163147Y394755D01*
X163313Y396018D01*
X163147Y397281D01*
X162659Y398458D01*
X161884Y399469D01*
X160873Y400244D01*
X159696Y400732D01*
X158433Y400898D01*
D02*
G37*
G36*
X87567D02*
X86303Y400732D01*
X85126Y400244D01*
X84116Y399469D01*
X83340Y398458D01*
X82853Y397281D01*
X82686Y396018D01*
X82853Y394755D01*
X83340Y393578D01*
X84116Y392567D01*
X85126Y391791D01*
X86303Y391304D01*
X87567Y391138D01*
X88830Y391304D01*
X90007Y391791D01*
X91018Y392567D01*
X91793Y393578D01*
X92281Y394755D01*
X92447Y396018D01*
X92281Y397281D01*
X91793Y398458D01*
X91018Y399469D01*
X90007Y400244D01*
X88830Y400732D01*
X87567Y400898D01*
D02*
G37*
G36*
X75756D02*
X74492Y400732D01*
X73315Y400244D01*
X72305Y399469D01*
X71529Y398458D01*
X71042Y397281D01*
X70875Y396018D01*
X71042Y394755D01*
X71529Y393578D01*
X72305Y392567D01*
X73315Y391791D01*
X74492Y391304D01*
X75756Y391138D01*
X77019Y391304D01*
X78196Y391791D01*
X79207Y392567D01*
X79982Y393578D01*
X80470Y394755D01*
X80636Y396018D01*
X80470Y397281D01*
X79982Y398458D01*
X79207Y399469D01*
X78196Y400244D01*
X77019Y400732D01*
X75756Y400898D01*
D02*
G37*
G36*
X314472Y390829D02*
X308535D01*
Y389900D01*
X305484D01*
Y390632D01*
X300728D01*
Y385089D01*
X305484D01*
Y385821D01*
X308535D01*
Y384892D01*
X314472D01*
Y390829D01*
D02*
G37*
G36*
X299972Y390632D02*
X298594D01*
Y388860D01*
X299972D01*
Y390632D01*
D02*
G37*
G36*
X290000Y390829D02*
X288228D01*
Y388860D01*
X290000D01*
Y390829D01*
D02*
G37*
G36*
X213468Y391967D02*
X211303D01*
Y386848D01*
X213468D01*
Y391967D01*
D02*
G37*
G36*
X261425Y396482D02*
X256275D01*
Y391333D01*
X256811D01*
Y390341D01*
X256079D01*
Y385585D01*
X261622D01*
Y390341D01*
X260889D01*
Y391333D01*
X261425D01*
Y396482D01*
D02*
G37*
G36*
X299972Y386860D02*
X298594D01*
Y385089D01*
X299972D01*
Y386860D01*
D02*
G37*
G36*
X293771Y390829D02*
X292000D01*
Y387860D01*
Y384892D01*
X293771D01*
Y385821D01*
X295216D01*
Y385089D01*
X296594D01*
Y387860D01*
Y390632D01*
X295216D01*
Y389900D01*
X293771D01*
Y390829D01*
D02*
G37*
G36*
X290000Y386860D02*
X288228D01*
Y384892D01*
X290000D01*
Y386860D01*
D02*
G37*
G36*
X254893Y390923D02*
X250169D01*
Y384427D01*
X254893D01*
Y390923D01*
D02*
G37*
G36*
X261622Y384829D02*
X259850D01*
Y383451D01*
X261622D01*
Y384829D01*
D02*
G37*
G36*
X257850D02*
X256079D01*
Y383451D01*
X257850D01*
Y384829D01*
D02*
G37*
G36*
X261622Y381451D02*
X259850D01*
Y380073D01*
X261622D01*
Y381451D01*
D02*
G37*
G36*
X257850D02*
X256079D01*
Y380073D01*
X257850D01*
Y381451D01*
D02*
G37*
G36*
X277015Y371569D02*
X270685D01*
Y370900D01*
X269579D01*
X269278Y371100D01*
X268350Y371285D01*
X267422Y371100D01*
X267122Y370900D01*
X240850D01*
X240850Y370900D01*
X240070Y370744D01*
X239408Y370302D01*
X239408Y370302D01*
X230006Y360900D01*
X228578D01*
X228278Y361100D01*
X228252Y361105D01*
Y361615D01*
X228278Y361620D01*
X229064Y362146D01*
X229590Y362933D01*
X229775Y363860D01*
X229590Y364788D01*
X229064Y365575D01*
X228278Y366100D01*
X228252Y366106D01*
Y366615D01*
X228278Y366620D01*
X229064Y367146D01*
X229590Y367933D01*
X229775Y368860D01*
X229590Y369788D01*
X229064Y370575D01*
X228278Y371100D01*
X227350Y371285D01*
X226422Y371100D01*
X226122Y370900D01*
X217386D01*
X217307Y370884D01*
X213196D01*
Y366837D01*
X217307D01*
X217386Y366821D01*
X226122D01*
X226300Y366702D01*
X226332Y366240D01*
X226308Y366141D01*
X226033Y365900D01*
X217386D01*
X217307Y365884D01*
X213196D01*
Y363051D01*
X212735Y362860D01*
X210839Y364755D01*
X210975Y365326D01*
X211490Y365721D01*
X211971Y366347D01*
X212273Y367077D01*
X212376Y367860D01*
X212273Y368644D01*
X211971Y369373D01*
X211490Y370000D01*
X210863Y370481D01*
X210133Y370783D01*
X209350Y370886D01*
X189253D01*
X189253Y370886D01*
X188470Y370783D01*
X187740Y370481D01*
X187114Y370000D01*
X167120Y350006D01*
X166639Y349379D01*
X166337Y348650D01*
X166234Y347867D01*
Y303451D01*
X166337Y302668D01*
X166639Y301938D01*
X167120Y301311D01*
X172211Y296221D01*
X172211Y296221D01*
X172837Y295740D01*
X173567Y295438D01*
X174350Y295335D01*
X174350Y295335D01*
X190850D01*
X191633Y295438D01*
X192363Y295740D01*
X192990Y296221D01*
X193471Y296847D01*
X193773Y297577D01*
X193876Y298360D01*
X193773Y299144D01*
X193471Y299873D01*
X192990Y300500D01*
X192363Y300981D01*
X191633Y301283D01*
X190850Y301386D01*
X175603D01*
X172285Y304704D01*
Y346613D01*
X180469Y354797D01*
X180600Y354784D01*
X181002Y354245D01*
X180926Y353860D01*
X181110Y352933D01*
X181636Y352146D01*
X182422Y351620D01*
X182448Y351615D01*
Y351105D01*
X182422Y351100D01*
X181636Y350575D01*
X181110Y349788D01*
X180926Y348860D01*
X181110Y347933D01*
X181636Y347146D01*
X182422Y346620D01*
X182448Y346615D01*
Y346106D01*
X182422Y346100D01*
X181636Y345575D01*
X181110Y344788D01*
X180926Y343860D01*
X181110Y342933D01*
X181636Y342146D01*
X182422Y341620D01*
X182448Y341615D01*
Y341106D01*
X182422Y341100D01*
X181636Y340575D01*
X181110Y339788D01*
X180926Y338860D01*
X181110Y337933D01*
X181636Y337146D01*
X182422Y336620D01*
X182448Y336615D01*
Y336105D01*
X182422Y336100D01*
X181636Y335575D01*
X181110Y334788D01*
X180926Y333860D01*
X181110Y332933D01*
X181636Y332146D01*
X182422Y331620D01*
X182448Y331615D01*
Y331105D01*
X182422Y331100D01*
X181636Y330575D01*
X181110Y329788D01*
X180926Y328860D01*
X181110Y327933D01*
X181636Y327146D01*
X182422Y326620D01*
X182695Y326566D01*
Y326056D01*
X182422Y326002D01*
X181636Y325476D01*
X181110Y324690D01*
X180926Y323762D01*
X181110Y322834D01*
X181636Y322048D01*
X182322Y321589D01*
X182365Y321378D01*
Y321245D01*
X182322Y321033D01*
X181636Y320575D01*
X181110Y319788D01*
X180926Y318860D01*
X181110Y317933D01*
X181636Y317146D01*
X182422Y316620D01*
X183350Y316436D01*
X184278Y316620D01*
X184579Y316821D01*
X217386D01*
X217464Y316837D01*
X221574D01*
Y320884D01*
X217464D01*
X217386Y320900D01*
X184579D01*
X184378Y321033D01*
X184335Y321245D01*
Y321378D01*
X184378Y321589D01*
X184726Y321821D01*
X217386D01*
X217464Y321837D01*
X221574D01*
Y325884D01*
X217464D01*
X217386Y325900D01*
X184431D01*
X184278Y326002D01*
X184005Y326056D01*
Y326566D01*
X184278Y326620D01*
X184579Y326821D01*
X217386D01*
X217464Y326837D01*
X221574D01*
Y330884D01*
X217464D01*
X217386Y330900D01*
X184579D01*
X184400Y331019D01*
X184369Y331481D01*
X184392Y331580D01*
X184667Y331821D01*
X217386D01*
X217464Y331837D01*
X221574D01*
Y335884D01*
X217464D01*
X217386Y335900D01*
X184579D01*
X184400Y336019D01*
X184369Y336480D01*
X184392Y336580D01*
X184667Y336821D01*
X217386D01*
X217464Y336837D01*
X221574D01*
Y340884D01*
X217464D01*
X217386Y340900D01*
X184579D01*
X184400Y341019D01*
X184369Y341480D01*
X184392Y341580D01*
X184667Y341821D01*
X217386D01*
X217464Y341837D01*
X221574D01*
Y345884D01*
X217464D01*
X217386Y345900D01*
X184579D01*
X184400Y346019D01*
X184369Y346480D01*
X184392Y346580D01*
X184667Y346821D01*
X217386D01*
X217464Y346837D01*
X221574D01*
Y350884D01*
X217464D01*
X217386Y350900D01*
X184579D01*
X184400Y351019D01*
X184369Y351481D01*
X184392Y351580D01*
X184667Y351821D01*
X217386D01*
X217464Y351837D01*
X221574D01*
Y355884D01*
X217464D01*
X217386Y355900D01*
X184579D01*
X184278Y356100D01*
X183350Y356285D01*
X182965Y356208D01*
X182426Y356611D01*
X182414Y356742D01*
X190507Y364834D01*
X204992D01*
X212385Y357442D01*
X213046Y357000D01*
X213196Y356970D01*
Y356837D01*
X217307D01*
X217386Y356821D01*
X226122D01*
X226422Y356620D01*
X227350Y356436D01*
X228278Y356620D01*
X228578Y356821D01*
X230850D01*
X231630Y356976D01*
X232292Y357418D01*
X241695Y366821D01*
X267122D01*
X267422Y366620D01*
X268350Y366436D01*
X269278Y366620D01*
X269579Y366821D01*
X270685D01*
Y365238D01*
X277015D01*
Y371569D01*
D02*
G37*
G36*
X362850Y378400D02*
X324350D01*
X323570Y378244D01*
X322908Y377802D01*
X320908Y375802D01*
X320466Y375141D01*
X320311Y374360D01*
Y374329D01*
X319035D01*
Y368392D01*
X322016D01*
X325990Y364419D01*
X326651Y363976D01*
X327432Y363821D01*
X331909D01*
X332212Y363456D01*
X332061Y362993D01*
X331738Y362928D01*
X331364Y362678D01*
X330976Y362502D01*
X330588Y362678D01*
X330214Y362928D01*
X329401Y363090D01*
X328589Y362928D01*
X328214Y362678D01*
X327826Y362502D01*
X327439Y362678D01*
X327064Y362928D01*
X326252Y363090D01*
X325439Y362928D01*
X324750Y362468D01*
X324604D01*
X323915Y362928D01*
X323102Y363090D01*
X322289Y362928D01*
X321601Y362468D01*
X321140Y361779D01*
X320979Y360967D01*
Y356242D01*
X321140Y355430D01*
X321601Y354741D01*
X322289Y354280D01*
X323102Y354119D01*
X323915Y354280D01*
X324604Y354741D01*
X324750D01*
X325439Y354280D01*
X326252Y354119D01*
X327064Y354280D01*
X327439Y354531D01*
X327826Y354707D01*
X328214Y354531D01*
X328589Y354280D01*
X329401Y354119D01*
X330012Y354240D01*
X330512Y353924D01*
Y351406D01*
X329777Y350671D01*
X329422Y350600D01*
X328636Y350075D01*
X328110Y349288D01*
X327926Y348360D01*
X328110Y347433D01*
X328636Y346646D01*
X329422Y346120D01*
X330350Y345936D01*
X331278Y346120D01*
X331653Y346371D01*
X331892Y346295D01*
X332141Y346095D01*
X332137Y346032D01*
X324505Y338400D01*
X321287D01*
X320970Y338900D01*
X321092Y339510D01*
X320930Y340323D01*
X320470Y341012D01*
Y341158D01*
X320930Y341847D01*
X321092Y342660D01*
X320930Y343472D01*
X320470Y344161D01*
Y344308D01*
X320930Y344997D01*
X321092Y345809D01*
X320930Y346622D01*
X320470Y347311D01*
Y347457D01*
X320930Y348146D01*
X321092Y348959D01*
X320930Y349771D01*
X320470Y350460D01*
Y350607D01*
X320930Y351296D01*
X321092Y352108D01*
X320930Y352921D01*
X320470Y353610D01*
X319781Y354070D01*
X318968Y354232D01*
X314244D01*
X313431Y354070D01*
X312742Y353610D01*
X312282Y352921D01*
X312120Y352108D01*
X312282Y351296D01*
X312742Y350607D01*
Y350460D01*
X312282Y349771D01*
X312120Y348959D01*
X312282Y348146D01*
X312742Y347457D01*
Y347311D01*
X312282Y346622D01*
X312120Y345809D01*
X312282Y344997D01*
X312742Y344308D01*
Y344161D01*
X312282Y343472D01*
X312120Y342660D01*
X312242Y342049D01*
X311926Y341549D01*
X305015D01*
Y342569D01*
X303889D01*
Y344439D01*
X305590D01*
Y349884D01*
X305590Y350337D01*
X305590Y350837D01*
Y352333D01*
X301854D01*
X298118D01*
Y350837D01*
X298118Y350384D01*
X298118Y349884D01*
Y344439D01*
X299811D01*
Y342569D01*
X298685D01*
Y336238D01*
X305015D01*
Y337471D01*
X306923D01*
X307115Y337009D01*
X305421Y335315D01*
X305015Y335483D01*
Y335483D01*
X298685D01*
Y329152D01*
X305015D01*
Y330815D01*
X305844D01*
X306624Y330970D01*
X307286Y331412D01*
X310195Y334321D01*
X311926D01*
X312242Y333821D01*
X312120Y333211D01*
X312282Y332398D01*
X312742Y331709D01*
Y331563D01*
X312282Y330874D01*
X312120Y330061D01*
X312282Y329249D01*
X312742Y328560D01*
Y328413D01*
X312282Y327724D01*
X312120Y326912D01*
X312228Y326368D01*
X311881Y325868D01*
X309125D01*
X308778Y326100D01*
X307850Y326285D01*
X306922Y326100D01*
X306136Y325575D01*
X305610Y324788D01*
X305426Y323860D01*
X305610Y322933D01*
X306132Y322152D01*
X306205Y322034D01*
Y321600D01*
X306167Y321575D01*
X305642Y320788D01*
X305457Y319860D01*
X305585Y319216D01*
X305124Y318970D01*
X296889Y327205D01*
Y330860D01*
X296734Y331641D01*
X296292Y332302D01*
X270943Y357652D01*
X271150Y358152D01*
X272850D01*
Y360317D01*
X270685D01*
Y358617D01*
X270185Y358410D01*
X263292Y365302D01*
X262631Y365744D01*
X261850Y365900D01*
X254315D01*
X254237Y365884D01*
X250126D01*
Y361837D01*
X254237D01*
X254315Y361821D01*
X261005D01*
X261465Y361362D01*
X261274Y360900D01*
X254315D01*
X254237Y360884D01*
X250126D01*
Y356837D01*
X254237D01*
X254315Y356821D01*
X261763D01*
X289811Y328773D01*
Y325118D01*
X289966Y324337D01*
X290408Y323676D01*
X291573Y322511D01*
X291382Y322049D01*
X277319D01*
Y322782D01*
X276389D01*
Y324152D01*
X277516D01*
Y330482D01*
X271185D01*
Y324152D01*
X272311D01*
Y322782D01*
X271382D01*
Y317238D01*
X277319D01*
Y317971D01*
X291356D01*
X305408Y303919D01*
X306070Y303476D01*
X306850Y303321D01*
X330551D01*
X331331Y303476D01*
X331993Y303919D01*
X333993Y305919D01*
X334435Y306580D01*
X334590Y307360D01*
Y309436D01*
X334700Y309506D01*
Y314116D01*
X336701D01*
Y309917D01*
X337202Y310253D01*
X337349D01*
X338037Y309792D01*
X338850Y309631D01*
X339492Y309758D01*
X339992Y309457D01*
Y305589D01*
X339791Y305288D01*
X339607Y304360D01*
X339791Y303433D01*
X340317Y302646D01*
X341103Y302120D01*
X342031Y301936D01*
X342959Y302120D01*
X343746Y302646D01*
X344271Y303433D01*
X344456Y304360D01*
X344271Y305288D01*
X344070Y305589D01*
Y309415D01*
X344570Y309746D01*
X345149Y309631D01*
X345962Y309792D01*
X346651Y310253D01*
X346797D01*
X347486Y309792D01*
X348299Y309631D01*
X349112Y309792D01*
X349800Y310253D01*
X349947D01*
X350636Y309792D01*
X351448Y309631D01*
X352261Y309792D01*
X352950Y310253D01*
X353097D01*
X353785Y309792D01*
X354598Y309631D01*
X355411Y309792D01*
X356100Y310253D01*
X356560Y310942D01*
X356722Y311754D01*
Y316479D01*
X356560Y317291D01*
X356100Y317980D01*
X355411Y318440D01*
X354598Y318602D01*
X353973Y318478D01*
X353963Y318477D01*
X353498Y318718D01*
X353417Y318796D01*
X353332Y319224D01*
X352890Y319885D01*
X351553Y321223D01*
X351665Y321723D01*
X356414D01*
X356730Y321223D01*
X356608Y320612D01*
X356770Y319800D01*
X357230Y319111D01*
X357919Y318651D01*
X358732Y318489D01*
X359055D01*
Y315541D01*
X358886Y315288D01*
X358701Y314360D01*
X358886Y313433D01*
X359411Y312646D01*
X360198Y312120D01*
X361126Y311936D01*
X362053Y312120D01*
X362840Y312646D01*
X363366Y313433D01*
X363550Y314360D01*
X363366Y315288D01*
X363133Y315636D01*
Y318489D01*
X363456D01*
X363880Y318573D01*
X367877D01*
X380311Y306139D01*
Y266360D01*
X380466Y265580D01*
X380908Y264918D01*
X384408Y261419D01*
X385070Y260976D01*
X385850Y260821D01*
X394850D01*
X395631Y260976D01*
X396292Y261419D01*
X397792Y262918D01*
X398234Y263580D01*
X398389Y264360D01*
Y265180D01*
X398889Y265426D01*
X399357Y265068D01*
X400318Y264670D01*
X401350Y264534D01*
X402382Y264670D01*
X403344Y265068D01*
X404169Y265702D01*
X404803Y266527D01*
X405201Y267489D01*
X405337Y268521D01*
X405209Y269495D01*
X407792Y272079D01*
X408234Y272740D01*
X408389Y273521D01*
Y275180D01*
X408889Y275427D01*
X409357Y275068D01*
X410318Y274670D01*
X411350Y274534D01*
X412382Y274670D01*
X413343Y275068D01*
X414169Y275701D01*
X414803Y276527D01*
X415201Y277489D01*
X415299Y278235D01*
X415311Y278323D01*
X415802Y278291D01*
X415811Y278250D01*
Y275865D01*
X412325Y272379D01*
X411350Y272508D01*
X410318Y272372D01*
X409357Y271973D01*
X408531Y271340D01*
X407897Y270514D01*
X407499Y269552D01*
X407363Y268521D01*
X407499Y267489D01*
X407897Y266527D01*
X408531Y265702D01*
X409357Y265068D01*
X410318Y264670D01*
X411350Y264534D01*
X412382Y264670D01*
X413343Y265068D01*
X414169Y265702D01*
X414803Y266527D01*
X415201Y267489D01*
X415337Y268521D01*
X415209Y269495D01*
X419292Y273579D01*
X419734Y274240D01*
X419889Y275021D01*
Y285860D01*
X419734Y286641D01*
X419292Y287302D01*
X392389Y314205D01*
Y326593D01*
X394697D01*
Y331742D01*
X386004D01*
Y331451D01*
X383319D01*
Y332183D01*
X380514D01*
X380304Y332660D01*
X380528Y332939D01*
X383319D01*
Y334711D01*
X380350D01*
Y335711D01*
X379350D01*
Y338482D01*
X378509D01*
X378318Y338944D01*
X379888Y340514D01*
X386004D01*
Y339979D01*
X390062D01*
X398540Y331502D01*
X398610Y331147D01*
X399136Y330360D01*
X399922Y329835D01*
X400850Y329650D01*
X401778Y329835D01*
X402564Y330360D01*
X403090Y331147D01*
X403275Y332075D01*
X403090Y333003D01*
X402564Y333789D01*
X401778Y334315D01*
X401424Y334385D01*
X394697Y341112D01*
Y344821D01*
X396505D01*
X413311Y328016D01*
Y327455D01*
X411397D01*
Y303801D01*
X419303D01*
Y309821D01*
X426079D01*
Y309482D01*
X431622D01*
Y314238D01*
X426079D01*
Y313900D01*
X419303D01*
Y327455D01*
X417389D01*
Y328860D01*
X417234Y329641D01*
X416792Y330302D01*
X399273Y347821D01*
X399480Y348321D01*
X411397D01*
Y337266D01*
X419303D01*
Y350577D01*
X426079D01*
Y350238D01*
X431622D01*
Y354994D01*
X426079D01*
Y354656D01*
X419303D01*
Y360919D01*
X411397D01*
Y352400D01*
X387426D01*
X387235Y352861D01*
X391375Y357002D01*
X392350Y356873D01*
X393382Y357009D01*
X394344Y357408D01*
X395169Y358041D01*
X395803Y358867D01*
X396201Y359828D01*
X396337Y360860D01*
X396201Y361892D01*
X395803Y362854D01*
X395169Y363680D01*
X394344Y364313D01*
X393382Y364711D01*
X392350Y364847D01*
X391318Y364711D01*
X390357Y364313D01*
X389531Y363680D01*
X388897Y362854D01*
X388499Y361892D01*
X388363Y360860D01*
X388492Y359886D01*
X386765Y358159D01*
X386303Y358350D01*
Y364813D01*
X378397D01*
Y362619D01*
X377923Y362302D01*
X366686Y351065D01*
X365820D01*
X365472Y351565D01*
X365580Y352108D01*
X365418Y352921D01*
X364958Y353610D01*
X364269Y354070D01*
X363456Y354232D01*
X358732D01*
X357919Y354070D01*
X357230Y353610D01*
X356770Y352921D01*
X356608Y352108D01*
X356770Y351296D01*
X357020Y350921D01*
X357197Y350534D01*
X357020Y350146D01*
X356770Y349771D01*
X356608Y348959D01*
X356770Y348146D01*
X357020Y347772D01*
X357197Y347384D01*
X357020Y346996D01*
X356770Y346622D01*
X356608Y345809D01*
X356770Y344997D01*
X357020Y344622D01*
X357197Y344234D01*
X357020Y343847D01*
X356770Y343472D01*
X356608Y342660D01*
X356770Y341847D01*
X357020Y341473D01*
X357197Y341085D01*
X357020Y340697D01*
X356770Y340323D01*
X356682Y339878D01*
X356172D01*
X356090Y340288D01*
X355564Y341075D01*
X354778Y341600D01*
X353850Y341785D01*
X352922Y341600D01*
X352136Y341075D01*
X351610Y340288D01*
X351426Y339360D01*
X351610Y338433D01*
X351811Y338132D01*
Y337360D01*
X351966Y336580D01*
X352408Y335918D01*
X352615Y335712D01*
X352423Y335250D01*
X351325D01*
X340870Y345705D01*
Y353937D01*
X341370Y354244D01*
X342000Y354119D01*
X342812Y354280D01*
X343187Y354531D01*
X343575Y354707D01*
X343962Y354531D01*
X344337Y354280D01*
X345149Y354119D01*
X345962Y354280D01*
X346336Y354531D01*
X346724Y354707D01*
X347112Y354531D01*
X347486Y354280D01*
X348299Y354119D01*
X349112Y354280D01*
X349486Y354531D01*
X349874Y354707D01*
X350261Y354531D01*
X350636Y354280D01*
X351448Y354119D01*
X352261Y354280D01*
X352636Y354531D01*
X353023Y354707D01*
X353411Y354531D01*
X353785Y354280D01*
X354598Y354119D01*
X355411Y354280D01*
X356100Y354741D01*
X356560Y355430D01*
X356722Y356242D01*
Y360967D01*
X356560Y361779D01*
X356100Y362468D01*
X355411Y362928D01*
X354598Y363090D01*
X353785Y362928D01*
X353411Y362678D01*
X353023Y362502D01*
X352636Y362678D01*
X352261Y362928D01*
X351448Y363090D01*
X350636Y362928D01*
X350261Y362678D01*
X349874Y362502D01*
X349486Y362678D01*
X349112Y362928D01*
X348299Y363090D01*
X347689Y362969D01*
X347188Y363285D01*
Y368589D01*
X348803D01*
Y373971D01*
X349181Y374186D01*
X349559Y373971D01*
Y368589D01*
X354315D01*
Y369321D01*
X355216D01*
Y368392D01*
X361153D01*
Y374321D01*
X361909D01*
Y368392D01*
X367846D01*
Y374329D01*
X366313D01*
Y374936D01*
X366158Y375717D01*
X365716Y376378D01*
X364292Y377802D01*
X363631Y378244D01*
X362850Y378400D01*
D02*
G37*
G36*
X277015Y364482D02*
X274850D01*
Y362317D01*
X277015D01*
Y364482D01*
D02*
G37*
G36*
X272850D02*
X270685D01*
Y362317D01*
X272850D01*
Y364482D01*
D02*
G37*
G36*
X277015Y360317D02*
X274850D01*
Y358152D01*
X277015D01*
Y360317D01*
D02*
G37*
G36*
X305590Y356282D02*
X302854D01*
Y354333D01*
X305590D01*
Y356282D01*
D02*
G37*
G36*
X300854D02*
X298118D01*
Y354333D01*
X300854D01*
Y356282D01*
D02*
G37*
G36*
X234350Y356285D02*
X233422Y356100D01*
X232636Y355575D01*
X232110Y354788D01*
X231926Y353860D01*
X232110Y352933D01*
X232636Y352146D01*
X233422Y351620D01*
X234350Y351436D01*
X235278Y351620D01*
X235578Y351821D01*
X254315D01*
X254393Y351837D01*
X258504D01*
Y355884D01*
X254393D01*
X254315Y355900D01*
X235578D01*
X235278Y356100D01*
X234350Y356285D01*
D02*
G37*
G36*
X238850Y351285D02*
X237922Y351100D01*
X237136Y350575D01*
X236610Y349788D01*
X236426Y348860D01*
X236610Y347933D01*
X237136Y347146D01*
X237922Y346620D01*
X238850Y346436D01*
X239778Y346620D01*
X240078Y346821D01*
X254315D01*
X254393Y346837D01*
X258504D01*
Y350884D01*
X254393D01*
X254315Y350900D01*
X240078D01*
X239778Y351100D01*
X238850Y351285D01*
D02*
G37*
G36*
X245850Y346285D02*
X244922Y346100D01*
X244136Y345575D01*
X243610Y344788D01*
X243426Y343860D01*
X243610Y342933D01*
X244136Y342146D01*
X244922Y341620D01*
X245850Y341436D01*
X246778Y341620D01*
X247078Y341821D01*
X254315D01*
X254393Y341837D01*
X258504D01*
Y345884D01*
X254393D01*
X254315Y345900D01*
X247078D01*
X246778Y346100D01*
X245850Y346285D01*
D02*
G37*
G36*
X383319Y338482D02*
X381350D01*
Y336711D01*
X383319D01*
Y338482D01*
D02*
G37*
G36*
X261850Y341285D02*
X260922Y341100D01*
X260622Y340900D01*
X254315D01*
X254237Y340884D01*
X250126D01*
Y336837D01*
X254237D01*
X254315Y336821D01*
X260622D01*
X260922Y336620D01*
X261850Y336436D01*
X262778Y336620D01*
X263564Y337146D01*
X264090Y337933D01*
X264275Y338860D01*
X264090Y339788D01*
X263564Y340575D01*
X262778Y341100D01*
X261850Y341285D01*
D02*
G37*
G36*
X266350Y336285D02*
X265422Y336100D01*
X265122Y335900D01*
X254315D01*
X254237Y335884D01*
X250126D01*
Y331837D01*
X254237D01*
X254315Y331821D01*
X265122D01*
X265422Y331620D01*
X266350Y331436D01*
X267278Y331620D01*
X268064Y332146D01*
X268590Y332933D01*
X268775Y333860D01*
X268590Y334788D01*
X268064Y335575D01*
X267278Y336100D01*
X266350Y336285D01*
D02*
G37*
G36*
X269850Y343285D02*
X268922Y343100D01*
X268136Y342575D01*
X267610Y341788D01*
X267426Y340860D01*
X267610Y339933D01*
X268136Y339146D01*
X268922Y338620D01*
X269277Y338550D01*
X271185Y336642D01*
Y331238D01*
X277516D01*
Y337569D01*
X275948D01*
X275792Y337802D01*
X272161Y341434D01*
X272090Y341788D01*
X271565Y342575D01*
X270778Y343100D01*
X269850Y343285D01*
D02*
G37*
G36*
X241350Y331285D02*
X240422Y331100D01*
X239636Y330575D01*
X239110Y329788D01*
X238926Y328860D01*
X239110Y327933D01*
X239636Y327146D01*
X240422Y326620D01*
X240448Y326615D01*
Y326105D01*
X240422Y326100D01*
X239636Y325575D01*
X239110Y324788D01*
X238926Y323860D01*
X239110Y322933D01*
X239636Y322146D01*
X240422Y321620D01*
X240448Y321615D01*
Y321106D01*
X240422Y321100D01*
X239636Y320575D01*
X239110Y319788D01*
X238926Y318860D01*
X239110Y317933D01*
X239636Y317146D01*
X240422Y316620D01*
X241350Y316436D01*
X242278Y316620D01*
X242579Y316821D01*
X254315D01*
X254393Y316837D01*
X258504D01*
Y320884D01*
X254393D01*
X254315Y320900D01*
X242579D01*
X242400Y321019D01*
X242369Y321480D01*
X242392Y321580D01*
X242667Y321821D01*
X254315D01*
X254393Y321837D01*
X258504D01*
Y325884D01*
X254393D01*
X254315Y325900D01*
X242579D01*
X242400Y326019D01*
X242369Y326481D01*
X242392Y326580D01*
X242667Y326821D01*
X254315D01*
X254393Y326837D01*
X258504D01*
Y330884D01*
X254393D01*
X254315Y330900D01*
X242579D01*
X242278Y331100D01*
X241350Y331285D01*
D02*
G37*
G36*
X431622Y349482D02*
X426079D01*
Y344726D01*
X426811D01*
Y333303D01*
X426610Y333003D01*
X426426Y332075D01*
X426610Y331147D01*
X426811Y330847D01*
Y319750D01*
X426079D01*
Y314994D01*
X431622D01*
Y319750D01*
X430889D01*
Y330847D01*
X431090Y331147D01*
X431275Y332075D01*
X431090Y333003D01*
X430889Y333303D01*
Y344726D01*
X431622D01*
Y349482D01*
D02*
G37*
G36*
X221574Y315884D02*
X218386D01*
Y314860D01*
X221574D01*
Y315884D01*
D02*
G37*
G36*
X216386D02*
X213196D01*
Y314860D01*
X216386D01*
Y315884D01*
D02*
G37*
G36*
X221574Y312860D02*
X218386D01*
Y311837D01*
X221574D01*
Y312860D01*
D02*
G37*
G36*
X216386D02*
X213196D01*
Y311837D01*
X216386D01*
Y312860D01*
D02*
G37*
G36*
X277319Y316482D02*
X271382D01*
Y315900D01*
X254315D01*
X254237Y315884D01*
X250126D01*
Y311837D01*
X254237D01*
X254315Y311821D01*
X271382D01*
Y310939D01*
X277319D01*
Y316482D01*
D02*
G37*
G36*
X377850Y291052D02*
Y289860D01*
X379042D01*
X378565Y290575D01*
X377850Y291052D01*
D02*
G37*
G36*
X375850D02*
X375136Y290575D01*
X374658Y289860D01*
X375850D01*
Y291052D01*
D02*
G37*
G36*
X379042Y287860D02*
X377850D01*
Y286669D01*
X378565Y287146D01*
X379042Y287860D01*
D02*
G37*
G36*
X375850D02*
X374658D01*
X375136Y287146D01*
X375850Y286669D01*
Y287860D01*
D02*
G37*
G36*
X301122Y279829D02*
X295579D01*
Y278900D01*
X293579D01*
X293278Y279100D01*
X292350Y279285D01*
X291422Y279100D01*
X290636Y278575D01*
X290110Y277788D01*
X289926Y276860D01*
X290110Y275933D01*
X290636Y275146D01*
X291422Y274620D01*
X292350Y274436D01*
X293278Y274620D01*
X293579Y274821D01*
X295579D01*
Y273892D01*
X301122D01*
Y279829D01*
D02*
G37*
G36*
X295885Y267355D02*
X294114D01*
Y265780D01*
X295885D01*
Y267355D01*
D02*
G37*
G36*
X330564Y265573D02*
X329637Y265388D01*
X328850Y264863D01*
X328325Y264076D01*
X328254Y263721D01*
X328006Y263473D01*
X325882D01*
Y264205D01*
X319945D01*
Y258662D01*
X325882D01*
Y259395D01*
X328850D01*
X329630Y259550D01*
X330292Y259992D01*
X331138Y260838D01*
X331492Y260908D01*
X332279Y261434D01*
X332804Y262220D01*
X332989Y263148D01*
X332804Y264076D01*
X332279Y264863D01*
X331492Y265388D01*
X330564Y265573D01*
D02*
G37*
G36*
X214804Y262947D02*
X209261D01*
Y262215D01*
X207151D01*
Y262947D01*
X201214D01*
Y257404D01*
X207151D01*
Y258136D01*
X209009D01*
Y254294D01*
X208277D01*
Y249144D01*
X213820D01*
Y254294D01*
X213088D01*
Y257010D01*
X214804D01*
Y262947D01*
D02*
G37*
G36*
X46204Y262872D02*
X40661D01*
Y262140D01*
X38551D01*
Y262872D01*
X32614D01*
Y257329D01*
X38551D01*
Y258061D01*
X40409D01*
Y254175D01*
X39677D01*
Y249026D01*
X45220D01*
Y254175D01*
X44488D01*
Y256935D01*
X46204D01*
Y262872D01*
D02*
G37*
G36*
X270204Y262691D02*
X264661D01*
Y261959D01*
X262551D01*
Y262691D01*
X256614D01*
Y257148D01*
X262551D01*
Y257880D01*
X264409D01*
Y253994D01*
X263677D01*
Y248845D01*
X269220D01*
Y253994D01*
X268488D01*
Y256754D01*
X270204D01*
Y262691D01*
D02*
G37*
G36*
X158604Y262613D02*
X153061D01*
Y261880D01*
X150951D01*
Y262612D01*
X145014D01*
Y257069D01*
X150951D01*
Y257802D01*
X152452D01*
X152809Y257504D01*
Y253916D01*
X152077D01*
Y248766D01*
X157620D01*
Y253916D01*
X156888D01*
Y256676D01*
X158604D01*
Y262613D01*
D02*
G37*
G36*
X250850Y279285D02*
X249922Y279100D01*
X249136Y278575D01*
X248610Y277788D01*
X248426Y276860D01*
X248610Y275933D01*
X249043Y275285D01*
Y263478D01*
X247917D01*
Y261705D01*
X247156D01*
X246376Y261550D01*
X245714Y261108D01*
X241507Y256901D01*
X241065Y256239D01*
X240909Y255459D01*
Y253601D01*
X239980D01*
Y248057D01*
X245917D01*
Y253601D01*
X244988D01*
Y254614D01*
X247637Y257264D01*
X247917Y257148D01*
Y257148D01*
X254248D01*
Y263478D01*
X253121D01*
Y276090D01*
X253275Y276860D01*
X253090Y277788D01*
X252565Y278575D01*
X251778Y279100D01*
X250850Y279285D01*
D02*
G37*
G36*
X94751Y262829D02*
X88814D01*
Y257286D01*
X94751D01*
Y257821D01*
X96609D01*
Y254175D01*
X95877D01*
Y249026D01*
X101420D01*
Y254175D01*
X100688D01*
Y256892D01*
X102404D01*
Y262829D01*
X96861D01*
Y261900D01*
X94751D01*
Y262829D01*
D02*
G37*
G36*
X69850Y379245D02*
X68587Y379078D01*
X67410Y378591D01*
X66399Y377815D01*
X65624Y376805D01*
X65136Y375627D01*
X64970Y374364D01*
X65136Y373101D01*
X65624Y371924D01*
X66399Y370914D01*
X67410Y370138D01*
X67811Y369972D01*
Y314932D01*
X25640Y272761D01*
X25198Y272100D01*
X25043Y271319D01*
Y263069D01*
X23917D01*
Y261135D01*
X23317D01*
X22537Y260979D01*
X21875Y260537D01*
X21875Y260537D01*
X17640Y256302D01*
X17198Y255641D01*
X17043Y254860D01*
Y253782D01*
X16114D01*
Y248238D01*
X22051D01*
Y253782D01*
X21595D01*
X21387Y254282D01*
X23555Y256449D01*
X23917Y256738D01*
Y256738D01*
X23917Y256738D01*
X30248D01*
Y263069D01*
X29122D01*
Y270475D01*
X71292Y312645D01*
X71734Y313307D01*
X71889Y314087D01*
Y369972D01*
X72290Y370138D01*
X73301Y370914D01*
X74077Y371924D01*
X74564Y373101D01*
X74730Y374364D01*
X74564Y375627D01*
X74077Y376805D01*
X73301Y377815D01*
X72290Y378591D01*
X71113Y379078D01*
X69850Y379245D01*
D02*
G37*
G36*
X221104Y262947D02*
X215560D01*
Y257010D01*
X216883D01*
Y250553D01*
X216151D01*
Y249127D01*
X216000Y248762D01*
X215897Y247979D01*
X216000Y247195D01*
X216151Y246831D01*
Y246229D01*
X215710Y245993D01*
X215516Y246122D01*
X214736Y246278D01*
X213820D01*
Y246813D01*
X208277D01*
Y241664D01*
X213820D01*
Y241664D01*
X214320Y241770D01*
X215731Y240359D01*
X215560Y239947D01*
X215560D01*
Y234010D01*
X216293D01*
Y232705D01*
X212008Y228421D01*
X211566Y227759D01*
X211411Y226979D01*
Y220900D01*
X195450D01*
X194670Y220744D01*
X194008Y220302D01*
X192008Y218302D01*
X191566Y217641D01*
X191411Y216860D01*
Y216112D01*
X188946D01*
Y208128D01*
X191411D01*
Y207205D01*
X179908Y195702D01*
X179466Y195041D01*
X179311Y194260D01*
Y132342D01*
X179466Y131562D01*
X179908Y130901D01*
X184246Y126562D01*
X184142Y126310D01*
X183986Y125124D01*
X184142Y123938D01*
X184600Y122833D01*
X185328Y121884D01*
X186277Y121156D01*
X187382Y120698D01*
X188568Y120542D01*
X189754Y120698D01*
X190860Y121156D01*
X191809Y121884D01*
X192537Y122833D01*
X192995Y123938D01*
X193151Y125124D01*
X192995Y126310D01*
X192537Y127415D01*
X191809Y128365D01*
X190860Y129093D01*
X189754Y129551D01*
X188568Y129707D01*
X187382Y129551D01*
X187130Y129446D01*
X183389Y133187D01*
Y193416D01*
X194892Y204919D01*
X195334Y205580D01*
X195490Y206360D01*
X195490Y206360D01*
Y208128D01*
X197954D01*
Y216112D01*
X196539D01*
X196293Y216612D01*
X196454Y216821D01*
X211411D01*
Y216112D01*
X208946D01*
Y208128D01*
X217954D01*
Y216112D01*
X215490D01*
Y218860D01*
Y226134D01*
X219774Y230418D01*
X219774Y230418D01*
X220216Y231080D01*
X220371Y231860D01*
Y234010D01*
X221104D01*
Y239947D01*
X220389D01*
Y240624D01*
X220234Y241405D01*
X219792Y242066D01*
X217311Y244547D01*
X217476Y245090D01*
X217523Y245099D01*
X222824Y239798D01*
Y227360D01*
X222927Y226577D01*
X223230Y225847D01*
X223710Y225221D01*
X224337Y224740D01*
X225067Y224438D01*
X225850Y224335D01*
X226633Y224438D01*
X227363Y224740D01*
X227990Y225221D01*
X228471Y225847D01*
X228773Y226577D01*
X228876Y227360D01*
Y241051D01*
X228876Y241051D01*
X228773Y241834D01*
X228471Y242564D01*
X227990Y243191D01*
X227990Y243191D01*
X221694Y249486D01*
Y250553D01*
X220962D01*
Y257010D01*
X221104D01*
Y262947D01*
D02*
G37*
G36*
X276504Y262691D02*
X270960D01*
Y256754D01*
X272283D01*
Y250254D01*
X271551D01*
Y248827D01*
X271400Y248463D01*
X271297Y247679D01*
X271400Y246896D01*
X271551Y246531D01*
Y246143D01*
X271051Y245852D01*
X270417Y245978D01*
X269220D01*
Y246514D01*
X263677D01*
Y241364D01*
X269220D01*
Y241545D01*
X269720Y241752D01*
X271137Y240335D01*
X270960Y239908D01*
X270960D01*
Y233971D01*
X271693D01*
Y232705D01*
X267408Y228421D01*
X267244Y228174D01*
X266966Y227759D01*
X266811Y226979D01*
Y220900D01*
X250850D01*
X250070Y220744D01*
X249408Y220302D01*
X247408Y218302D01*
X246966Y217641D01*
X246811Y216860D01*
Y216112D01*
X244346D01*
Y208128D01*
X246811D01*
Y206805D01*
X235908Y195902D01*
X235466Y195241D01*
X235311Y194460D01*
Y131742D01*
X235466Y130962D01*
X235908Y130300D01*
X239646Y126562D01*
X239542Y126310D01*
X239386Y125124D01*
X239542Y123938D01*
X240000Y122833D01*
X240728Y121884D01*
X241677Y121156D01*
X242782Y120698D01*
X243968Y120542D01*
X245154Y120698D01*
X246260Y121156D01*
X247209Y121884D01*
X247937Y122833D01*
X248395Y123938D01*
X248551Y125124D01*
X248395Y126310D01*
X247937Y127415D01*
X247209Y128365D01*
X246260Y129093D01*
X245154Y129551D01*
X243968Y129707D01*
X242782Y129551D01*
X242530Y129446D01*
X239389Y132587D01*
Y142843D01*
X239889Y142942D01*
X240000Y142675D01*
X240728Y141727D01*
X241677Y140998D01*
X242782Y140540D01*
X243968Y140384D01*
X245154Y140540D01*
X245406Y140645D01*
X256811Y129240D01*
Y60636D01*
X256966Y59856D01*
X257408Y59194D01*
X269410Y47192D01*
X269306Y46940D01*
X269149Y45754D01*
X269306Y44568D01*
X269763Y43463D01*
X270492Y42514D01*
X271441Y41786D01*
X272546Y41328D01*
X273732Y41172D01*
X274918Y41328D01*
X276023Y41786D01*
X276972Y42514D01*
X277700Y43463D01*
X278158Y44568D01*
X278314Y45754D01*
X278158Y46940D01*
X277700Y48045D01*
X276972Y48994D01*
X276023Y49723D01*
X274918Y50181D01*
X273732Y50337D01*
X272546Y50181D01*
X272294Y50076D01*
X260889Y61481D01*
Y130085D01*
X260734Y130865D01*
X260292Y131527D01*
X248290Y143529D01*
X248395Y143781D01*
X248551Y144967D01*
X248395Y146153D01*
X247937Y147258D01*
X247209Y148207D01*
X246260Y148935D01*
X245154Y149393D01*
X243968Y149549D01*
X243889Y149619D01*
Y170505D01*
X244346Y170608D01*
X244389Y170608D01*
X253354D01*
Y178593D01*
X250889D01*
Y182632D01*
X251090Y182933D01*
X251275Y183860D01*
X251090Y184788D01*
X250565Y185575D01*
X249778Y186100D01*
X248850Y186285D01*
X247922Y186100D01*
X247136Y185575D01*
X246610Y184788D01*
X246426Y183860D01*
X246610Y182933D01*
X246811Y182632D01*
Y178593D01*
X244389D01*
X244346Y178593D01*
X243889Y178696D01*
Y188116D01*
X260292Y204519D01*
X260734Y205180D01*
X260890Y205961D01*
Y208128D01*
X263354D01*
Y216112D01*
X254346D01*
Y208128D01*
X256811D01*
Y206805D01*
X240408Y190402D01*
X239966Y189741D01*
X239889Y189354D01*
X239389Y189404D01*
Y193616D01*
X250292Y204519D01*
X250734Y205180D01*
X250889Y205961D01*
Y208128D01*
X253354D01*
Y216112D01*
X251939D01*
X251693Y216612D01*
X251854Y216821D01*
X266811D01*
Y216112D01*
X264346D01*
Y208128D01*
X273354D01*
Y216112D01*
X270889D01*
Y218860D01*
Y226134D01*
X275174Y230419D01*
X275616Y231080D01*
X275616Y231080D01*
X275771Y231861D01*
X275771Y231861D01*
Y233971D01*
X276504D01*
Y239908D01*
X275771D01*
Y240624D01*
X275616Y241405D01*
X276014Y241709D01*
X278324Y239398D01*
Y227605D01*
X278427Y226822D01*
X278730Y226092D01*
X279210Y225466D01*
X279837Y224985D01*
X280567Y224682D01*
X281350Y224579D01*
X282133Y224682D01*
X282863Y224985D01*
X283490Y225466D01*
X283971Y226092D01*
X284273Y226822D01*
X284376Y227605D01*
Y240652D01*
X284376Y240652D01*
X284273Y241435D01*
X283971Y242165D01*
X283490Y242791D01*
X277094Y249187D01*
Y250254D01*
X276362D01*
Y256754D01*
X276504D01*
Y262691D01*
D02*
G37*
G36*
X164904Y262613D02*
X159360D01*
Y256676D01*
X160683D01*
Y250175D01*
X159951D01*
Y248749D01*
X159800Y248384D01*
X159697Y247601D01*
X159800Y246817D01*
X159951Y246453D01*
Y246247D01*
X159451Y245836D01*
X159132Y245900D01*
X157620D01*
Y246435D01*
X152077D01*
Y241286D01*
X157620D01*
Y241821D01*
X158287D01*
X159780Y240329D01*
X159573Y239829D01*
X159360D01*
Y233892D01*
X160093D01*
Y232705D01*
X155808Y228421D01*
X155366Y227759D01*
X155211Y226979D01*
Y220900D01*
X139250D01*
X138470Y220744D01*
X137808Y220302D01*
X135808Y218302D01*
X135366Y217641D01*
X135211Y216860D01*
Y216112D01*
X132746D01*
Y208128D01*
X135211D01*
Y206605D01*
X123908Y195302D01*
X123466Y194641D01*
X123311Y193860D01*
Y132142D01*
X123466Y131362D01*
X123908Y130701D01*
X128046Y126562D01*
X127942Y126310D01*
X127786Y125124D01*
X127942Y123938D01*
X128400Y122833D01*
X129128Y121884D01*
X130077Y121156D01*
X131182Y120698D01*
X132368Y120542D01*
X133554Y120698D01*
X134660Y121156D01*
X135609Y121884D01*
X136337Y122833D01*
X136795Y123938D01*
X136951Y125124D01*
X136795Y126310D01*
X136337Y127415D01*
X135609Y128365D01*
X134660Y129093D01*
X133554Y129551D01*
X132368Y129707D01*
X131182Y129551D01*
X130930Y129446D01*
X127389Y132987D01*
Y144148D01*
X127889Y144181D01*
X127942Y143781D01*
X128400Y142675D01*
X129128Y141727D01*
X130077Y140998D01*
X131182Y140540D01*
X132368Y140384D01*
X133554Y140540D01*
X133806Y140645D01*
X144811Y129640D01*
Y61036D01*
X144966Y60256D01*
X145408Y59594D01*
X157810Y47192D01*
X157706Y46940D01*
X157549Y45754D01*
X157706Y44568D01*
X158163Y43463D01*
X158892Y42514D01*
X159841Y41786D01*
X160946Y41328D01*
X162132Y41172D01*
X163318Y41328D01*
X164423Y41786D01*
X165372Y42514D01*
X166101Y43463D01*
X166558Y44568D01*
X166714Y45754D01*
X166558Y46940D01*
X166101Y48045D01*
X165372Y48994D01*
X164423Y49723D01*
X163318Y50181D01*
X162132Y50337D01*
X160946Y50181D01*
X160694Y50076D01*
X148889Y61881D01*
Y130485D01*
X148734Y131265D01*
X148292Y131927D01*
X136690Y143529D01*
X136795Y143781D01*
X136951Y144967D01*
X136795Y146153D01*
X136337Y147258D01*
X135609Y148207D01*
X134660Y148935D01*
X133554Y149393D01*
X132389Y149547D01*
Y170263D01*
X132746Y170608D01*
X132889Y170608D01*
X141754D01*
Y178593D01*
X139289D01*
Y182632D01*
X139490Y182933D01*
X139675Y183860D01*
X139490Y184788D01*
X138965Y185575D01*
X138178Y186100D01*
X137250Y186285D01*
X136322Y186100D01*
X135536Y185575D01*
X135010Y184788D01*
X134826Y183860D01*
X135010Y182933D01*
X135211Y182632D01*
Y178593D01*
X132889D01*
X132746Y178593D01*
X132389Y178938D01*
Y188016D01*
X147924Y203550D01*
X148278Y203620D01*
X149065Y204146D01*
X149590Y204933D01*
X149775Y205860D01*
X149590Y206788D01*
X149290Y207238D01*
Y208128D01*
X151754D01*
Y216112D01*
X142746D01*
Y208128D01*
X145211D01*
Y206939D01*
X145110Y206788D01*
X145040Y206434D01*
X128908Y190302D01*
X128466Y189641D01*
X128311Y188860D01*
Y148361D01*
X128466Y147581D01*
X128551Y147455D01*
X128400Y147258D01*
X127942Y146153D01*
X127889Y145753D01*
X127389Y145786D01*
Y193016D01*
X138692Y204319D01*
X139134Y204980D01*
X139289Y205761D01*
Y208128D01*
X141754D01*
Y216112D01*
X140339D01*
X140093Y216612D01*
X140254Y216821D01*
X155211D01*
Y216112D01*
X152746D01*
Y208128D01*
X161754D01*
Y216112D01*
X159290D01*
Y218860D01*
Y226134D01*
X163574Y230418D01*
X163574Y230418D01*
X164016Y231080D01*
X164171Y231860D01*
Y233892D01*
X164904D01*
Y239829D01*
X164171D01*
Y240860D01*
X164095Y241241D01*
X164556Y241488D01*
X166824Y239220D01*
Y227360D01*
X166927Y226577D01*
X167230Y225847D01*
X167710Y225221D01*
X168337Y224740D01*
X169067Y224438D01*
X169850Y224335D01*
X170633Y224438D01*
X171363Y224740D01*
X171990Y225221D01*
X172471Y225847D01*
X172773Y226577D01*
X172876Y227360D01*
Y240473D01*
X172773Y241256D01*
X172471Y241986D01*
X171990Y242613D01*
X165494Y249108D01*
Y250175D01*
X164762D01*
Y256676D01*
X164904D01*
Y262613D01*
D02*
G37*
G36*
X295913Y245798D02*
X294142D01*
Y244223D01*
X295913D01*
Y245798D01*
D02*
G37*
G36*
X93472Y379245D02*
X92209Y379078D01*
X91032Y378591D01*
X90021Y377815D01*
X89246Y376805D01*
X88758Y375627D01*
X88592Y374364D01*
X88758Y373101D01*
X89246Y371924D01*
X90021Y370914D01*
X91032Y370138D01*
X91433Y369972D01*
Y295573D01*
X81840Y285980D01*
X81398Y285319D01*
X81243Y284538D01*
Y263616D01*
X80117D01*
Y261408D01*
X79791D01*
X79011Y261253D01*
X78349Y260811D01*
X73840Y256302D01*
X73398Y255641D01*
X73243Y254860D01*
Y253782D01*
X72314D01*
Y248238D01*
X78251D01*
Y253782D01*
X77794D01*
X77587Y254282D01*
X79617Y256311D01*
X80117Y256104D01*
Y250199D01*
X82657D01*
Y246364D01*
X81924D01*
Y241660D01*
X81424Y241453D01*
X78251Y244626D01*
Y247482D01*
X72314D01*
Y241939D01*
X75170D01*
X81336Y235773D01*
X81017Y235295D01*
X80862Y234514D01*
Y232589D01*
X80661Y232288D01*
X80476Y231360D01*
X80661Y230433D01*
X81186Y229646D01*
X81973Y229120D01*
X82901Y228936D01*
X83829Y229120D01*
X84615Y229646D01*
X85141Y230433D01*
X85325Y231360D01*
X85141Y232288D01*
X84940Y232589D01*
Y233669D01*
X85005Y233734D01*
X87467D01*
Y233821D01*
X98633D01*
X98988Y233892D01*
X102404D01*
Y239829D01*
X96861D01*
Y237900D01*
X95341D01*
Y242624D01*
X94609D01*
Y250987D01*
X94751D01*
Y256530D01*
X88814D01*
Y250987D01*
X90531D01*
Y242624D01*
X89798D01*
Y237900D01*
X87467D01*
Y238884D01*
X84318D01*
X84121Y238923D01*
X83954D01*
X82162Y240715D01*
X82369Y241215D01*
X87467D01*
Y246364D01*
X86735D01*
Y251951D01*
X86580Y252731D01*
X86448Y252929D01*
Y256530D01*
X80752D01*
X80529Y257024D01*
X80733Y257286D01*
X86448D01*
Y263616D01*
X85321D01*
Y283694D01*
X94914Y293286D01*
X95356Y293948D01*
X95511Y294728D01*
Y369972D01*
X95912Y370138D01*
X96923Y370914D01*
X97699Y371924D01*
X98186Y373101D01*
X98352Y374364D01*
X98186Y375627D01*
X97699Y376805D01*
X96923Y377815D01*
X95912Y378591D01*
X94735Y379078D01*
X93472Y379245D01*
D02*
G37*
G36*
X105283D02*
X104020Y379078D01*
X102843Y378591D01*
X101832Y377815D01*
X101057Y376805D01*
X100569Y375627D01*
X100403Y374364D01*
X100569Y373101D01*
X101057Y371924D01*
X101832Y370914D01*
X102843Y370138D01*
X103244Y369972D01*
Y294434D01*
X103399Y293653D01*
X103841Y292992D01*
X135198Y261635D01*
X135030Y261096D01*
X134441Y260703D01*
X134441Y260703D01*
X130040Y256302D01*
X129598Y255641D01*
X129443Y254860D01*
Y253522D01*
X128514D01*
Y247978D01*
X134451D01*
Y253522D01*
X133536D01*
X133528Y254022D01*
X135817Y256311D01*
X136317Y256104D01*
X136317Y255900D01*
Y249982D01*
X138856D01*
Y246364D01*
X138124D01*
Y241673D01*
X138124Y241400D01*
X137639Y241178D01*
X134451Y244366D01*
Y247223D01*
X128514D01*
Y241679D01*
X131370D01*
X136801Y236248D01*
X134908Y234355D01*
X134466Y233694D01*
X134408Y233400D01*
X133905D01*
X133125Y233244D01*
X132463Y232802D01*
X128332Y228671D01*
X127977Y228600D01*
X127191Y228075D01*
X126665Y227288D01*
X126595Y226934D01*
X111408Y211747D01*
X110966Y211086D01*
X110811Y210305D01*
Y201089D01*
X110610Y200788D01*
X110426Y199860D01*
X110610Y198933D01*
X110811Y198632D01*
Y178647D01*
X110571Y178288D01*
X110386Y177360D01*
X110571Y176433D01*
X111097Y175646D01*
X111883Y175120D01*
X112811Y174936D01*
X113739Y175120D01*
X114525Y175646D01*
X115051Y176433D01*
X115235Y177360D01*
X115051Y178288D01*
X114889Y178530D01*
Y198632D01*
X115090Y198933D01*
X115275Y199860D01*
X115090Y200788D01*
X114889Y201089D01*
Y209461D01*
X129479Y224050D01*
X129833Y224120D01*
X130620Y224646D01*
X131145Y225433D01*
X131216Y225787D01*
X134750Y229321D01*
X135122D01*
X135422Y229120D01*
X136350Y228936D01*
X137278Y229120D01*
X138065Y229646D01*
X138590Y230433D01*
X138775Y231360D01*
X138593Y232273D01*
X140055Y233734D01*
X143667D01*
Y233821D01*
X154833D01*
X155188Y233892D01*
X158604D01*
Y239829D01*
X153061D01*
Y237900D01*
X151541D01*
Y242624D01*
X150022D01*
Y250770D01*
X150951D01*
Y256313D01*
X145014D01*
Y250770D01*
X145943D01*
Y241796D01*
X145959Y241717D01*
Y240624D01*
X145959Y240624D01*
X145959Y240624D01*
X145998Y240426D01*
Y237900D01*
X143667D01*
Y238884D01*
X140518D01*
X140321Y238923D01*
X139894D01*
X138087Y240730D01*
X138310Y241215D01*
X138547Y241215D01*
X143667D01*
Y246364D01*
X142935D01*
Y251734D01*
X142780Y252515D01*
X142648Y252712D01*
Y256313D01*
X136736Y256313D01*
X136513Y256808D01*
X136716Y257069D01*
X142648D01*
Y263400D01*
X139201D01*
X107322Y295278D01*
Y369972D01*
X107723Y370138D01*
X108734Y370914D01*
X109510Y371924D01*
X109997Y373101D01*
X110163Y374364D01*
X109997Y375627D01*
X109510Y376805D01*
X108734Y377815D01*
X107723Y378591D01*
X106546Y379078D01*
X105283Y379245D01*
D02*
G37*
G36*
X307421Y279829D02*
X301878D01*
Y273892D01*
X302610D01*
Y271095D01*
X301988D01*
Y269382D01*
X300113Y267507D01*
X299657Y267355D01*
Y267355D01*
X299657Y267355D01*
X297885D01*
Y264780D01*
X296885D01*
Y263780D01*
X294114D01*
Y262206D01*
X294874D01*
Y249372D01*
X294142D01*
Y247798D01*
X296913D01*
Y246798D01*
X297913D01*
Y244223D01*
X298811D01*
Y238589D01*
X298610Y238288D01*
X298426Y237360D01*
X298610Y236433D01*
X299136Y235646D01*
X299922Y235120D01*
X300850Y234936D01*
X301778Y235120D01*
X302565Y235646D01*
X303090Y236433D01*
X303275Y237360D01*
X303090Y238288D01*
X302889Y238589D01*
Y240483D01*
X307559D01*
Y242945D01*
X309372Y244758D01*
X310001D01*
X310295Y244258D01*
X310232Y243945D01*
Y242170D01*
X310325Y241703D01*
X310519Y241413D01*
X290777Y221671D01*
X290422Y221600D01*
X289636Y221075D01*
X289110Y220288D01*
X288926Y219360D01*
X289110Y218433D01*
X289636Y217646D01*
X290422Y217120D01*
X291350Y216936D01*
X292278Y217120D01*
X293064Y217646D01*
X293590Y218433D01*
X293661Y218787D01*
X312830Y237957D01*
X314369Y236419D01*
X315031Y235976D01*
X315811Y235821D01*
X334267D01*
X335048Y235976D01*
X335709Y236419D01*
X336731Y237440D01*
X337229Y237391D01*
X337389Y237153D01*
X339254Y235287D01*
X339324Y234933D01*
X339850Y234146D01*
X340637Y233620D01*
X341564Y233436D01*
X342492Y233620D01*
X343279Y234146D01*
X343805Y234933D01*
X343989Y235860D01*
X343919Y236211D01*
X344366Y236527D01*
X344575Y236403D01*
X344610Y236225D01*
X345136Y235438D01*
X345850Y234961D01*
Y237153D01*
X346850D01*
Y238153D01*
X349042D01*
X348565Y238867D01*
X347778Y239392D01*
X347424Y239463D01*
X346977Y239910D01*
X347223Y240370D01*
X347490Y240317D01*
X350250D01*
X350716Y240410D01*
X351111Y240674D01*
X351375Y241069D01*
X351468Y241536D01*
Y242138D01*
X354792Y245462D01*
X355234Y246123D01*
X355389Y246904D01*
Y258380D01*
X355234Y259160D01*
X354792Y259822D01*
X350312Y264302D01*
X349650Y264744D01*
X348870Y264900D01*
X337850D01*
X337070Y264744D01*
X336408Y264302D01*
X329505Y257400D01*
X310850D01*
X310070Y257244D01*
X309408Y256802D01*
X307408Y254802D01*
X306966Y254141D01*
X306811Y253360D01*
Y253113D01*
X305096D01*
X302889Y255319D01*
Y258465D01*
X307531D01*
Y259001D01*
X310370D01*
Y258072D01*
X316701D01*
Y264402D01*
X310370D01*
Y263079D01*
X307531D01*
Y263615D01*
X302889D01*
Y264516D01*
X304304Y265930D01*
X304382Y265946D01*
X307531D01*
Y271095D01*
X306688D01*
Y273892D01*
X307421D01*
Y279829D01*
D02*
G37*
G36*
X262551Y256392D02*
X256614D01*
Y250849D01*
X257543D01*
Y240916D01*
X257559Y240837D01*
Y240703D01*
X257559Y240703D01*
X257559Y240703D01*
X257598Y240505D01*
Y238427D01*
X255267D01*
Y238963D01*
X252118D01*
X251921Y239002D01*
X251360D01*
X249459Y240903D01*
X249776Y241294D01*
X250203Y241294D01*
X255267D01*
Y246443D01*
X254535D01*
Y251813D01*
X254380Y252594D01*
X254248Y252791D01*
Y256392D01*
X247917D01*
Y250061D01*
X250457D01*
Y246443D01*
X249724D01*
Y241791D01*
X249724Y241345D01*
X249334Y241028D01*
X245917Y244445D01*
Y247301D01*
X239980D01*
Y241758D01*
X242836D01*
X248909Y235685D01*
X246857Y233633D01*
X246694Y233600D01*
X245908Y233075D01*
X245382Y232288D01*
X245197Y231360D01*
X245382Y230433D01*
X245908Y229646D01*
X246694Y229120D01*
X247622Y228936D01*
X248550Y229120D01*
X249336Y229646D01*
X249862Y230433D01*
X249971Y230979D01*
X252805Y233813D01*
X255267D01*
Y234349D01*
X264661D01*
Y233971D01*
X270204D01*
Y239908D01*
X264661D01*
Y238427D01*
X263141D01*
Y242703D01*
X261621D01*
Y250849D01*
X262551D01*
Y256392D01*
D02*
G37*
G36*
X81661Y379245D02*
X80398Y379078D01*
X79221Y378591D01*
X78210Y377815D01*
X77435Y376805D01*
X76947Y375627D01*
X76781Y374364D01*
X76947Y373101D01*
X77435Y371924D01*
X78210Y370914D01*
X79221Y370138D01*
X79622Y369972D01*
Y296262D01*
X64408Y281048D01*
X63966Y280386D01*
X63811Y279606D01*
Y225358D01*
X63311Y225206D01*
X63064Y225575D01*
X62278Y226100D01*
X61350Y226285D01*
X60422Y226100D01*
X60122Y225900D01*
X50578D01*
X50278Y226100D01*
X49350Y226285D01*
X48422Y226100D01*
X47636Y225575D01*
X47390Y225206D01*
X46889Y225358D01*
Y226134D01*
X51174Y230418D01*
X51174Y230418D01*
X51616Y231080D01*
X51771Y231860D01*
Y233892D01*
X52504D01*
Y239829D01*
X51771D01*
Y240624D01*
X51616Y241405D01*
X51261Y241935D01*
X51650Y242254D01*
X53324Y240579D01*
Y240288D01*
X53427Y239505D01*
X53730Y238775D01*
X54211Y238149D01*
X54837Y237668D01*
X55567Y237366D01*
X56350Y237263D01*
X57133Y237366D01*
X57863Y237668D01*
X58490Y238149D01*
X58971Y238775D01*
X59273Y239505D01*
X59376Y240288D01*
Y241833D01*
X59273Y242616D01*
X58971Y243346D01*
X58490Y243972D01*
X58490Y243972D01*
X53094Y249368D01*
Y250435D01*
X52362D01*
Y256935D01*
X52504D01*
Y262872D01*
X46960D01*
Y256935D01*
X48283D01*
Y250435D01*
X47551D01*
Y249008D01*
X47400Y248644D01*
X47297Y247860D01*
X47400Y247077D01*
X47551Y246712D01*
Y246177D01*
X47110Y245942D01*
X47016Y246004D01*
X46236Y246159D01*
X45220D01*
Y246695D01*
X39677D01*
Y241545D01*
X45220D01*
Y241545D01*
X45720Y241752D01*
X47181Y240291D01*
X46990Y239829D01*
X46960D01*
Y233892D01*
X47693D01*
Y232705D01*
X43408Y228421D01*
X42966Y227759D01*
X42811Y226979D01*
Y220919D01*
X41377D01*
X41225Y221419D01*
X41565Y221646D01*
X42090Y222433D01*
X42275Y223360D01*
X42090Y224288D01*
X41565Y225075D01*
X40778Y225600D01*
X39850Y225785D01*
X38922Y225600D01*
X38622Y225400D01*
X35195D01*
X29161Y231434D01*
X29090Y231788D01*
X28889Y232089D01*
Y233734D01*
X31267D01*
Y233821D01*
X42433D01*
X42788Y233892D01*
X46204D01*
Y239829D01*
X40661D01*
Y237900D01*
X39141D01*
Y242624D01*
X37622D01*
Y251030D01*
X38551D01*
Y256573D01*
X32614D01*
Y251030D01*
X33543D01*
Y240837D01*
X33559Y240757D01*
Y240624D01*
X33598Y240427D01*
Y237900D01*
X31267D01*
Y238884D01*
X27793D01*
X25962Y240715D01*
X26169Y241215D01*
X31267D01*
Y246364D01*
X30535D01*
Y251404D01*
X30380Y252184D01*
X30248Y252381D01*
Y255982D01*
X23917D01*
Y249652D01*
X26456D01*
Y246364D01*
X25724D01*
Y241660D01*
X25224Y241453D01*
X22051Y244626D01*
Y247482D01*
X16114D01*
Y241939D01*
X18970D01*
X25166Y235743D01*
X24966Y235444D01*
X24811Y234664D01*
Y232089D01*
X24610Y231788D01*
X24426Y230860D01*
X24610Y229933D01*
X25136Y229146D01*
X25922Y228620D01*
X26277Y228550D01*
X32908Y221919D01*
X33570Y221476D01*
X33858Y221419D01*
X33808Y220919D01*
X26720D01*
X25940Y220764D01*
X25278Y220322D01*
X23408Y218452D01*
X22966Y217790D01*
X22811Y217010D01*
Y216112D01*
X20346D01*
Y208128D01*
X22811D01*
Y207205D01*
X11408Y195802D01*
X10966Y195141D01*
X10811Y194360D01*
Y132242D01*
X10966Y131462D01*
X11408Y130800D01*
X15646Y126562D01*
X15542Y126310D01*
X15386Y125124D01*
X15542Y123938D01*
X16000Y122833D01*
X16728Y121884D01*
X17677Y121156D01*
X18782Y120698D01*
X19968Y120542D01*
X21154Y120698D01*
X22260Y121156D01*
X23209Y121884D01*
X23937Y122833D01*
X24395Y123938D01*
X24551Y125124D01*
X24395Y126310D01*
X23937Y127415D01*
X23209Y128365D01*
X22260Y129093D01*
X21154Y129551D01*
X19968Y129707D01*
X18782Y129551D01*
X18530Y129446D01*
X14889Y133087D01*
Y193516D01*
X26292Y204919D01*
X26734Y205580D01*
X26889Y206360D01*
Y208128D01*
X29354D01*
Y216112D01*
X27835D01*
X27587Y216612D01*
X27761Y216841D01*
X42811D01*
Y216112D01*
X40346D01*
Y208128D01*
X49354D01*
Y216112D01*
X46889D01*
Y218880D01*
Y222363D01*
X47390Y222515D01*
X47636Y222146D01*
X48422Y221620D01*
X49350Y221436D01*
X50278Y221620D01*
X50578Y221821D01*
X60122D01*
X60422Y221620D01*
X61350Y221436D01*
X62278Y221620D01*
X63064Y222146D01*
X63311Y222515D01*
X63811Y222363D01*
Y176705D01*
X39908Y152802D01*
X39466Y152141D01*
X39311Y151360D01*
Y133506D01*
X39466Y132726D01*
X39908Y132064D01*
X45410Y126562D01*
X45306Y126310D01*
X45149Y125124D01*
X45306Y123938D01*
X45763Y122833D01*
X46492Y121884D01*
X47441Y121156D01*
X48546Y120698D01*
X49732Y120542D01*
X50918Y120698D01*
X51170Y120802D01*
X56311Y115661D01*
Y34360D01*
X56466Y33580D01*
X56908Y32919D01*
X72897Y16929D01*
Y11908D01*
X80803D01*
Y18371D01*
X81265Y18562D01*
X82992Y16835D01*
X82863Y15860D01*
X82999Y14829D01*
X83397Y13867D01*
X84031Y13041D01*
X84857Y12408D01*
X85818Y12009D01*
X86850Y11874D01*
X87882Y12009D01*
X88844Y12408D01*
X89669Y13041D01*
X90268Y13821D01*
X119356D01*
Y11908D01*
X127262D01*
Y18370D01*
X127724Y18562D01*
X129450Y16835D01*
X129322Y15860D01*
X129458Y14828D01*
X129856Y13867D01*
X130490Y13041D01*
X131316Y12408D01*
X132277Y12009D01*
X133309Y11873D01*
X134341Y12009D01*
X135302Y12408D01*
X136128Y13041D01*
X136726Y13821D01*
X165815D01*
Y12090D01*
X173720D01*
Y19996D01*
X172889D01*
Y116406D01*
X172889Y116406D01*
X172734Y117186D01*
X172292Y117848D01*
X166454Y123686D01*
X166558Y123938D01*
X166714Y125124D01*
X166558Y126310D01*
X166101Y127415D01*
X165372Y128365D01*
X164423Y129093D01*
X163318Y129551D01*
X162132Y129707D01*
X160946Y129551D01*
X159841Y129093D01*
X158892Y128365D01*
X158163Y127415D01*
X157706Y126310D01*
X157549Y125124D01*
X157706Y123938D01*
X158163Y122833D01*
X158892Y121884D01*
X159841Y121156D01*
X160946Y120698D01*
X162132Y120542D01*
X163318Y120698D01*
X163570Y120802D01*
X168811Y115561D01*
Y19996D01*
X165815D01*
Y17899D01*
X136726D01*
X136128Y18679D01*
X135302Y19313D01*
X134341Y19711D01*
X133309Y19847D01*
X132334Y19719D01*
X122889Y29164D01*
Y130049D01*
X122734Y130829D01*
X122292Y131491D01*
X110254Y143529D01*
X110358Y143781D01*
X110514Y144967D01*
X110358Y146153D01*
X109900Y147258D01*
X109172Y148207D01*
X108223Y148935D01*
X107118Y149393D01*
X105932Y149549D01*
X104746Y149393D01*
X103641Y148935D01*
X102692Y148207D01*
X101963Y147258D01*
X101506Y146153D01*
X101349Y144967D01*
X101506Y143781D01*
X101963Y142675D01*
X102692Y141727D01*
X103641Y140998D01*
X104746Y140540D01*
X105932Y140384D01*
X107118Y140540D01*
X107370Y140645D01*
X118811Y129204D01*
Y28319D01*
X118966Y27539D01*
X119408Y26877D01*
X126010Y20275D01*
X125819Y19813D01*
X122240D01*
X116889Y25164D01*
Y116206D01*
X116734Y116986D01*
X116292Y117648D01*
X110254Y123686D01*
X110358Y123938D01*
X110514Y125124D01*
X110358Y126310D01*
X109900Y127415D01*
X109172Y128365D01*
X108223Y129093D01*
X107118Y129551D01*
X105932Y129707D01*
X104746Y129551D01*
X103641Y129093D01*
X102692Y128365D01*
X101963Y127415D01*
X101506Y126310D01*
X101349Y125124D01*
X101506Y123938D01*
X101963Y122833D01*
X102692Y121884D01*
X103641Y121156D01*
X104746Y120698D01*
X105932Y120542D01*
X107118Y120698D01*
X107370Y120802D01*
X112811Y115361D01*
Y24319D01*
X112966Y23539D01*
X113408Y22877D01*
X117924Y18361D01*
X117733Y17899D01*
X90268D01*
X89669Y18679D01*
X88844Y19313D01*
X87882Y19711D01*
X86850Y19847D01*
X85875Y19719D01*
X65389Y40205D01*
Y131349D01*
X65234Y132129D01*
X64792Y132791D01*
X54054Y143529D01*
X54158Y143781D01*
X54314Y144967D01*
X54158Y146153D01*
X53701Y147258D01*
X52972Y148207D01*
X52023Y148935D01*
X50918Y149393D01*
X49732Y149549D01*
X48546Y149393D01*
X47441Y148935D01*
X46492Y148207D01*
X45763Y147258D01*
X45306Y146153D01*
X45149Y144967D01*
X45306Y143781D01*
X45763Y142675D01*
X46492Y141727D01*
X47441Y140998D01*
X48546Y140540D01*
X49732Y140384D01*
X50918Y140540D01*
X51170Y140645D01*
X61311Y130504D01*
Y39360D01*
X61466Y38580D01*
X61908Y37918D01*
X79552Y20275D01*
X79360Y19813D01*
X75781D01*
X60389Y35205D01*
Y116506D01*
X60389Y116506D01*
X60234Y117286D01*
X59792Y117948D01*
X59792Y117948D01*
X54054Y123686D01*
X54158Y123938D01*
X54314Y125124D01*
X54158Y126310D01*
X53701Y127415D01*
X52972Y128365D01*
X52023Y129093D01*
X50918Y129551D01*
X49732Y129707D01*
X48546Y129551D01*
X48294Y129446D01*
X43389Y134351D01*
Y150516D01*
X66349Y173475D01*
X66811Y173284D01*
Y132442D01*
X66966Y131662D01*
X67408Y131000D01*
X71846Y126562D01*
X71742Y126310D01*
X71586Y125124D01*
X71742Y123938D01*
X72200Y122833D01*
X72928Y121884D01*
X73877Y121156D01*
X74982Y120698D01*
X76168Y120542D01*
X77354Y120698D01*
X78460Y121156D01*
X79409Y121884D01*
X80137Y122833D01*
X80595Y123938D01*
X80751Y125124D01*
X80595Y126310D01*
X80137Y127415D01*
X79409Y128365D01*
X78460Y129093D01*
X77354Y129551D01*
X76168Y129707D01*
X74982Y129551D01*
X74730Y129446D01*
X70889Y133287D01*
Y192516D01*
X82492Y204119D01*
X82934Y204780D01*
X83090Y205561D01*
Y208128D01*
X85554D01*
Y216112D01*
X84074D01*
X83824Y216612D01*
X83981Y216821D01*
X99011D01*
Y216112D01*
X96546D01*
Y208128D01*
X105554D01*
Y216112D01*
X103089D01*
Y218860D01*
Y226134D01*
X107374Y230418D01*
X107374Y230418D01*
X107816Y231080D01*
X107971Y231860D01*
Y233892D01*
X108704D01*
Y239829D01*
X107971D01*
Y240821D01*
X107816Y241601D01*
X107374Y242263D01*
X104813Y244824D01*
X105004Y245286D01*
X109294D01*
Y250435D01*
X108562D01*
Y256835D01*
X122850D01*
X123633Y256938D01*
X124363Y257240D01*
X124990Y257721D01*
X125490Y258221D01*
X125971Y258847D01*
X126273Y259577D01*
X126376Y260360D01*
X126273Y261144D01*
X125971Y261873D01*
X125490Y262500D01*
X124863Y262981D01*
X124133Y263283D01*
X123350Y263386D01*
X122567Y263283D01*
X121837Y262981D01*
X121714Y262886D01*
X105932D01*
X105496Y262829D01*
X103160D01*
Y261008D01*
X103009Y260644D01*
X102906Y259860D01*
X103009Y259077D01*
X103160Y258712D01*
Y256892D01*
X104483D01*
Y250435D01*
X103751D01*
Y246334D01*
X103251Y246036D01*
X102633Y246159D01*
X101420D01*
Y246695D01*
X95877D01*
Y241545D01*
X101420D01*
Y241762D01*
X101920Y241949D01*
X103540Y240329D01*
X103333Y239829D01*
X103160D01*
Y233892D01*
X103893D01*
Y232705D01*
X99608Y228421D01*
X99166Y227759D01*
X99011Y226979D01*
Y220900D01*
X82901D01*
X82120Y220744D01*
X81459Y220302D01*
X79608Y218452D01*
X79166Y217790D01*
X79011Y217010D01*
Y216112D01*
X76546D01*
Y208128D01*
X79011D01*
Y206405D01*
X68351Y195745D01*
X67889Y195937D01*
Y278761D01*
X83103Y293975D01*
X83545Y294637D01*
X83700Y295417D01*
Y369972D01*
X84101Y370138D01*
X85112Y370914D01*
X85888Y371924D01*
X86375Y373101D01*
X86541Y374364D01*
X86375Y375627D01*
X85888Y376805D01*
X85112Y377815D01*
X84101Y378591D01*
X82924Y379078D01*
X81661Y379245D01*
D02*
G37*
G36*
X349042Y236153D02*
X347850D01*
Y234961D01*
X348565Y235438D01*
X349042Y236153D01*
D02*
G37*
G36*
X389472Y221360D02*
X387307D01*
Y219195D01*
X389472D01*
Y221360D01*
D02*
G37*
G36*
X385307D02*
X382423D01*
X381759Y220696D01*
X381317Y220034D01*
X381161Y219254D01*
Y216829D01*
X380429D01*
Y214860D01*
X383201D01*
X385972D01*
Y216829D01*
X385240D01*
Y218409D01*
X385307Y218477D01*
Y221360D01*
D02*
G37*
G36*
X406350Y229400D02*
X338891D01*
X338110Y229244D01*
X337449Y228802D01*
X326167Y217521D01*
X325625Y217686D01*
X325534Y218141D01*
X325092Y218802D01*
X323592Y220302D01*
X322931Y220744D01*
X322150Y220900D01*
X305150D01*
X304370Y220744D01*
X303708Y220302D01*
X302208Y218802D01*
X301766Y218141D01*
X301611Y217360D01*
Y216112D01*
X299146D01*
Y208128D01*
X301611D01*
Y206805D01*
X290408Y195602D01*
X289966Y194941D01*
X289811Y194160D01*
Y132042D01*
X289966Y131262D01*
X290408Y130601D01*
X294446Y126562D01*
X294342Y126310D01*
X294186Y125124D01*
X294342Y123938D01*
X294800Y122833D01*
X295528Y121884D01*
X296477Y121156D01*
X297582Y120698D01*
X298768Y120542D01*
X299954Y120698D01*
X301060Y121156D01*
X302009Y121884D01*
X302737Y122833D01*
X303195Y123938D01*
X303351Y125124D01*
X303195Y126310D01*
X302737Y127415D01*
X302009Y128365D01*
X301060Y129093D01*
X299954Y129551D01*
X298768Y129707D01*
X297582Y129551D01*
X297330Y129446D01*
X293889Y132887D01*
Y143567D01*
X294389Y143667D01*
X294800Y142675D01*
X295528Y141727D01*
X296477Y140998D01*
X297582Y140540D01*
X298768Y140384D01*
X299954Y140540D01*
X300206Y140645D01*
X311611Y129240D01*
Y60636D01*
X311766Y59856D01*
X312208Y59194D01*
X324210Y47192D01*
X324106Y46940D01*
X323949Y45754D01*
X324106Y44568D01*
X324563Y43463D01*
X325292Y42514D01*
X326241Y41786D01*
X327346Y41328D01*
X328532Y41172D01*
X329718Y41328D01*
X330823Y41786D01*
X331772Y42514D01*
X332501Y43463D01*
X332958Y44568D01*
X333114Y45754D01*
X332958Y46940D01*
X332501Y48045D01*
X331772Y48994D01*
X330823Y49723D01*
X329718Y50181D01*
X328532Y50337D01*
X327346Y50181D01*
X327094Y50076D01*
X315689Y61481D01*
Y130085D01*
X315534Y130865D01*
X315092Y131527D01*
X315092Y131527D01*
X303090Y143529D01*
X303195Y143781D01*
X303351Y144967D01*
X303195Y146153D01*
X302737Y147258D01*
X302009Y148207D01*
X301060Y148935D01*
X299954Y149393D01*
X298768Y149549D01*
X298389Y150004D01*
Y187716D01*
X314992Y204318D01*
X315365Y204567D01*
X315890Y205354D01*
X316075Y206282D01*
X315890Y207209D01*
X315689Y207510D01*
Y208128D01*
X318154D01*
Y216112D01*
X309146D01*
Y208128D01*
X311611D01*
Y207510D01*
X311410Y207209D01*
X311235Y206329D01*
X294908Y190002D01*
X294466Y189341D01*
X294389Y188954D01*
X293889Y189004D01*
Y193316D01*
X305092Y204519D01*
X305534Y205180D01*
X305690Y205961D01*
Y208128D01*
X308154D01*
Y216112D01*
X306275D01*
X306038Y216612D01*
X306209Y216821D01*
X321092D01*
X321263Y216612D01*
X321026Y216112D01*
X319146D01*
Y208128D01*
X328154D01*
Y213740D01*
X339735Y225321D01*
X383142D01*
Y223360D01*
X386307D01*
X389472D01*
Y225321D01*
X390228D01*
Y219195D01*
X393675D01*
X394311Y218559D01*
Y216589D01*
X394110Y216288D01*
X393926Y215360D01*
X394110Y214433D01*
X394636Y213646D01*
X395422Y213120D01*
X395434Y213118D01*
X395599Y212576D01*
X393002Y209978D01*
X392399D01*
X392039Y209907D01*
X391539Y210178D01*
Y210892D01*
X392271D01*
Y216829D01*
X386728D01*
Y210892D01*
X387460D01*
Y210241D01*
X386961Y209925D01*
X386695Y209978D01*
X386092D01*
X385679Y210392D01*
X385886Y210892D01*
X385972D01*
Y212860D01*
X383201D01*
X380429D01*
Y210892D01*
X380515D01*
X380722Y210392D01*
X378721Y208390D01*
X378157D01*
X377233Y209314D01*
X376571Y209756D01*
X375791Y209911D01*
X364862D01*
X364082Y209756D01*
X363420Y209314D01*
X359850Y205744D01*
Y201360D01*
Y197709D01*
X360744Y198080D01*
X361529Y198682D01*
X362131Y199466D01*
X362509Y200380D01*
X362598Y201053D01*
X363102D01*
X363191Y200380D01*
X363569Y199466D01*
X364171Y198682D01*
X364956Y198080D01*
X365870Y197701D01*
X366850Y197572D01*
X367831Y197701D01*
X368744Y198080D01*
X369529Y198682D01*
X370131Y199466D01*
X370509Y200380D01*
X370638Y201360D01*
X370509Y202341D01*
X370131Y203255D01*
X369529Y204039D01*
X368744Y204641D01*
X367831Y205020D01*
X366850Y205149D01*
X365870Y205020D01*
X365410Y204829D01*
X365127Y205253D01*
X365707Y205833D01*
X374946D01*
X375382Y205398D01*
Y202738D01*
X377350D01*
Y205510D01*
X379350D01*
Y202738D01*
X381319D01*
Y205220D01*
X383201Y207102D01*
X383701Y206602D01*
Y206000D01*
X383793Y205534D01*
X384057Y205139D01*
X384453Y204874D01*
X384807Y204804D01*
Y207380D01*
X386807D01*
Y204804D01*
X386961Y204835D01*
X387460Y204519D01*
Y200202D01*
X386961Y199886D01*
X386695Y199939D01*
X384919D01*
X384453Y199846D01*
X384057Y199582D01*
X383922Y199380D01*
X381319D01*
Y201982D01*
X375382D01*
Y196439D01*
X376311D01*
Y188467D01*
X375750D01*
X375284Y188374D01*
X374888Y188110D01*
X374624Y187714D01*
X374532Y187248D01*
Y185473D01*
X374624Y185006D01*
X374888Y184611D01*
X375284Y184347D01*
X375750Y184254D01*
X380281D01*
X380748Y184347D01*
X381143Y184611D01*
X381407Y185006D01*
X381500Y185473D01*
Y187248D01*
X381407Y187714D01*
X381143Y188110D01*
X380748Y188374D01*
X380389Y188445D01*
Y195302D01*
X383922D01*
X384057Y195099D01*
X384453Y194835D01*
X384919Y194743D01*
X386695D01*
X387008Y194805D01*
X387508Y194512D01*
Y188205D01*
X382702Y183400D01*
X380618D01*
X380281Y183466D01*
X375750D01*
X375284Y183374D01*
X374888Y183110D01*
X374624Y182714D01*
X374532Y182248D01*
Y180473D01*
X374624Y180006D01*
X374888Y179611D01*
X375284Y179347D01*
X375750Y179254D01*
X380281D01*
X380618Y179321D01*
X383547D01*
X384327Y179476D01*
X384989Y179919D01*
X390748Y185678D01*
X391248Y185470D01*
Y161703D01*
X390748Y161496D01*
X384442Y167802D01*
X383780Y168244D01*
X383000Y168400D01*
X380618D01*
X380281Y168466D01*
X375750D01*
X375284Y168374D01*
X374888Y168110D01*
X374624Y167714D01*
X374532Y167248D01*
Y165473D01*
X374624Y165006D01*
X374888Y164611D01*
X375284Y164347D01*
X375750Y164254D01*
X380281D01*
X380618Y164321D01*
X382155D01*
X387460Y159016D01*
Y153711D01*
X387616Y152930D01*
X388058Y152269D01*
X397811Y142516D01*
Y133356D01*
X397016D01*
Y134482D01*
X390685D01*
Y128152D01*
X397016D01*
Y129278D01*
X397811D01*
Y115211D01*
X397966Y114430D01*
X398408Y113769D01*
X407661Y104516D01*
Y65555D01*
X401825Y59719D01*
X400850Y59847D01*
X399818Y59711D01*
X398857Y59313D01*
X398031Y58679D01*
X397397Y57854D01*
X396999Y56892D01*
X396863Y55860D01*
X396999Y54829D01*
X397397Y53867D01*
X398031Y53041D01*
X398857Y52408D01*
X399818Y52009D01*
X400850Y51873D01*
X401882Y52009D01*
X402844Y52408D01*
X403669Y53041D01*
X404303Y53867D01*
X404701Y54829D01*
X404837Y55860D01*
X404709Y56835D01*
X411142Y63269D01*
X411142Y63269D01*
X411585Y63930D01*
X411740Y64711D01*
X411740Y64711D01*
Y105360D01*
X411585Y106141D01*
X411142Y106802D01*
X401889Y116055D01*
Y130860D01*
Y143360D01*
X401889Y143360D01*
X401734Y144141D01*
X401292Y144802D01*
X391539Y154555D01*
Y156518D01*
X392039Y156725D01*
X393763Y155001D01*
X394424Y154559D01*
X395204Y154404D01*
X395868D01*
X395953Y154347D01*
X396419Y154254D01*
X400950D01*
X401417Y154347D01*
X401812Y154611D01*
X402076Y155006D01*
X402169Y155473D01*
Y157248D01*
X402076Y157714D01*
X401812Y158110D01*
X401417Y158374D01*
X400950Y158466D01*
X398681D01*
X398602Y158482D01*
X396049D01*
X395629Y158902D01*
X395646Y158951D01*
X395953Y159347D01*
X396419Y159254D01*
X400950D01*
X401287Y159321D01*
X407681D01*
X408171Y158682D01*
X408956Y158080D01*
X409870Y157701D01*
X410850Y157572D01*
X411831Y157701D01*
X412744Y158080D01*
X413529Y158682D01*
X414020Y159321D01*
X415681D01*
X416171Y158682D01*
X416956Y158080D01*
X417870Y157701D01*
X418850Y157572D01*
X419831Y157701D01*
X420744Y158080D01*
X421529Y158682D01*
X422131Y159466D01*
X422509Y160380D01*
X422638Y161360D01*
X422509Y162341D01*
X422131Y163254D01*
X421529Y164039D01*
X420744Y164641D01*
X419831Y165020D01*
X418850Y165149D01*
X417870Y165020D01*
X416956Y164641D01*
X416171Y164039D01*
X415681Y163400D01*
X414020D01*
X413529Y164039D01*
X412744Y164641D01*
X411831Y165020D01*
X410850Y165149D01*
X409870Y165020D01*
X408956Y164641D01*
X408171Y164039D01*
X407681Y163400D01*
X401287D01*
X400950Y163467D01*
X396419D01*
X395953Y163374D01*
X395826Y163289D01*
X395326Y163557D01*
Y164164D01*
X395826Y164432D01*
X395953Y164347D01*
X396419Y164254D01*
X400950D01*
X401417Y164347D01*
X401812Y164611D01*
X402076Y165006D01*
X402169Y165473D01*
Y167248D01*
X402076Y167714D01*
X401812Y168110D01*
X401417Y168374D01*
X400950Y168466D01*
X400724D01*
Y169254D01*
X400950D01*
X401417Y169347D01*
X401812Y169611D01*
X402076Y170006D01*
X402169Y170473D01*
Y172248D01*
X402076Y172714D01*
X401812Y173110D01*
X401417Y173374D01*
X400950Y173467D01*
X400724D01*
Y174254D01*
X400950D01*
X401287Y174321D01*
X407142D01*
Y173195D01*
X408268D01*
Y170524D01*
X408110Y170288D01*
X407926Y169360D01*
X408110Y168433D01*
X408636Y167646D01*
X409422Y167120D01*
X410350Y166936D01*
X411278Y167120D01*
X412065Y167646D01*
X412590Y168433D01*
X412775Y169360D01*
X412590Y170288D01*
X412346Y170653D01*
Y173195D01*
X413472D01*
Y179526D01*
X407142D01*
Y178400D01*
X401287D01*
X400950Y178466D01*
X396419D01*
X395953Y178374D01*
X395826Y178289D01*
X395326Y178557D01*
Y179164D01*
X395826Y179431D01*
X395953Y179347D01*
X396419Y179254D01*
X400950D01*
X401417Y179347D01*
X401812Y179611D01*
X402076Y180006D01*
X402169Y180473D01*
Y182248D01*
X402076Y182714D01*
X401812Y183110D01*
X401417Y183374D01*
X400950Y183466D01*
X396419D01*
X395953Y183374D01*
X395826Y183289D01*
X395326Y183556D01*
Y184164D01*
X395826Y184432D01*
X395953Y184347D01*
X396419Y184254D01*
X400950D01*
X401287Y184321D01*
X406929D01*
Y183392D01*
X412472D01*
Y186935D01*
X412511Y187132D01*
Y187994D01*
X412728Y188162D01*
X413228Y187917D01*
Y187360D01*
X415000D01*
Y189329D01*
X414356D01*
X414164Y189791D01*
X419292Y194919D01*
X419734Y195580D01*
X419889Y196360D01*
Y215860D01*
X419889Y215860D01*
X419734Y216641D01*
X419292Y217302D01*
X407792Y228802D01*
X407130Y229244D01*
X406350Y229400D01*
D02*
G37*
G36*
X357850Y205012D02*
X356956Y204641D01*
X356171Y204039D01*
X355569Y203255D01*
X355199Y202360D01*
X357850D01*
Y205012D01*
D02*
G37*
G36*
X418771Y189329D02*
X417000D01*
Y187360D01*
X418771D01*
Y189329D01*
D02*
G37*
G36*
X386850Y178552D02*
X386622Y178400D01*
X380618D01*
X380281Y178466D01*
X379015D01*
Y176360D01*
Y174254D01*
X380281D01*
X380618Y174321D01*
X386622D01*
X386850Y174169D01*
Y176360D01*
Y178552D01*
D02*
G37*
G36*
X419315Y185360D02*
X416000D01*
X413228D01*
Y183392D01*
X415354D01*
Y179526D01*
X414228D01*
Y177360D01*
X417393D01*
X420559D01*
Y179526D01*
X419433D01*
Y184770D01*
X419315Y185360D01*
D02*
G37*
G36*
X388850Y178552D02*
Y177360D01*
X390042D01*
X389564Y178075D01*
X388850Y178552D01*
D02*
G37*
G36*
X274850Y224785D02*
X273922Y224600D01*
X273136Y224075D01*
X272610Y223288D01*
X272426Y222360D01*
X272610Y221433D01*
X273136Y220646D01*
X273922Y220120D01*
X274277Y220050D01*
X280311Y214016D01*
Y201089D01*
X280110Y200788D01*
X279926Y199860D01*
X280110Y198933D01*
X280311Y198632D01*
Y178589D01*
X280110Y178288D01*
X279926Y177360D01*
X280110Y176433D01*
X280636Y175646D01*
X281422Y175120D01*
X282350Y174936D01*
X283278Y175120D01*
X284065Y175646D01*
X284590Y176433D01*
X284775Y177360D01*
X284590Y178288D01*
X284389Y178589D01*
Y198632D01*
X284590Y198933D01*
X284775Y199860D01*
X284590Y200788D01*
X284389Y201089D01*
Y214860D01*
X284234Y215641D01*
X283792Y216302D01*
X277161Y222934D01*
X277090Y223288D01*
X276565Y224075D01*
X275778Y224600D01*
X274850Y224785D01*
D02*
G37*
G36*
X219850Y225785D02*
X218922Y225600D01*
X218136Y225075D01*
X217610Y224288D01*
X217426Y223360D01*
X217610Y222433D01*
X218136Y221646D01*
X218922Y221120D01*
X219277Y221050D01*
X223811Y216516D01*
Y201089D01*
X223610Y200788D01*
X223426Y199860D01*
X223610Y198933D01*
X223811Y198632D01*
Y178589D01*
X223610Y178288D01*
X223426Y177360D01*
X223610Y176433D01*
X224136Y175646D01*
X224922Y175120D01*
X225850Y174936D01*
X226778Y175120D01*
X227565Y175646D01*
X228090Y176433D01*
X228275Y177360D01*
X228090Y178288D01*
X227889Y178589D01*
Y198632D01*
X228090Y198933D01*
X228275Y199860D01*
X228090Y200788D01*
X227889Y201089D01*
Y217360D01*
X227734Y218141D01*
X227292Y218802D01*
X222161Y223934D01*
X222090Y224288D01*
X221565Y225075D01*
X220778Y225600D01*
X219850Y225785D01*
D02*
G37*
G36*
X163850Y224785D02*
X162922Y224600D01*
X162136Y224075D01*
X161610Y223288D01*
X161426Y222360D01*
X161610Y221433D01*
X162136Y220646D01*
X162922Y220120D01*
X163277Y220050D01*
X167811Y215516D01*
Y201089D01*
X167610Y200788D01*
X167426Y199860D01*
X167610Y198933D01*
X167811Y198632D01*
Y178589D01*
X167610Y178288D01*
X167426Y177360D01*
X167610Y176433D01*
X168136Y175646D01*
X168922Y175120D01*
X169850Y174936D01*
X170778Y175120D01*
X171564Y175646D01*
X172090Y176433D01*
X172275Y177360D01*
X172090Y178288D01*
X171889Y178589D01*
Y198632D01*
X172090Y198933D01*
X172275Y199860D01*
X172090Y200788D01*
X171889Y201089D01*
Y216360D01*
X171734Y217141D01*
X171292Y217802D01*
X166161Y222934D01*
X166090Y223288D01*
X165565Y224075D01*
X164778Y224600D01*
X163850Y224785D01*
D02*
G37*
G36*
X357850Y200360D02*
X354966D01*
X350408Y195802D01*
X349966Y195141D01*
X349811Y194360D01*
Y176360D01*
Y138360D01*
X349966Y137580D01*
X350408Y136918D01*
X354966Y132360D01*
X357850D01*
Y135244D01*
X353889Y139205D01*
Y174321D01*
X355758D01*
X356004Y173821D01*
X355569Y173255D01*
X355191Y172341D01*
X355062Y171360D01*
X355191Y170380D01*
X355569Y169466D01*
X356171Y168682D01*
X356956Y168080D01*
X357870Y167701D01*
X358850Y167572D01*
X359831Y167701D01*
X360744Y168080D01*
X361529Y168682D01*
X362020Y169321D01*
X363681D01*
X364171Y168682D01*
X364956Y168080D01*
X365870Y167701D01*
X366850Y167572D01*
X367831Y167701D01*
X368744Y168080D01*
X369529Y168682D01*
X370020Y169321D01*
X375413D01*
X375750Y169254D01*
X380281D01*
X380748Y169347D01*
X381143Y169611D01*
X381407Y170006D01*
X381500Y170473D01*
Y172248D01*
X381407Y172714D01*
X381143Y173110D01*
X380748Y173374D01*
X380281Y173467D01*
X375750D01*
X375413Y173400D01*
X370020D01*
X369696Y173821D01*
X369943Y174321D01*
X375413D01*
X375750Y174254D01*
X377015D01*
Y176360D01*
Y178466D01*
X375750D01*
X375413Y178400D01*
X353889D01*
Y193516D01*
X357850Y197477D01*
Y200360D01*
D02*
G37*
G36*
X390042Y175360D02*
X388850D01*
Y174169D01*
X389564Y174646D01*
X390042Y175360D01*
D02*
G37*
G36*
X416394Y175360D02*
X414228D01*
Y173195D01*
X416394D01*
Y175360D01*
D02*
G37*
G36*
X328154Y178593D02*
X319146D01*
Y170608D01*
X328154D01*
Y178593D01*
D02*
G37*
G36*
X303650Y186285D02*
X302723Y186100D01*
X301936Y185575D01*
X301410Y184788D01*
X301226Y183860D01*
X301410Y182933D01*
X301611Y182632D01*
Y178593D01*
X299146D01*
Y170608D01*
X308154D01*
Y178593D01*
X305690D01*
Y182632D01*
X305890Y182933D01*
X306075Y183860D01*
X305890Y184788D01*
X305365Y185575D01*
X304578Y186100D01*
X303650Y186285D01*
D02*
G37*
G36*
X273354Y178593D02*
X264346D01*
Y170608D01*
X273354D01*
Y178593D01*
D02*
G37*
G36*
X217954D02*
X208946D01*
Y170608D01*
X217954D01*
Y178593D01*
D02*
G37*
G36*
X193450Y186285D02*
X192523Y186100D01*
X191736Y185575D01*
X191210Y184788D01*
X191026Y183860D01*
X191210Y182933D01*
X191411Y182632D01*
Y178593D01*
X188946D01*
Y170608D01*
X197954D01*
Y178593D01*
X195490D01*
Y182632D01*
X195690Y182933D01*
X195875Y183860D01*
X195690Y184788D01*
X195165Y185575D01*
X194378Y186100D01*
X193450Y186285D01*
D02*
G37*
G36*
X161754Y178593D02*
X152746D01*
Y170608D01*
X161754D01*
Y178593D01*
D02*
G37*
G36*
X105554D02*
X96546D01*
Y170608D01*
X105554D01*
Y178593D01*
D02*
G37*
G36*
X81350Y186285D02*
X80422Y186100D01*
X79636Y185575D01*
X79110Y184788D01*
X78926Y183860D01*
X79110Y182933D01*
X79311Y182632D01*
Y178593D01*
X76546D01*
Y170608D01*
X85554D01*
Y178593D01*
X83389D01*
Y182632D01*
X83590Y182933D01*
X83775Y183860D01*
X83590Y184788D01*
X83065Y185575D01*
X82278Y186100D01*
X81350Y186285D01*
D02*
G37*
G36*
X49354Y178593D02*
X40346D01*
Y170608D01*
X49354D01*
Y178593D01*
D02*
G37*
G36*
X417350Y167404D02*
X416158D01*
X416636Y166689D01*
X417350Y166212D01*
Y167404D01*
D02*
G37*
G36*
X318154Y178593D02*
X309146D01*
Y170608D01*
X311611D01*
Y169290D01*
X311610Y169288D01*
X311426Y168360D01*
X311610Y167433D01*
X312136Y166646D01*
X312922Y166120D01*
X313850Y165936D01*
X314778Y166120D01*
X315564Y166646D01*
X316090Y167433D01*
X316275Y168360D01*
X316090Y169288D01*
X315689Y169888D01*
Y170608D01*
X318154D01*
Y178593D01*
D02*
G37*
G36*
X263354D02*
X254346D01*
Y170608D01*
X256811D01*
Y169089D01*
X256610Y168788D01*
X256426Y167860D01*
X256610Y166933D01*
X257136Y166146D01*
X257922Y165620D01*
X258850Y165436D01*
X259778Y165620D01*
X260564Y166146D01*
X261090Y166933D01*
X261275Y167860D01*
X261090Y168788D01*
X260890Y169088D01*
Y170608D01*
X263354D01*
Y178593D01*
D02*
G37*
G36*
X207954D02*
X198946D01*
Y170608D01*
X201411D01*
Y169239D01*
X201110Y168788D01*
X200926Y167860D01*
X201110Y166933D01*
X201636Y166146D01*
X202422Y165620D01*
X203350Y165436D01*
X204278Y165620D01*
X205065Y166146D01*
X205590Y166933D01*
X205775Y167860D01*
X205590Y168788D01*
X205489Y168939D01*
Y170608D01*
X207954D01*
Y178593D01*
D02*
G37*
G36*
X151754D02*
X142746D01*
Y170608D01*
X145211D01*
Y169089D01*
X145010Y168788D01*
X144826Y167860D01*
X145010Y166933D01*
X145536Y166146D01*
X146323Y165620D01*
X147250Y165436D01*
X148178Y165620D01*
X148965Y166146D01*
X149490Y166933D01*
X149675Y167860D01*
X149490Y168788D01*
X149290Y169089D01*
Y170608D01*
X151754D01*
Y178593D01*
D02*
G37*
G36*
X95554D02*
X86546D01*
Y170608D01*
X89011D01*
Y169089D01*
X88810Y168788D01*
X88626Y167860D01*
X88810Y166933D01*
X89336Y166146D01*
X90122Y165620D01*
X91050Y165436D01*
X91978Y165620D01*
X92765Y166146D01*
X93290Y166933D01*
X93475Y167860D01*
X93290Y168788D01*
X93089Y169089D01*
Y170608D01*
X95554D01*
Y178593D01*
D02*
G37*
G36*
X39354D02*
X30346D01*
Y170608D01*
X32811D01*
Y169089D01*
X32610Y168788D01*
X32426Y167860D01*
X32610Y166933D01*
X33136Y166146D01*
X33922Y165620D01*
X34850Y165436D01*
X35778Y165620D01*
X36564Y166146D01*
X37090Y166933D01*
X37275Y167860D01*
X37090Y168788D01*
X36889Y169088D01*
Y170608D01*
X39354D01*
Y178593D01*
D02*
G37*
G36*
X366850Y165149D02*
X365870Y165020D01*
X364956Y164641D01*
X364171Y164039D01*
X363681Y163400D01*
X362020D01*
X361529Y164039D01*
X360744Y164641D01*
X359831Y165020D01*
X358850Y165149D01*
X357870Y165020D01*
X356956Y164641D01*
X356171Y164039D01*
X355569Y163254D01*
X355191Y162341D01*
X355062Y161360D01*
X355191Y160380D01*
X355569Y159466D01*
X356171Y158682D01*
X356956Y158080D01*
X357870Y157701D01*
X358850Y157572D01*
X359831Y157701D01*
X360744Y158080D01*
X361529Y158682D01*
X362020Y159321D01*
X363681D01*
X364171Y158682D01*
X364956Y158080D01*
X365870Y157701D01*
X366850Y157572D01*
X367831Y157701D01*
X368744Y158080D01*
X369529Y158682D01*
X370020Y159321D01*
X375413D01*
X375750Y159254D01*
X380281D01*
X380748Y159347D01*
X381143Y159611D01*
X381407Y160006D01*
X381500Y160473D01*
Y162248D01*
X381407Y162714D01*
X381143Y163110D01*
X380748Y163374D01*
X380281Y163467D01*
X375750D01*
X375413Y163400D01*
X370020D01*
X369529Y164039D01*
X368744Y164641D01*
X367831Y165020D01*
X366850Y165149D01*
D02*
G37*
G36*
X351850Y220146D02*
X351067Y220043D01*
X350337Y219741D01*
X349710Y219260D01*
X349230Y218633D01*
X348927Y217904D01*
X348824Y217120D01*
Y211614D01*
Y207535D01*
X334652Y193362D01*
X334171Y192736D01*
X333869Y192006D01*
X333766Y191223D01*
Y175114D01*
X322538Y163886D01*
X313350D01*
X312567Y163783D01*
X311837Y163481D01*
X311210Y163000D01*
X310730Y162373D01*
X310427Y161644D01*
X310324Y160860D01*
X310427Y160077D01*
X310730Y159347D01*
X311210Y158721D01*
X311837Y158240D01*
X312567Y157938D01*
X313350Y157834D01*
X323350D01*
X323571Y157863D01*
X323791Y157834D01*
X324574Y157938D01*
X325304Y158240D01*
X325931Y158721D01*
X338931Y171721D01*
X338931Y171721D01*
X339412Y172347D01*
X339714Y173077D01*
X339817Y173860D01*
X339817Y173861D01*
Y189969D01*
X353990Y204142D01*
X354471Y204769D01*
X354773Y205498D01*
X354876Y206282D01*
Y211614D01*
Y217120D01*
X354773Y217904D01*
X354471Y218633D01*
X353990Y219260D01*
X353363Y219741D01*
X352633Y220043D01*
X351850Y220146D01*
D02*
G37*
G36*
X384350Y147285D02*
X383422Y147100D01*
X382636Y146575D01*
X382110Y145788D01*
X381926Y144860D01*
X382110Y143933D01*
X382311Y143632D01*
Y141569D01*
X381185D01*
Y135238D01*
X387515D01*
Y136364D01*
X390685D01*
Y135238D01*
X397016D01*
Y141569D01*
X390685D01*
Y140443D01*
X387515D01*
Y141569D01*
X386389D01*
Y143632D01*
X386590Y143933D01*
X386775Y144860D01*
X386590Y145788D01*
X386065Y146575D01*
X385278Y147100D01*
X384350Y147285D01*
D02*
G37*
G36*
X410850Y135149D02*
X409870Y135020D01*
X408956Y134641D01*
X408171Y134039D01*
X407681Y133400D01*
X406013D01*
X405778Y133557D01*
X404850Y133741D01*
X403922Y133557D01*
X403136Y133031D01*
X402610Y132245D01*
X402426Y131317D01*
X402610Y130389D01*
X403136Y129603D01*
X403922Y129077D01*
X404850Y128893D01*
X405778Y129077D01*
X406143Y129321D01*
X407681D01*
X408171Y128682D01*
X408956Y128080D01*
X409870Y127701D01*
X410850Y127572D01*
X411831Y127701D01*
X412744Y128080D01*
X413529Y128682D01*
X414131Y129466D01*
X414509Y130380D01*
X414598Y131053D01*
X415102D01*
X415191Y130380D01*
X415569Y129466D01*
X416171Y128682D01*
X416956Y128080D01*
X417850Y127709D01*
Y131360D01*
Y135011D01*
X416956Y134641D01*
X416171Y134039D01*
X415569Y133255D01*
X415191Y132341D01*
X415102Y131668D01*
X414598D01*
X414509Y132341D01*
X414131Y133255D01*
X413529Y134039D01*
X412744Y134641D01*
X411831Y135020D01*
X410850Y135149D01*
D02*
G37*
G36*
X421277Y175360D02*
X418394D01*
Y172476D01*
X418966Y171904D01*
X417777Y170714D01*
X417422Y170644D01*
X416636Y170118D01*
X416158Y169404D01*
X418350D01*
Y168404D01*
X419350D01*
Y166212D01*
X420064Y166689D01*
X420590Y167476D01*
X420661Y167830D01*
X421850Y169020D01*
X423311Y167559D01*
Y138705D01*
X419850Y135244D01*
Y132360D01*
X422734D01*
X426792Y136418D01*
X427234Y137080D01*
X427389Y137860D01*
Y168404D01*
X427234Y169184D01*
X426792Y169846D01*
X423292Y173346D01*
X421277Y175360D01*
D02*
G37*
G36*
X366850Y135149D02*
X365870Y135020D01*
X364956Y134641D01*
X364171Y134039D01*
X363569Y133255D01*
X363191Y132341D01*
X363102Y131668D01*
X362598D01*
X362509Y132341D01*
X362131Y133255D01*
X361529Y134039D01*
X360744Y134641D01*
X359850Y135011D01*
Y131360D01*
X358850D01*
Y130360D01*
X355199D01*
X355569Y129466D01*
X356171Y128682D01*
X356811Y128191D01*
Y103360D01*
Y38705D01*
X349350Y31244D01*
Y28360D01*
X352234D01*
X360292Y36419D01*
X360734Y37080D01*
X360889Y37860D01*
Y101321D01*
X374559D01*
X375049Y100682D01*
X375689Y100191D01*
Y96282D01*
X374882D01*
Y94510D01*
X377850D01*
X380819D01*
Y96282D01*
X379767D01*
Y100191D01*
X380407Y100682D01*
X381009Y101466D01*
X381379Y102360D01*
X377728D01*
Y103360D01*
X376728D01*
Y107011D01*
X375834Y106641D01*
X375049Y106039D01*
X374559Y105400D01*
X360889D01*
Y128191D01*
X361529Y128682D01*
X362131Y129466D01*
X362509Y130380D01*
X362598Y131053D01*
X363102D01*
X363191Y130380D01*
X363569Y129466D01*
X364171Y128682D01*
X364956Y128080D01*
X365870Y127701D01*
X366850Y127572D01*
X367831Y127701D01*
X368744Y128080D01*
X369529Y128682D01*
X370020Y129321D01*
X371622D01*
X371922Y129120D01*
X372850Y128936D01*
X373778Y129120D01*
X374565Y129646D01*
X375090Y130433D01*
X375275Y131360D01*
X375090Y132288D01*
X374565Y133075D01*
X373778Y133600D01*
X372850Y133785D01*
X371922Y133600D01*
X371622Y133400D01*
X370020D01*
X369529Y134039D01*
X368744Y134641D01*
X367831Y135020D01*
X366850Y135149D01*
D02*
G37*
G36*
X380281Y158466D02*
X375750D01*
X375284Y158374D01*
X374888Y158110D01*
X374624Y157714D01*
X374532Y157248D01*
Y155473D01*
X374624Y155006D01*
X374888Y154611D01*
X375284Y154347D01*
X375750Y154254D01*
X375976D01*
Y131360D01*
Y116195D01*
X376132Y115415D01*
X376574Y114753D01*
X396992Y94335D01*
X396863Y93360D01*
X396999Y92329D01*
X397397Y91367D01*
X398031Y90541D01*
X398857Y89908D01*
X399818Y89509D01*
X400850Y89373D01*
X401882Y89509D01*
X402844Y89908D01*
X403669Y90541D01*
X404303Y91367D01*
X404701Y92329D01*
X404837Y93360D01*
X404701Y94392D01*
X404303Y95354D01*
X403669Y96179D01*
X402844Y96813D01*
X401882Y97211D01*
X400850Y97347D01*
X399875Y97219D01*
X380055Y117040D01*
Y129278D01*
X381185D01*
Y128152D01*
X387515D01*
Y134482D01*
X383382D01*
X383185Y134522D01*
X383112D01*
X382915Y134482D01*
X381185D01*
Y133356D01*
X380055D01*
Y154254D01*
X380281D01*
X380748Y154347D01*
X381143Y154611D01*
X381407Y155006D01*
X381500Y155473D01*
Y157248D01*
X381407Y157714D01*
X381143Y158110D01*
X380748Y158374D01*
X380281Y158466D01*
D02*
G37*
G36*
X422501Y130360D02*
X419850D01*
Y127709D01*
X420744Y128080D01*
X421529Y128682D01*
X422131Y129466D01*
X422501Y130360D01*
D02*
G37*
G36*
X378728Y107011D02*
Y104360D01*
X381379D01*
X381009Y105254D01*
X380407Y106039D01*
X379622Y106641D01*
X378728Y107011D01*
D02*
G37*
G36*
X328532Y109864D02*
X327346Y109708D01*
X326241Y109250D01*
X325292Y108522D01*
X324563Y107573D01*
X324106Y106468D01*
X323949Y105282D01*
X324106Y104096D01*
X324563Y102990D01*
X325292Y102041D01*
X326241Y101313D01*
X327346Y100855D01*
X328532Y100699D01*
X329718Y100855D01*
X330823Y101313D01*
X331772Y102041D01*
X332501Y102990D01*
X332958Y104096D01*
X333114Y105282D01*
X332958Y106468D01*
X332501Y107573D01*
X331772Y108522D01*
X330823Y109250D01*
X329718Y109708D01*
X328532Y109864D01*
D02*
G37*
G36*
X298768D02*
X297582Y109708D01*
X296477Y109250D01*
X295528Y108522D01*
X294800Y107573D01*
X294342Y106468D01*
X294186Y105282D01*
X294342Y104096D01*
X294800Y102990D01*
X295528Y102041D01*
X296477Y101313D01*
X297582Y100855D01*
X298768Y100699D01*
X299954Y100855D01*
X301060Y101313D01*
X302009Y102041D01*
X302737Y102990D01*
X303195Y104096D01*
X303351Y105282D01*
X303195Y106468D01*
X302737Y107573D01*
X302009Y108522D01*
X301060Y109250D01*
X299954Y109708D01*
X298768Y109864D01*
D02*
G37*
G36*
X273732D02*
X272546Y109708D01*
X271441Y109250D01*
X270492Y108522D01*
X269763Y107573D01*
X269306Y106468D01*
X269149Y105282D01*
X269306Y104096D01*
X269763Y102990D01*
X270492Y102041D01*
X271441Y101313D01*
X272546Y100855D01*
X273732Y100699D01*
X274918Y100855D01*
X276023Y101313D01*
X276972Y102041D01*
X277700Y102990D01*
X278158Y104096D01*
X278314Y105282D01*
X278158Y106468D01*
X277700Y107573D01*
X276972Y108522D01*
X276023Y109250D01*
X274918Y109708D01*
X273732Y109864D01*
D02*
G37*
G36*
X243968D02*
X242782Y109708D01*
X241677Y109250D01*
X240728Y108522D01*
X240000Y107573D01*
X239542Y106468D01*
X239386Y105282D01*
X239542Y104096D01*
X240000Y102990D01*
X240728Y102041D01*
X241677Y101313D01*
X242782Y100855D01*
X243968Y100699D01*
X245154Y100855D01*
X246260Y101313D01*
X247209Y102041D01*
X247937Y102990D01*
X248395Y104096D01*
X248551Y105282D01*
X248395Y106468D01*
X247937Y107573D01*
X247209Y108522D01*
X246260Y109250D01*
X245154Y109708D01*
X243968Y109864D01*
D02*
G37*
G36*
X218332D02*
X217146Y109708D01*
X216041Y109250D01*
X215092Y108522D01*
X214363Y107573D01*
X213906Y106468D01*
X213749Y105282D01*
X213906Y104096D01*
X214363Y102990D01*
X215092Y102041D01*
X216041Y101313D01*
X217146Y100855D01*
X218332Y100699D01*
X219518Y100855D01*
X220623Y101313D01*
X221572Y102041D01*
X222301Y102990D01*
X222758Y104096D01*
X222914Y105282D01*
X222758Y106468D01*
X222301Y107573D01*
X221572Y108522D01*
X220623Y109250D01*
X219518Y109708D01*
X218332Y109864D01*
D02*
G37*
G36*
X188568D02*
X187382Y109708D01*
X186277Y109250D01*
X185328Y108522D01*
X184600Y107573D01*
X184142Y106468D01*
X183986Y105282D01*
X184142Y104096D01*
X184600Y102990D01*
X185328Y102041D01*
X186277Y101313D01*
X187382Y100855D01*
X188568Y100699D01*
X189754Y100855D01*
X190860Y101313D01*
X191809Y102041D01*
X192537Y102990D01*
X192995Y104096D01*
X193151Y105282D01*
X192995Y106468D01*
X192537Y107573D01*
X191809Y108522D01*
X190860Y109250D01*
X189754Y109708D01*
X188568Y109864D01*
D02*
G37*
G36*
X162132D02*
X160946Y109708D01*
X159841Y109250D01*
X158892Y108522D01*
X158163Y107573D01*
X157706Y106468D01*
X157549Y105282D01*
X157706Y104096D01*
X158163Y102990D01*
X158892Y102041D01*
X159841Y101313D01*
X160946Y100855D01*
X162132Y100699D01*
X163318Y100855D01*
X164423Y101313D01*
X165372Y102041D01*
X166101Y102990D01*
X166558Y104096D01*
X166714Y105282D01*
X166558Y106468D01*
X166101Y107573D01*
X165372Y108522D01*
X164423Y109250D01*
X163318Y109708D01*
X162132Y109864D01*
D02*
G37*
G36*
X132368D02*
X131182Y109708D01*
X130077Y109250D01*
X129128Y108522D01*
X128400Y107573D01*
X127942Y106468D01*
X127786Y105282D01*
X127942Y104096D01*
X128400Y102990D01*
X129128Y102041D01*
X130077Y101313D01*
X131182Y100855D01*
X132368Y100699D01*
X133554Y100855D01*
X134660Y101313D01*
X135609Y102041D01*
X136337Y102990D01*
X136795Y104096D01*
X136951Y105282D01*
X136795Y106468D01*
X136337Y107573D01*
X135609Y108522D01*
X134660Y109250D01*
X133554Y109708D01*
X132368Y109864D01*
D02*
G37*
G36*
X105932D02*
X104746Y109708D01*
X103641Y109250D01*
X102692Y108522D01*
X101963Y107573D01*
X101506Y106468D01*
X101349Y105282D01*
X101506Y104096D01*
X101963Y102990D01*
X102692Y102041D01*
X103641Y101313D01*
X104746Y100855D01*
X105932Y100699D01*
X107118Y100855D01*
X108223Y101313D01*
X109172Y102041D01*
X109900Y102990D01*
X110358Y104096D01*
X110514Y105282D01*
X110358Y106468D01*
X109900Y107573D01*
X109172Y108522D01*
X108223Y109250D01*
X107118Y109708D01*
X105932Y109864D01*
D02*
G37*
G36*
X76168D02*
X74982Y109708D01*
X73877Y109250D01*
X72928Y108522D01*
X72200Y107573D01*
X71742Y106468D01*
X71586Y105282D01*
X71742Y104096D01*
X72200Y102990D01*
X72928Y102041D01*
X73877Y101313D01*
X74982Y100855D01*
X76168Y100699D01*
X77354Y100855D01*
X78460Y101313D01*
X79409Y102041D01*
X80137Y102990D01*
X80595Y104096D01*
X80751Y105282D01*
X80595Y106468D01*
X80137Y107573D01*
X79409Y108522D01*
X78460Y109250D01*
X77354Y109708D01*
X76168Y109864D01*
D02*
G37*
G36*
X49732D02*
X48546Y109708D01*
X47441Y109250D01*
X46492Y108522D01*
X45763Y107573D01*
X45306Y106468D01*
X45149Y105282D01*
X45306Y104096D01*
X45763Y102990D01*
X46492Y102041D01*
X47441Y101313D01*
X48546Y100855D01*
X49732Y100699D01*
X50918Y100855D01*
X52023Y101313D01*
X52972Y102041D01*
X53701Y102990D01*
X54158Y104096D01*
X54314Y105282D01*
X54158Y106468D01*
X53701Y107573D01*
X52972Y108522D01*
X52023Y109250D01*
X50918Y109708D01*
X49732Y109864D01*
D02*
G37*
G36*
X19968D02*
X18782Y109708D01*
X17677Y109250D01*
X16728Y108522D01*
X16000Y107573D01*
X15542Y106468D01*
X15386Y105282D01*
X15542Y104096D01*
X16000Y102990D01*
X16728Y102041D01*
X17677Y101313D01*
X18782Y100855D01*
X19968Y100699D01*
X21154Y100855D01*
X22260Y101313D01*
X23209Y102041D01*
X23937Y102990D01*
X24395Y104096D01*
X24551Y105282D01*
X24395Y106468D01*
X23937Y107573D01*
X23209Y108522D01*
X22260Y109250D01*
X21154Y109708D01*
X19968Y109864D01*
D02*
G37*
G36*
X400850Y107347D02*
X399818Y107211D01*
X398857Y106813D01*
X398031Y106179D01*
X397397Y105354D01*
X396999Y104392D01*
X396863Y103360D01*
X396999Y102329D01*
X397397Y101367D01*
X398031Y100541D01*
X398857Y99908D01*
X399818Y99509D01*
X400850Y99374D01*
X401882Y99509D01*
X402844Y99908D01*
X403669Y100541D01*
X404303Y101367D01*
X404701Y102329D01*
X404837Y103360D01*
X404701Y104392D01*
X404303Y105354D01*
X403669Y106179D01*
X402844Y106813D01*
X401882Y107211D01*
X400850Y107347D01*
D02*
G37*
G36*
X380819Y92510D02*
X378850D01*
Y90738D01*
X380819D01*
Y92510D01*
D02*
G37*
G36*
X376850D02*
X374882D01*
Y90738D01*
X376850D01*
Y92510D01*
D02*
G37*
G36*
X372450Y96960D02*
X364950D01*
Y86660D01*
X366661D01*
Y61060D01*
X364950D01*
Y50760D01*
X372450D01*
Y57140D01*
X372631Y57176D01*
X373292Y57618D01*
X373644Y57971D01*
X374882D01*
Y57238D01*
X380819D01*
Y62782D01*
X374882D01*
Y62049D01*
X372800D01*
X372019Y61894D01*
X371358Y61452D01*
X371239Y61333D01*
X370739Y61541D01*
Y86180D01*
X371239Y86387D01*
X371858Y85769D01*
X372519Y85327D01*
X373300Y85172D01*
X374882D01*
Y84439D01*
X377738D01*
X380259Y81919D01*
X380920Y81476D01*
X381700Y81321D01*
X396897D01*
Y79408D01*
X404803D01*
Y87313D01*
X396897D01*
Y85400D01*
X382545D01*
X380819Y87126D01*
Y89982D01*
X374882D01*
Y89250D01*
X374144D01*
X373292Y90102D01*
X372631Y90544D01*
X372450Y90580D01*
Y96960D01*
D02*
G37*
G36*
X400850Y69847D02*
X399818Y69711D01*
X398857Y69313D01*
X398031Y68679D01*
X397397Y67854D01*
X396999Y66892D01*
X396863Y65860D01*
X396999Y64828D01*
X397397Y63867D01*
X398031Y63041D01*
X398857Y62408D01*
X399818Y62009D01*
X400850Y61874D01*
X401882Y62009D01*
X402844Y62408D01*
X403669Y63041D01*
X404303Y63867D01*
X404701Y64828D01*
X404837Y65860D01*
X404701Y66892D01*
X404303Y67854D01*
X403669Y68679D01*
X402844Y69313D01*
X401882Y69711D01*
X400850Y69847D01*
D02*
G37*
G36*
X298768Y50337D02*
X297582Y50181D01*
X296477Y49723D01*
X295528Y48994D01*
X294800Y48045D01*
X294342Y46940D01*
X294186Y45754D01*
X294342Y44568D01*
X294800Y43463D01*
X295528Y42514D01*
X296477Y41786D01*
X297582Y41328D01*
X298768Y41172D01*
X299954Y41328D01*
X301060Y41786D01*
X302009Y42514D01*
X302737Y43463D01*
X303195Y44568D01*
X303351Y45754D01*
X303195Y46940D01*
X302737Y48045D01*
X302009Y48994D01*
X301060Y49723D01*
X299954Y50181D01*
X298768Y50337D01*
D02*
G37*
G36*
X243968D02*
X242782Y50181D01*
X241677Y49723D01*
X240728Y48994D01*
X240000Y48045D01*
X239542Y46940D01*
X239386Y45754D01*
X239542Y44568D01*
X240000Y43463D01*
X240728Y42514D01*
X241677Y41786D01*
X242782Y41328D01*
X243968Y41172D01*
X245154Y41328D01*
X246260Y41786D01*
X247209Y42514D01*
X247937Y43463D01*
X248395Y44568D01*
X248551Y45754D01*
X248395Y46940D01*
X247937Y48045D01*
X247209Y48994D01*
X246260Y49723D01*
X245154Y50181D01*
X243968Y50337D01*
D02*
G37*
G36*
X207954Y216112D02*
X198946D01*
Y208128D01*
X201411D01*
Y207189D01*
X201210Y206888D01*
X201140Y206534D01*
X184908Y190302D01*
X184466Y189641D01*
X184311Y188860D01*
Y148561D01*
X184466Y147781D01*
X184715Y147408D01*
X184600Y147258D01*
X184142Y146153D01*
X183986Y144967D01*
X184142Y143781D01*
X184600Y142675D01*
X185328Y141727D01*
X186277Y140998D01*
X187382Y140540D01*
X188568Y140384D01*
X189754Y140540D01*
X190006Y140645D01*
X201411Y129240D01*
Y60636D01*
X201566Y59856D01*
X202008Y59194D01*
X214010Y47192D01*
X213906Y46940D01*
X213749Y45754D01*
X213906Y44568D01*
X214363Y43463D01*
X215092Y42514D01*
X216041Y41786D01*
X217146Y41328D01*
X218332Y41172D01*
X219518Y41328D01*
X220623Y41786D01*
X221572Y42514D01*
X222301Y43463D01*
X222758Y44568D01*
X222914Y45754D01*
X222758Y46940D01*
X222301Y48045D01*
X221572Y48994D01*
X220623Y49723D01*
X219518Y50181D01*
X218332Y50337D01*
X217146Y50181D01*
X216894Y50076D01*
X205489Y61481D01*
Y130085D01*
X205334Y130865D01*
X204892Y131527D01*
X204892Y131527D01*
X192890Y143529D01*
X192995Y143781D01*
X193151Y144967D01*
X192995Y146153D01*
X192537Y147258D01*
X191809Y148207D01*
X190860Y148935D01*
X189754Y149393D01*
X188568Y149549D01*
X188389Y149706D01*
Y188016D01*
X204024Y203650D01*
X204378Y203721D01*
X205165Y204246D01*
X205690Y205033D01*
X205875Y205961D01*
X205690Y206888D01*
X205489Y207189D01*
Y208128D01*
X207954D01*
Y216112D01*
D02*
G37*
G36*
X188568Y50337D02*
X187382Y50181D01*
X186277Y49723D01*
X185328Y48994D01*
X184600Y48045D01*
X184142Y46940D01*
X183986Y45754D01*
X184142Y44568D01*
X184600Y43463D01*
X185328Y42514D01*
X186277Y41786D01*
X187382Y41328D01*
X188568Y41172D01*
X189754Y41328D01*
X190860Y41786D01*
X191809Y42514D01*
X192537Y43463D01*
X192995Y44568D01*
X193151Y45754D01*
X192995Y46940D01*
X192537Y48045D01*
X191809Y48994D01*
X190860Y49723D01*
X189754Y50181D01*
X188568Y50337D01*
D02*
G37*
G36*
X132368D02*
X131182Y50181D01*
X130077Y49723D01*
X129128Y48994D01*
X128400Y48045D01*
X127942Y46940D01*
X127786Y45754D01*
X127942Y44568D01*
X128400Y43463D01*
X129128Y42514D01*
X130077Y41786D01*
X131182Y41328D01*
X132368Y41172D01*
X133554Y41328D01*
X134660Y41786D01*
X135609Y42514D01*
X136337Y43463D01*
X136795Y44568D01*
X136951Y45754D01*
X136795Y46940D01*
X136337Y48045D01*
X135609Y48994D01*
X134660Y49723D01*
X133554Y50181D01*
X132368Y50337D01*
D02*
G37*
G36*
X95554Y216112D02*
X86546D01*
Y208128D01*
X89011D01*
Y207089D01*
X88810Y206788D01*
X88740Y206434D01*
X72408Y190102D01*
X71966Y189441D01*
X71811Y188660D01*
Y148661D01*
X71966Y147881D01*
X72297Y147385D01*
X72200Y147258D01*
X71742Y146153D01*
X71586Y144967D01*
X71742Y143781D01*
X72200Y142675D01*
X72928Y141727D01*
X73877Y140998D01*
X74982Y140540D01*
X76168Y140384D01*
X77354Y140540D01*
X77606Y140645D01*
X89011Y129240D01*
Y60636D01*
X89166Y59856D01*
X89608Y59194D01*
X101610Y47192D01*
X101506Y46940D01*
X101349Y45754D01*
X101506Y44568D01*
X101963Y43463D01*
X102692Y42514D01*
X103641Y41786D01*
X104746Y41328D01*
X105932Y41172D01*
X107118Y41328D01*
X108223Y41786D01*
X109172Y42514D01*
X109900Y43463D01*
X110358Y44568D01*
X110514Y45754D01*
X110358Y46940D01*
X109900Y48045D01*
X109172Y48994D01*
X108223Y49723D01*
X107118Y50181D01*
X105932Y50337D01*
X104746Y50181D01*
X104494Y50076D01*
X93089Y61481D01*
Y130085D01*
X92934Y130865D01*
X92492Y131527D01*
X92492Y131527D01*
X80490Y143529D01*
X80595Y143781D01*
X80751Y144967D01*
X80595Y146153D01*
X80137Y147258D01*
X79409Y148207D01*
X78460Y148935D01*
X77354Y149393D01*
X76168Y149549D01*
X75889Y149794D01*
Y187816D01*
X91624Y203550D01*
X91978Y203621D01*
X92765Y204146D01*
X93290Y204933D01*
X93475Y205861D01*
X93290Y206788D01*
X93089Y207089D01*
Y208128D01*
X95554D01*
Y216112D01*
D02*
G37*
G36*
X76168Y50337D02*
X74982Y50181D01*
X73877Y49723D01*
X72928Y48994D01*
X72200Y48045D01*
X71742Y46940D01*
X71586Y45754D01*
X71742Y44568D01*
X72200Y43463D01*
X72928Y42514D01*
X73877Y41786D01*
X74982Y41328D01*
X76168Y41172D01*
X77354Y41328D01*
X78460Y41786D01*
X79409Y42514D01*
X80137Y43463D01*
X80595Y44568D01*
X80751Y45754D01*
X80595Y46940D01*
X80137Y48045D01*
X79409Y48994D01*
X78460Y49723D01*
X77354Y50181D01*
X76168Y50337D01*
D02*
G37*
G36*
X39354Y216112D02*
X30346D01*
Y208128D01*
X32811D01*
Y207089D01*
X32610Y206788D01*
X32540Y206434D01*
X16408Y190302D01*
X15966Y189641D01*
X15811Y188860D01*
Y148461D01*
X15966Y147681D01*
X16133Y147432D01*
X16000Y147258D01*
X15542Y146153D01*
X15386Y144967D01*
X15542Y143781D01*
X16000Y142675D01*
X16728Y141727D01*
X17677Y140998D01*
X18782Y140540D01*
X19968Y140384D01*
X21154Y140540D01*
X21406Y140645D01*
X32811Y129240D01*
Y60636D01*
X32966Y59856D01*
X33408Y59194D01*
X45410Y47192D01*
X45306Y46940D01*
X45149Y45754D01*
X45306Y44568D01*
X45763Y43463D01*
X46492Y42514D01*
X47441Y41786D01*
X48546Y41328D01*
X49732Y41172D01*
X50918Y41328D01*
X52023Y41786D01*
X52972Y42514D01*
X53701Y43463D01*
X54158Y44568D01*
X54314Y45754D01*
X54158Y46940D01*
X53701Y48045D01*
X52972Y48994D01*
X52023Y49723D01*
X50918Y50181D01*
X49732Y50337D01*
X48546Y50181D01*
X48294Y50076D01*
X36889Y61481D01*
Y130085D01*
X36734Y130865D01*
X36292Y131527D01*
X24290Y143529D01*
X24395Y143781D01*
X24551Y144967D01*
X24395Y146153D01*
X23937Y147258D01*
X23209Y148207D01*
X22260Y148935D01*
X21154Y149393D01*
X19968Y149549D01*
X19889Y149619D01*
Y170505D01*
X20346Y170608D01*
X20389Y170608D01*
X29354D01*
Y178593D01*
X26890D01*
Y182632D01*
X27090Y182933D01*
X27275Y183860D01*
X27090Y184788D01*
X26564Y185575D01*
X25778Y186100D01*
X24850Y186285D01*
X23922Y186100D01*
X23136Y185575D01*
X22610Y184788D01*
X22426Y183860D01*
X22610Y182933D01*
X22811Y182632D01*
Y178593D01*
X20389D01*
X20346Y178593D01*
X19889Y178696D01*
Y188016D01*
X35424Y203550D01*
X35778Y203620D01*
X36564Y204146D01*
X37090Y204933D01*
X37275Y205860D01*
X37090Y206788D01*
X36889Y207088D01*
Y208128D01*
X39354D01*
Y216112D01*
D02*
G37*
G36*
X19968Y50337D02*
X18782Y50181D01*
X17677Y49723D01*
X16728Y48994D01*
X16000Y48045D01*
X15542Y46940D01*
X15386Y45754D01*
X15542Y44568D01*
X16000Y43463D01*
X16728Y42514D01*
X17677Y41786D01*
X18782Y41328D01*
X19968Y41172D01*
X21154Y41328D01*
X22260Y41786D01*
X23209Y42514D01*
X23937Y43463D01*
X24395Y44568D01*
X24551Y45754D01*
X24395Y46940D01*
X23937Y48045D01*
X23209Y48994D01*
X22260Y49723D01*
X21154Y50181D01*
X19968Y50337D01*
D02*
G37*
G36*
X380819Y56482D02*
X374882D01*
Y50939D01*
X375689D01*
Y48030D01*
X375049Y47539D01*
X374447Y46755D01*
X374069Y45841D01*
X373940Y44860D01*
X374069Y43880D01*
X374447Y42966D01*
X375049Y42182D01*
X375834Y41580D01*
X376748Y41201D01*
X377728Y41072D01*
X378709Y41201D01*
X379622Y41580D01*
X380407Y42182D01*
X381009Y42966D01*
X381387Y43880D01*
X381516Y44860D01*
X381387Y45841D01*
X381009Y46755D01*
X380407Y47539D01*
X379767Y48030D01*
Y50939D01*
X380819D01*
Y56482D01*
D02*
G37*
G36*
X347728Y107149D02*
X346748Y107020D01*
X345834Y106641D01*
X345049Y106039D01*
X344447Y105254D01*
X344069Y104341D01*
X343940Y103360D01*
X344069Y102380D01*
X344447Y101466D01*
X345049Y100682D01*
X345689Y100191D01*
Y96132D01*
X345844Y95352D01*
X346286Y94690D01*
X347250Y93726D01*
Y86660D01*
X348961D01*
Y61060D01*
X347250D01*
Y53995D01*
X346286Y53031D01*
X345844Y52369D01*
X345689Y51589D01*
Y48030D01*
X345049Y47539D01*
X344447Y46755D01*
X344069Y45841D01*
X343940Y44860D01*
X344069Y43880D01*
X344447Y42966D01*
X345049Y42182D01*
X345834Y41580D01*
X346748Y41201D01*
X347728Y41072D01*
X348709Y41201D01*
X349622Y41580D01*
X350407Y42182D01*
X351009Y42966D01*
X351387Y43880D01*
X351516Y44860D01*
X351387Y45841D01*
X351009Y46755D01*
X350407Y47539D01*
X349767Y48030D01*
Y50744D01*
X349784Y50760D01*
X354750D01*
Y61060D01*
X353039D01*
Y86660D01*
X354750D01*
Y96960D01*
X349784D01*
X349767Y96977D01*
Y100191D01*
X350407Y100682D01*
X351009Y101466D01*
X351387Y102380D01*
X351516Y103360D01*
X351387Y104341D01*
X351009Y105254D01*
X350407Y106039D01*
X349622Y106641D01*
X348709Y107020D01*
X347728Y107149D01*
D02*
G37*
G36*
X404803Y49813D02*
X396897D01*
Y44791D01*
X381866Y29760D01*
X381212Y29800D01*
X381029Y30039D01*
X380244Y30641D01*
X379331Y31020D01*
X378350Y31149D01*
X377370Y31020D01*
X376456Y30641D01*
X375671Y30039D01*
X375069Y29254D01*
X374691Y28341D01*
X374562Y27360D01*
X374691Y26380D01*
X375069Y25466D01*
X375671Y24682D01*
X376311Y24191D01*
Y21030D01*
X375671Y20539D01*
X375069Y19755D01*
X374691Y18841D01*
X374562Y17860D01*
X374691Y16880D01*
X375069Y15966D01*
X375671Y15182D01*
X376456Y14580D01*
X377370Y14201D01*
X378350Y14072D01*
X379331Y14201D01*
X380244Y14580D01*
X381029Y15182D01*
X381631Y15966D01*
X382009Y16880D01*
X382138Y17860D01*
X382009Y18841D01*
X381631Y19755D01*
X381029Y20539D01*
X380389Y21030D01*
Y24191D01*
X381029Y24682D01*
X381573Y25391D01*
X382420D01*
X383201Y25546D01*
X383862Y25989D01*
X399781Y41908D01*
X404803D01*
Y49813D01*
D02*
G37*
G36*
X347350Y31012D02*
X346456Y30641D01*
X345671Y30039D01*
X345069Y29254D01*
X344699Y28360D01*
X347350D01*
Y31012D01*
D02*
G37*
G36*
X352001Y26360D02*
X349350D01*
Y23709D01*
X350244Y24080D01*
X351029Y24682D01*
X351631Y25466D01*
X352001Y26360D01*
D02*
G37*
G36*
X347350D02*
X344699D01*
X345069Y25466D01*
X345671Y24682D01*
X346456Y24080D01*
X347350Y23709D01*
Y26360D01*
D02*
G37*
G36*
X328532Y149549D02*
X327346Y149393D01*
X326241Y148935D01*
X325292Y148207D01*
X324563Y147258D01*
X324106Y146153D01*
X323949Y144967D01*
X324106Y143781D01*
X324563Y142675D01*
X325292Y141727D01*
X326241Y140998D01*
X327346Y140540D01*
X328532Y140384D01*
X329718Y140540D01*
X329970Y140645D01*
X339299Y131316D01*
Y39082D01*
X320119Y19902D01*
X319144Y20030D01*
X318112Y19894D01*
X317150Y19496D01*
X316325Y18862D01*
X315691Y18036D01*
X315293Y17075D01*
X315157Y16043D01*
X315293Y15011D01*
X315691Y14050D01*
X316325Y13224D01*
X317150Y12590D01*
X318112Y12192D01*
X319144Y12056D01*
X320176Y12192D01*
X321137Y12590D01*
X321963Y13224D01*
X322597Y14050D01*
X322995Y15011D01*
X323131Y16043D01*
X323003Y17018D01*
X342780Y36795D01*
X343222Y37457D01*
X343377Y38237D01*
Y132160D01*
X343222Y132941D01*
X342780Y133602D01*
X342780Y133602D01*
X332854Y143529D01*
X332958Y143781D01*
X333114Y144967D01*
X332958Y146153D01*
X332501Y147258D01*
X331772Y148207D01*
X330823Y148935D01*
X329718Y149393D01*
X328532Y149549D01*
D02*
G37*
G36*
X218332D02*
X217146Y149393D01*
X216041Y148935D01*
X215092Y148207D01*
X214363Y147258D01*
X213906Y146153D01*
X213749Y144967D01*
X213906Y143781D01*
X214363Y142675D01*
X215092Y141727D01*
X216041Y140998D01*
X217146Y140540D01*
X218332Y140384D01*
X219518Y140540D01*
X219770Y140645D01*
X230311Y130104D01*
Y23011D01*
X227201Y19902D01*
X226226Y20030D01*
X225195Y19894D01*
X224233Y19496D01*
X223407Y18862D01*
X222774Y18036D01*
X222375Y17075D01*
X222239Y16043D01*
X222375Y15011D01*
X222774Y14050D01*
X223407Y13224D01*
X224233Y12590D01*
X225195Y12192D01*
X226226Y12056D01*
X227258Y12192D01*
X228220Y12590D01*
X229046Y13224D01*
X229644Y14004D01*
X258732D01*
Y12090D01*
X266638D01*
Y17112D01*
X283792Y34266D01*
X284234Y34928D01*
X284389Y35708D01*
Y116506D01*
X284389Y116506D01*
X284234Y117286D01*
X283792Y117948D01*
X283792Y117948D01*
X278054Y123686D01*
X278158Y123938D01*
X278314Y125124D01*
X278158Y126310D01*
X277700Y127415D01*
X276972Y128365D01*
X276023Y129093D01*
X274918Y129551D01*
X273732Y129707D01*
X272546Y129551D01*
X271441Y129093D01*
X270492Y128365D01*
X269763Y127415D01*
X269306Y126310D01*
X269149Y125124D01*
X269306Y123938D01*
X269763Y122833D01*
X270492Y121884D01*
X271441Y121156D01*
X272546Y120698D01*
X273732Y120542D01*
X274918Y120698D01*
X275170Y120802D01*
X280311Y115661D01*
Y36553D01*
X263754Y19996D01*
X258732D01*
Y18082D01*
X231803D01*
X231611Y18544D01*
X233792Y20725D01*
X234234Y21386D01*
X234389Y22167D01*
Y130949D01*
X234234Y131729D01*
X233792Y132390D01*
X222654Y143529D01*
X222758Y143781D01*
X222914Y144967D01*
X222758Y146153D01*
X222301Y147258D01*
X221572Y148207D01*
X220623Y148935D01*
X219518Y149393D01*
X218332Y149549D01*
D02*
G37*
G36*
X273732D02*
X272546Y149393D01*
X271441Y148935D01*
X270492Y148207D01*
X269763Y147258D01*
X269306Y146153D01*
X269149Y144967D01*
X269306Y143781D01*
X269763Y142675D01*
X270492Y141727D01*
X271441Y140998D01*
X272546Y140540D01*
X273732Y140384D01*
X274918Y140540D01*
X275170Y140645D01*
X285311Y130504D01*
Y31553D01*
X273660Y19902D01*
X272685Y20030D01*
X271653Y19894D01*
X270692Y19496D01*
X269866Y18862D01*
X269232Y18036D01*
X268834Y17075D01*
X268698Y16043D01*
X268834Y15011D01*
X269232Y14050D01*
X269866Y13224D01*
X270692Y12590D01*
X271653Y12192D01*
X272685Y12056D01*
X273717Y12192D01*
X274679Y12590D01*
X275504Y13224D01*
X276103Y14004D01*
X305191D01*
Y12090D01*
X313097D01*
Y17112D01*
X337792Y41807D01*
X338234Y42469D01*
X338389Y43249D01*
Y117306D01*
X338234Y118086D01*
X337792Y118748D01*
X337792Y118748D01*
X332854Y123686D01*
X332958Y123938D01*
X333114Y125124D01*
X332958Y126310D01*
X332501Y127415D01*
X331772Y128365D01*
X330823Y129093D01*
X329718Y129551D01*
X328532Y129707D01*
X327346Y129551D01*
X326241Y129093D01*
X325292Y128365D01*
X324563Y127415D01*
X324106Y126310D01*
X323949Y125124D01*
X324106Y123938D01*
X324563Y122833D01*
X325292Y121884D01*
X326241Y121156D01*
X327346Y120698D01*
X328532Y120542D01*
X329718Y120698D01*
X329970Y120802D01*
X334311Y116461D01*
Y44094D01*
X310213Y19996D01*
X305191D01*
Y18082D01*
X278261D01*
X278070Y18544D01*
X288792Y29266D01*
X288792Y29266D01*
X289234Y29928D01*
X289389Y30708D01*
X289389Y30708D01*
Y131349D01*
X289234Y132129D01*
X288792Y132791D01*
X278054Y143529D01*
X278158Y143781D01*
X278314Y144967D01*
X278158Y146153D01*
X277700Y147258D01*
X276972Y148207D01*
X276023Y148935D01*
X274918Y149393D01*
X273732Y149549D01*
D02*
G37*
G36*
X348350Y21649D02*
X347370Y21520D01*
X346456Y21141D01*
X345671Y20539D01*
X345069Y19755D01*
X344691Y18841D01*
X344562Y17860D01*
X344691Y16880D01*
X345069Y15966D01*
X345671Y15182D01*
X346456Y14580D01*
X347370Y14201D01*
X348350Y14072D01*
X349331Y14201D01*
X350244Y14580D01*
X351029Y15182D01*
X351631Y15966D01*
X352009Y16880D01*
X352138Y17860D01*
X352009Y18841D01*
X351631Y19755D01*
X351029Y20539D01*
X350244Y21141D01*
X349331Y21520D01*
X348350Y21649D01*
D02*
G37*
G36*
X162132Y149549D02*
X160946Y149393D01*
X159841Y148935D01*
X158892Y148207D01*
X158163Y147258D01*
X157706Y146153D01*
X157549Y144967D01*
X157706Y143781D01*
X158163Y142675D01*
X158892Y141727D01*
X159841Y140998D01*
X160946Y140540D01*
X162132Y140384D01*
X163318Y140540D01*
X163570Y140645D01*
X174811Y129404D01*
Y19167D01*
X174966Y18387D01*
X175408Y17725D01*
X175958Y17175D01*
X175917Y17075D01*
X175781Y16043D01*
X175917Y15011D01*
X176315Y14050D01*
X176948Y13224D01*
X177774Y12590D01*
X178736Y12192D01*
X179768Y12056D01*
X180799Y12192D01*
X181761Y12590D01*
X182587Y13224D01*
X183185Y14004D01*
X212274D01*
Y12090D01*
X220179D01*
Y17112D01*
X228292Y25225D01*
X228734Y25886D01*
X228889Y26667D01*
Y116606D01*
X228734Y117386D01*
X228292Y118048D01*
X222654Y123686D01*
X222758Y123938D01*
X222914Y125124D01*
X222758Y126310D01*
X222301Y127415D01*
X221572Y128365D01*
X220623Y129093D01*
X219518Y129551D01*
X218332Y129707D01*
X217146Y129551D01*
X216041Y129093D01*
X215092Y128365D01*
X214363Y127415D01*
X213906Y126310D01*
X213749Y125124D01*
X213906Y123938D01*
X214363Y122833D01*
X215092Y121884D01*
X216041Y121156D01*
X217146Y120698D01*
X218332Y120542D01*
X219518Y120698D01*
X219770Y120802D01*
X224811Y115761D01*
Y27511D01*
X217295Y19996D01*
X212274D01*
Y18082D01*
X183185D01*
X182587Y18862D01*
X181761Y19496D01*
X180799Y19894D01*
X179768Y20030D01*
X179375Y19978D01*
X178889Y20409D01*
Y130249D01*
X178734Y131029D01*
X178292Y131691D01*
X166454Y143529D01*
X166558Y143781D01*
X166714Y144967D01*
X166558Y146153D01*
X166101Y147258D01*
X165372Y148207D01*
X164423Y148935D01*
X163318Y149393D01*
X162132Y149549D01*
D02*
G37*
%LPD*%
G36*
X338228Y373971D02*
Y368589D01*
X339961D01*
Y363285D01*
X339850Y363215D01*
Y358604D01*
X337850D01*
Y363162D01*
X337762Y363212D01*
X337683Y363293D01*
X337584Y363790D01*
X337142Y364452D01*
X337142Y364452D01*
X334292Y367302D01*
X333630Y367744D01*
X332850Y367900D01*
X331683D01*
X331665Y368392D01*
X331665D01*
Y369321D01*
X332716D01*
Y368589D01*
X337472D01*
Y373971D01*
X337850Y374186D01*
X338228Y373971D01*
D02*
G37*
G36*
X404311Y291567D02*
Y281861D01*
X403811Y281615D01*
X403344Y281973D01*
X402382Y282372D01*
X401350Y282507D01*
X400318Y282372D01*
X399357Y281973D01*
X398531Y281340D01*
X397897Y280514D01*
X397499Y279553D01*
X397363Y278521D01*
X397492Y277546D01*
X394908Y274962D01*
X394466Y274301D01*
X394311Y273521D01*
Y272473D01*
X390281D01*
X387389Y275365D01*
Y276447D01*
X387889Y276547D01*
X387897Y276527D01*
X388531Y275701D01*
X389357Y275068D01*
X390318Y274670D01*
X390350Y274665D01*
Y278521D01*
X391350D01*
Y279521D01*
X395205D01*
X395201Y279553D01*
X394803Y280514D01*
X394169Y281340D01*
X393389Y281938D01*
Y287632D01*
X393542Y287860D01*
X389158D01*
X389311Y287632D01*
Y281938D01*
X388531Y281340D01*
X387897Y280514D01*
X387889Y280494D01*
X387389Y280594D01*
Y307782D01*
X387889Y307989D01*
X404311Y291567D01*
D02*
G37*
%LPC*%
G36*
X392350Y291052D02*
Y289860D01*
X393542D01*
X393064Y290575D01*
X392350Y291052D01*
D02*
G37*
G36*
X390350D02*
X389636Y290575D01*
X389158Y289860D01*
X390350D01*
Y291052D01*
D02*
G37*
G36*
X395205Y277521D02*
X392350D01*
Y274665D01*
X392382Y274670D01*
X393344Y275068D01*
X394169Y275701D01*
X394803Y276527D01*
X395201Y277489D01*
X395205Y277521D01*
D02*
G37*
%LPD*%
G36*
X338960Y260380D02*
Y258654D01*
X337389Y257082D01*
X336947Y256421D01*
X336791Y255640D01*
Y251943D01*
X334508D01*
Y252380D01*
X327193D01*
Y249483D01*
X326931Y249400D01*
X326693Y249400D01*
X326292Y249999D01*
X325468Y250823D01*
Y251426D01*
X325375Y251892D01*
X325111Y252287D01*
X324716Y252551D01*
X324250Y252644D01*
X323870D01*
Y250538D01*
X321870D01*
Y252644D01*
X321490D01*
X321153Y252577D01*
X314547D01*
X314210Y252644D01*
X312115D01*
X311858Y253144D01*
X311985Y253321D01*
X330350D01*
X331131Y253476D01*
X331792Y253919D01*
X338460Y260587D01*
X338960Y260380D01*
D02*
G37*
G36*
X344472Y259148D02*
X346850D01*
Y257148D01*
X344472D01*
Y255376D01*
X344811D01*
Y251923D01*
X344966Y251143D01*
X345408Y250482D01*
X345411Y250479D01*
X342363Y247430D01*
X341921Y246769D01*
X341429Y246859D01*
Y247051D01*
X341336Y247518D01*
X341072Y247913D01*
Y248155D01*
X341336Y248550D01*
X341429Y249016D01*
Y250792D01*
X341336Y251258D01*
X341072Y251653D01*
X340870Y251788D01*
Y254796D01*
X341451Y255376D01*
X343716D01*
Y260821D01*
X344472D01*
Y259148D01*
D02*
G37*
G36*
X321490Y248432D02*
X322092D01*
X322163Y248360D01*
X324850D01*
Y246360D01*
X322658D01*
X323124Y245663D01*
X323080Y245439D01*
X322997Y245163D01*
X321490D01*
X321024Y245071D01*
X320628Y244807D01*
X320364Y244411D01*
X320271Y243945D01*
Y242170D01*
X320364Y241703D01*
X320628Y241308D01*
X321024Y241044D01*
X321490Y240951D01*
X324250D01*
X324586Y241018D01*
X327193D01*
Y240341D01*
X327193D01*
X327050Y239900D01*
X316656D01*
X315142Y241413D01*
X315336Y241703D01*
X315429Y242170D01*
Y243945D01*
X315336Y244411D01*
X315072Y244807D01*
Y245048D01*
X315336Y245444D01*
X315429Y245910D01*
Y247685D01*
X315366Y247999D01*
X315660Y248499D01*
X321153D01*
X321490Y248432D01*
D02*
G37*
D27*
X328696Y371361D02*
D03*
X322004D02*
D03*
X358185Y371360D02*
D03*
X364878D02*
D03*
X311504Y422860D02*
D03*
X318197D02*
D03*
X311504Y387860D02*
D03*
X318197D02*
D03*
D61*
X254315Y313860D02*
D03*
Y318860D02*
D03*
Y323860D02*
D03*
Y328860D02*
D03*
Y333860D02*
D03*
Y338860D02*
D03*
Y343860D02*
D03*
Y348860D02*
D03*
Y353860D02*
D03*
Y358860D02*
D03*
Y363860D02*
D03*
Y368860D02*
D03*
X217386Y313860D02*
D03*
Y318860D02*
D03*
Y323860D02*
D03*
Y328860D02*
D03*
Y333860D02*
D03*
Y338860D02*
D03*
Y343860D02*
D03*
Y348860D02*
D03*
Y353860D02*
D03*
Y358860D02*
D03*
Y363860D02*
D03*
Y368860D02*
D03*
D62*
X214279Y382923D02*
D03*
X207980D02*
D03*
X304649Y276860D02*
D03*
X298350D02*
D03*
X218332Y259979D02*
D03*
X212033D02*
D03*
X218332Y236979D02*
D03*
X212033D02*
D03*
X273732Y259723D02*
D03*
X267433D02*
D03*
X273732Y236939D02*
D03*
X267433D02*
D03*
X105932Y259860D02*
D03*
X99633D02*
D03*
X105932Y236860D02*
D03*
X99633D02*
D03*
X49732Y259904D02*
D03*
X43433D02*
D03*
X49732Y236860D02*
D03*
X43433D02*
D03*
X294200Y420860D02*
D03*
X300500D02*
D03*
X284700Y387860D02*
D03*
X291000D02*
D03*
X416000Y186360D02*
D03*
X409700D02*
D03*
X383201Y213860D02*
D03*
X389500D02*
D03*
X162132Y259644D02*
D03*
X155833D02*
D03*
X162132Y236860D02*
D03*
X155833D02*
D03*
D63*
X249169Y391923D02*
D03*
D64*
X226334Y382868D02*
D03*
Y391923D02*
D03*
Y400978D02*
D03*
D65*
X340606Y371360D02*
D03*
X335094D02*
D03*
X346425Y371361D02*
D03*
X351937D02*
D03*
X341338Y258148D02*
D03*
X346850D02*
D03*
X317606Y430360D02*
D03*
X312094D02*
D03*
X297594Y387860D02*
D03*
X303106D02*
D03*
D66*
X313536Y261237D02*
D03*
Y268324D02*
D03*
X195682Y253482D02*
D03*
Y260569D02*
D03*
X251082Y253227D02*
D03*
Y260313D02*
D03*
X301850Y332317D02*
D03*
Y339404D02*
D03*
X83282Y253364D02*
D03*
Y260451D02*
D03*
X27082Y252817D02*
D03*
Y259904D02*
D03*
X274350Y327317D02*
D03*
Y334404D02*
D03*
X273850Y368404D02*
D03*
Y361317D02*
D03*
X384350Y138404D02*
D03*
Y131317D02*
D03*
X393850Y138404D02*
D03*
Y131317D02*
D03*
X139482Y253148D02*
D03*
Y260234D02*
D03*
D67*
X322914Y267733D02*
D03*
Y261434D02*
D03*
X377850Y93510D02*
D03*
Y87211D02*
D03*
Y60010D02*
D03*
Y53711D02*
D03*
X204182Y260175D02*
D03*
Y253876D02*
D03*
X187682Y251128D02*
D03*
Y244829D02*
D03*
X259582Y259920D02*
D03*
Y253620D02*
D03*
X380350Y335711D02*
D03*
Y329412D02*
D03*
X242949Y250829D02*
D03*
Y244530D02*
D03*
X91782Y260057D02*
D03*
Y253758D02*
D03*
X75282Y251010D02*
D03*
Y244711D02*
D03*
X35582Y260101D02*
D03*
Y253801D02*
D03*
X19082Y251010D02*
D03*
Y244711D02*
D03*
X274350Y313711D02*
D03*
Y320010D02*
D03*
X368850Y407711D02*
D03*
Y414010D02*
D03*
X401350Y418211D02*
D03*
Y424510D02*
D03*
Y390211D02*
D03*
Y396510D02*
D03*
X378350Y205510D02*
D03*
Y199211D02*
D03*
X147982Y259841D02*
D03*
Y253542D02*
D03*
X131482Y250750D02*
D03*
Y244451D02*
D03*
D68*
X338830Y249904D02*
D03*
Y246164D02*
D03*
Y242423D02*
D03*
X348870D02*
D03*
Y249904D02*
D03*
X312830Y250538D02*
D03*
Y246798D02*
D03*
Y243057D02*
D03*
X322870D02*
D03*
Y250538D02*
D03*
D69*
X330850Y243211D02*
D03*
Y249510D02*
D03*
D70*
X304760Y261040D02*
D03*
Y268521D02*
D03*
X296885Y264780D02*
D03*
X304787Y243057D02*
D03*
Y250538D02*
D03*
X296913Y246798D02*
D03*
X211049Y251719D02*
D03*
Y244238D02*
D03*
X218922Y247979D02*
D03*
X197096Y243908D02*
D03*
Y236427D02*
D03*
X204970Y240168D02*
D03*
X266448Y251420D02*
D03*
Y243939D02*
D03*
X274323Y247679D02*
D03*
X252496Y243868D02*
D03*
Y236388D02*
D03*
X260370Y240128D02*
D03*
X98649Y251601D02*
D03*
Y244120D02*
D03*
X106523Y247860D02*
D03*
X84696Y243790D02*
D03*
Y236309D02*
D03*
X92570Y240049D02*
D03*
X42448Y251601D02*
D03*
Y244120D02*
D03*
X50323Y247860D02*
D03*
X28496Y243790D02*
D03*
Y236309D02*
D03*
X36370Y240049D02*
D03*
X154849Y251341D02*
D03*
Y243860D02*
D03*
X162723Y247601D02*
D03*
X140896Y243790D02*
D03*
Y236309D02*
D03*
X148770Y240049D02*
D03*
D71*
X137250Y174601D02*
D03*
X147250D02*
D03*
X157250D02*
D03*
X137250Y212120D02*
D03*
X147250D02*
D03*
X157250D02*
D03*
X81050Y174601D02*
D03*
X91050D02*
D03*
X101050D02*
D03*
X81050Y212120D02*
D03*
X91050D02*
D03*
X101050D02*
D03*
X24850Y174601D02*
D03*
X34850D02*
D03*
X44850D02*
D03*
X24850Y212120D02*
D03*
X34850D02*
D03*
X44850D02*
D03*
X248850Y174601D02*
D03*
X258850D02*
D03*
X268850D02*
D03*
X248850Y212120D02*
D03*
X258850D02*
D03*
X268850D02*
D03*
X303650Y174601D02*
D03*
X313650D02*
D03*
X323650D02*
D03*
X303650Y212120D02*
D03*
X313650D02*
D03*
X323650D02*
D03*
X193450Y174601D02*
D03*
X203450D02*
D03*
X213450D02*
D03*
X193450Y212120D02*
D03*
X203450D02*
D03*
X213450D02*
D03*
D72*
X258850Y382451D02*
D03*
Y387963D02*
D03*
X428850Y347104D02*
D03*
Y352616D02*
D03*
Y317372D02*
D03*
Y311860D02*
D03*
D73*
X204232Y392967D02*
D03*
X214468D02*
D03*
D74*
X258850Y393908D02*
D03*
Y399813D02*
D03*
D75*
X354598Y314116D02*
D03*
X351448D02*
D03*
X348299D02*
D03*
X345149D02*
D03*
X342000D02*
D03*
X338850D02*
D03*
X335700D02*
D03*
X332551D02*
D03*
X329401D02*
D03*
X326252D02*
D03*
X323102D02*
D03*
Y358604D02*
D03*
X326252D02*
D03*
X329401D02*
D03*
X332551D02*
D03*
X335700D02*
D03*
X338850D02*
D03*
X342000D02*
D03*
X345149D02*
D03*
X348299D02*
D03*
X351448D02*
D03*
X354598D02*
D03*
D76*
X316606Y320612D02*
D03*
Y323762D02*
D03*
Y326912D02*
D03*
Y330061D02*
D03*
Y333211D02*
D03*
Y336360D02*
D03*
Y339510D02*
D03*
Y342660D02*
D03*
Y345809D02*
D03*
Y348959D02*
D03*
Y352108D02*
D03*
X361094D02*
D03*
Y348959D02*
D03*
Y345809D02*
D03*
Y342660D02*
D03*
Y339510D02*
D03*
Y336360D02*
D03*
Y333211D02*
D03*
Y330061D02*
D03*
Y326912D02*
D03*
Y323762D02*
D03*
Y320612D02*
D03*
D77*
X390350Y342553D02*
D03*
Y329167D02*
D03*
D78*
X301854Y347388D02*
D03*
Y353333D02*
D03*
D79*
X415350Y315628D02*
D03*
Y349093D02*
D03*
D80*
X294090Y412360D02*
D03*
Y407360D02*
D03*
Y402360D02*
D03*
Y397360D02*
D03*
X315350Y412360D02*
D03*
Y407360D02*
D03*
Y402360D02*
D03*
Y397360D02*
D03*
D81*
X359850Y421620D02*
D03*
X354850D02*
D03*
X349850D02*
D03*
X344850D02*
D03*
X339850D02*
D03*
X334850D02*
D03*
X329850D02*
D03*
X359850Y400360D02*
D03*
X354850D02*
D03*
X349850D02*
D03*
X344850D02*
D03*
X339850D02*
D03*
X334850D02*
D03*
X329850D02*
D03*
D82*
X281350Y427872D02*
D03*
Y416849D02*
D03*
Y410372D02*
D03*
Y399349D02*
D03*
D83*
X300689Y428360D02*
D03*
X293602D02*
D03*
X411393Y211360D02*
D03*
X404307D02*
D03*
X410307Y176360D02*
D03*
X417393D02*
D03*
X386307Y222360D02*
D03*
X393393D02*
D03*
D84*
X386350Y391128D02*
D03*
Y424593D02*
D03*
D85*
X351000Y91810D02*
D03*
Y55910D02*
D03*
X368700Y91810D02*
D03*
Y55910D02*
D03*
D86*
X398685Y156360D02*
D03*
Y161360D02*
D03*
Y166360D02*
D03*
Y171360D02*
D03*
Y176360D02*
D03*
Y181360D02*
D03*
Y186360D02*
D03*
X378015Y156360D02*
D03*
Y161360D02*
D03*
Y166360D02*
D03*
Y171360D02*
D03*
Y176360D02*
D03*
Y181360D02*
D03*
Y186360D02*
D03*
D87*
X385807Y197341D02*
D03*
X389547D02*
D03*
X393287D02*
D03*
Y207380D02*
D03*
X385807D02*
D03*
D88*
X404208Y201360D02*
D03*
X411492D02*
D03*
D89*
X69850Y314087D02*
Y374364D01*
X27082Y271319D02*
X69850Y314087D01*
X27082Y259904D02*
Y271319D01*
X81661Y295417D02*
Y374364D01*
X65850Y279606D02*
X81661Y295417D01*
X65850Y175860D02*
Y279606D01*
X93472Y294728D02*
Y374364D01*
X83282Y284538D02*
X93472Y294728D01*
X83282Y260451D02*
Y284538D01*
X105283Y294434D02*
Y374364D01*
Y294434D02*
X139482Y260234D01*
X154142Y276360D02*
X179891D01*
X117094Y313409D02*
X154142Y276360D01*
X117094Y313409D02*
Y374364D01*
X128905Y307393D02*
Y374364D01*
Y307393D02*
X155938Y280360D01*
X234350D01*
X157642Y284360D02*
X222350D01*
X140123Y301879D02*
X157642Y284360D01*
X140123Y301879D02*
Y373772D01*
X140716Y374364D01*
X152527Y357783D02*
Y374364D01*
X147250Y352506D02*
X152527Y357783D01*
X147250Y299752D02*
Y352506D01*
X159142Y287860D02*
X212350D01*
X147250Y299752D02*
X159142Y287860D01*
X164338Y363094D02*
Y374364D01*
X151123Y349879D02*
X164338Y363094D01*
X151123Y301487D02*
Y349879D01*
Y301487D02*
X160750Y291860D01*
X61123Y408860D02*
X64123Y411860D01*
X61123Y398839D02*
Y408860D01*
X64123Y411860D02*
X259350Y411860D01*
X61123Y398839D02*
X75756Y384207D01*
X87567D02*
X93571Y390211D01*
X185082Y390211D01*
X204850Y367860D02*
X213826Y358884D01*
X217362D01*
X217386Y358860D01*
X325350Y336360D02*
X335768Y346778D01*
X28047Y235860D02*
X42433D01*
X136350Y232913D02*
X140321Y236884D01*
X401350Y408360D02*
Y418211D01*
Y396510D02*
Y408360D01*
X428850Y332075D02*
Y347104D01*
Y317372D02*
Y332075D01*
X27933Y235860D02*
X28047D01*
X28496Y236309D01*
X26850Y234664D02*
X28047Y235860D01*
X259003Y408360D02*
X268015Y399349D01*
X202850Y408360D02*
X259003D01*
X199850Y405360D02*
X202850Y408360D01*
X264338Y416849D02*
X281350D01*
X259350Y411860D02*
X264338Y416849D01*
X179768Y16043D02*
X216226D01*
X226226D02*
X262685D01*
X272685D02*
X309144D01*
X336350Y43249D01*
X319144Y16043D02*
X341338Y38237D01*
Y132160D01*
X272685Y16043D02*
X287350Y30708D01*
X262685Y16043D02*
X282350Y35708D01*
X226226Y16043D02*
X232350Y22167D01*
Y130949D01*
X216226Y16043D02*
X226850Y26667D01*
Y116606D01*
X169768Y16043D02*
X170850Y17126D01*
X169585Y15860D02*
X169768Y16043D01*
X170850Y17126D02*
Y116406D01*
X176850Y19167D02*
Y130249D01*
Y19167D02*
X179768Y16250D01*
Y16043D02*
Y16250D01*
X133309Y15860D02*
X169585D01*
X86850Y15860D02*
X86850Y15860D01*
X123309D01*
X120850Y28319D02*
X133309Y15860D01*
X120850Y28319D02*
Y130049D01*
X114850Y24319D02*
X123309Y15860D01*
X114850Y24319D02*
Y116206D01*
X63350Y39360D02*
X86850Y15860D01*
X63350Y39360D02*
Y131349D01*
X58350Y34360D02*
X76850Y15860D01*
X58350Y34360D02*
Y116506D01*
X342031Y304360D02*
Y314085D01*
X342000Y314116D02*
X342031Y314085D01*
X371350Y361892D02*
Y376860D01*
X361759Y386451D02*
X371350Y376860D01*
X351000Y386451D02*
X361759D01*
X344850Y392601D02*
X351000Y386451D01*
X344850Y392601D02*
Y400360D01*
X343805Y245988D02*
X348295Y250479D01*
X343805Y240198D02*
Y245988D01*
Y240198D02*
X346850Y237153D01*
X349445Y242998D02*
X353350Y246904D01*
Y258380D01*
X349362Y242423D02*
X349445Y242506D01*
X348870Y242423D02*
X349362D01*
X349445Y242506D02*
Y242998D01*
X324850Y247360D02*
Y248557D01*
X322870Y250538D02*
X324850Y248557D01*
X328850Y261434D02*
X330564Y263148D01*
X322914Y261434D02*
X328850D01*
X258850Y387963D02*
Y393908D01*
X338891Y227360D02*
X378496D01*
X323650Y212120D02*
X338891Y227360D01*
X49350Y223860D02*
X61350D01*
X41350Y151360D02*
X65850Y175860D01*
X34350Y223360D02*
X39850D01*
X26850Y230860D02*
X34350Y223360D01*
X128905Y226360D02*
X133905Y231360D01*
X136350D01*
X112850Y210305D02*
X128905Y226360D01*
X112850Y199860D02*
Y210305D01*
X274850Y222360D02*
X282350Y214860D01*
Y199860D02*
Y214860D01*
X219850Y223360D02*
X225850Y217360D01*
Y199860D02*
Y217360D01*
X163850Y222360D02*
X169850Y216360D01*
Y199860D02*
Y216360D01*
X112850Y177400D02*
Y199860D01*
X112811Y177360D02*
X112850Y177400D01*
X198456Y392967D02*
X204232D01*
X249350Y402646D02*
X256017D01*
X258850Y399813D01*
X390371Y342553D02*
X400850Y332075D01*
X390350Y342553D02*
X390371D01*
X282350Y177360D02*
Y199860D01*
X323350Y160860D02*
X323791D01*
X225850Y177360D02*
Y199860D01*
X169850Y177360D02*
Y199860D01*
X247622Y231360D02*
Y231514D01*
X252496Y236388D01*
X193151Y231360D02*
Y232483D01*
X197096Y236427D01*
X136350Y231360D02*
Y232913D01*
X82901Y231360D02*
Y234514D01*
X84696Y236309D01*
X26850Y230860D02*
Y234664D01*
X34850Y167860D02*
X34850Y167861D01*
Y174601D01*
X73850Y148661D02*
Y188660D01*
X91050Y205860D01*
X73850Y148661D02*
X76168Y146343D01*
Y144967D02*
Y146343D01*
X91050Y167860D02*
Y174601D01*
X147250Y167860D02*
Y174601D01*
X203350Y167860D02*
X203450Y167961D01*
Y174601D01*
X258850Y167860D02*
X258850Y167861D01*
Y174601D01*
X313650Y168560D02*
X313850Y168360D01*
X313650Y168560D02*
Y174601D01*
X338830Y238594D02*
Y242423D01*
Y238594D02*
X341564Y235860D01*
X334267Y237860D02*
X338256Y241849D01*
X315811Y237860D02*
X334267D01*
X312830Y240841D02*
X315811Y237860D01*
X338256Y241849D02*
Y242341D01*
X338338Y242423D01*
X338830D01*
X291350Y219360D02*
X312830Y240841D01*
Y243057D01*
X292350Y276860D02*
X298350D01*
X49732Y125124D02*
X58350Y116506D01*
X49732Y144967D02*
X63350Y131349D01*
X328532Y125124D02*
X336350Y117306D01*
Y43249D02*
Y117306D01*
X328532Y144967D02*
X341338Y132160D01*
X273732Y125124D02*
X282350Y116506D01*
Y35708D02*
Y116506D01*
X273732Y144967D02*
X287350Y131349D01*
Y30708D02*
Y131349D01*
X218332Y125124D02*
X226850Y116606D01*
X218332Y144967D02*
X232350Y130949D01*
X162132Y125124D02*
X170850Y116406D01*
X162132Y144967D02*
X176850Y130249D01*
X105932Y125124D02*
X114850Y116206D01*
X105932Y144967D02*
X120850Y130049D01*
X313650Y205860D02*
Y212120D01*
X147250Y205761D02*
Y212120D01*
X34850Y205860D02*
Y212120D01*
X268015Y399349D02*
X281350D01*
X269850Y340860D02*
X274350Y336360D01*
Y334404D02*
Y336360D01*
X254315Y338860D02*
X261850D01*
X303650Y205961D02*
Y212120D01*
X291850Y194160D02*
X303650Y205961D01*
X291850Y132042D02*
Y194160D01*
X268850Y218860D02*
Y226979D01*
X273732Y231861D01*
X250850Y218860D02*
X268850D01*
X248850Y216860D02*
X250850Y218860D01*
X258850Y205961D02*
Y212120D01*
X241850Y188960D02*
X258850Y205961D01*
X254315Y333860D02*
X266350D01*
X203450Y205961D02*
Y212120D01*
X245850Y343860D02*
X254315D01*
X147250Y205761D02*
X147350Y205860D01*
X238850Y348860D02*
X254315D01*
X234350Y353860D02*
X254315D01*
X34850Y205860D02*
X34850Y205861D01*
Y212120D01*
X241350Y323860D02*
X254315D01*
X241350Y328860D02*
X254315D01*
X241350Y318860D02*
X254315D01*
X183350D02*
X217386D01*
X183350Y323762D02*
X183449Y323860D01*
X217386D01*
X183350Y328860D02*
X217386D01*
X183350Y333860D02*
X217386D01*
X183350Y338860D02*
X217386D01*
X183350Y343860D02*
X217386D01*
X183350Y348860D02*
X217386D01*
X183350Y353860D02*
X217386D01*
X234350Y280360D02*
X234850Y280860D01*
X44850Y212120D02*
Y218880D01*
X41350Y133506D02*
Y151360D01*
Y133506D02*
X49732Y125124D01*
X302650Y291860D02*
X313536Y280975D01*
X160750Y291860D02*
X302650D01*
X179891Y276360D02*
X195682Y260569D01*
X373300Y87211D02*
X377850D01*
X371850Y88660D02*
X373300Y87211D01*
X370450Y88660D02*
X371850D01*
X368700Y90410D02*
X370450Y88660D01*
X368700Y90410D02*
Y91810D01*
X351000Y55910D02*
Y91810D01*
Y54510D02*
Y55910D01*
X313536Y268324D02*
Y280975D01*
X335768Y346778D02*
Y356058D01*
X332551Y350561D02*
Y358604D01*
X330350Y348360D02*
X332551Y350561D01*
X338830Y344860D02*
Y358585D01*
X327432Y365860D02*
X332850D01*
X322972Y370320D02*
X327432Y365860D01*
X332850D02*
X335700Y363010D01*
X250850Y276860D02*
X251082Y276628D01*
Y260313D02*
Y276628D01*
X274201Y313860D02*
X274350Y313711D01*
X254315Y313860D02*
X274201D01*
X332551Y307360D02*
Y314116D01*
X330551Y305360D02*
X332551Y307360D01*
X306850Y305360D02*
X330551D01*
X292200Y320010D02*
X306850Y305360D01*
X274350Y320010D02*
X292200D01*
X274350D02*
Y327317D01*
X315350Y412360D02*
X317220D01*
X317401Y412541D01*
Y414412D01*
X318197Y415207D01*
Y422860D01*
X315350Y397360D02*
X317220D01*
X317401Y397179D01*
Y395309D02*
Y397179D01*
Y395309D02*
X318197Y394514D01*
Y387860D02*
Y394514D01*
X387350Y407360D02*
X388350Y408360D01*
X401350D01*
X367490Y401720D02*
X367850Y401360D01*
X362860Y401720D02*
X367490D01*
X344850Y421620D02*
Y428860D01*
X347350Y323860D02*
X347448Y323762D01*
X361094D01*
X339350Y330360D02*
X343350Y326360D01*
Y322860D02*
Y326360D01*
Y322860D02*
X346350Y319860D01*
X350031D01*
X351799Y326912D02*
X361094D01*
X340350Y338360D02*
X351799Y326912D01*
X349850Y421620D02*
Y428860D01*
X361094Y314392D02*
X361126Y314360D01*
X361094Y314392D02*
Y320612D01*
X339850Y421620D02*
Y428860D01*
X334850Y421620D02*
Y428860D01*
X350031Y319860D02*
X351448Y318443D01*
Y314116D02*
Y318443D01*
X394850Y262860D02*
X396350Y264360D01*
X385850Y262860D02*
X394850D01*
X382350Y266360D02*
X385850Y262860D01*
X396350Y264360D02*
Y273521D01*
X401350Y278521D01*
X382350Y266360D02*
Y306984D01*
X368722Y320612D02*
X382350Y306984D01*
X361094Y320612D02*
X368722D01*
X385350Y274521D02*
X391350Y268521D01*
X385350Y274521D02*
Y308227D01*
X369815Y323762D02*
X385350Y308227D01*
X361094Y323762D02*
X369815D01*
X361094Y326912D02*
X371850D01*
X406350Y292412D01*
Y273521D02*
Y292412D01*
X401350Y268521D02*
X406350Y273521D01*
X324850Y416860D02*
X325055D01*
X353850Y337360D02*
X354850Y336360D01*
X361094D01*
X353850Y337360D02*
Y339360D01*
X411393Y201360D02*
Y211360D01*
Y201360D02*
Y211360D01*
Y201360D02*
Y211360D01*
Y201360D02*
Y211360D01*
Y201360D02*
Y211360D01*
X325873Y417679D02*
X330031D01*
X240850Y368860D02*
X254315D01*
X411393Y201360D02*
Y211360D01*
X91050Y205860D02*
Y212120D01*
X296350Y188560D02*
X313650Y205860D01*
X308633Y320612D02*
X314199D01*
X307881Y319860D02*
X308633Y320612D01*
X217386Y363860D02*
X227350D01*
X285017Y390194D02*
Y391527D01*
X281850Y393360D02*
X285017Y390194D01*
Y388177D02*
Y390194D01*
X254315Y368860D02*
X268350D01*
X273393D01*
X273850Y368404D01*
X227350Y358860D02*
X230850D01*
X240850Y368860D01*
X325055Y416860D02*
X325873Y417679D01*
X315350Y407360D02*
X323850D01*
X333700Y414010D02*
X368850D01*
X330031Y417679D02*
X333700Y414010D01*
X330031Y417679D02*
Y421439D01*
X329850Y421620D02*
X330031Y421439D01*
X322350Y371707D02*
Y374360D01*
X322004Y371361D02*
X322350Y371707D01*
Y374360D02*
X324350Y376360D01*
X362850D01*
X364274Y374936D01*
Y371964D02*
Y374936D01*
Y371964D02*
X364878Y371360D01*
X335700Y358604D02*
Y363010D01*
X322972Y370320D02*
Y370392D01*
X322004Y371361D02*
X322972Y370392D01*
X328696Y371361D02*
X328697Y371360D01*
X335094D01*
X351937Y371361D02*
X351938Y371360D01*
X358185D01*
X346425Y370967D02*
Y371361D01*
X345149Y369691D02*
X346425Y370967D01*
X345149Y358604D02*
Y369691D01*
X340606Y370967D02*
Y371360D01*
Y370967D02*
X342000Y369573D01*
Y358604D02*
Y369573D01*
X217386Y358860D02*
X227350D01*
X314199Y320612D02*
X316606D01*
X307850Y323860D02*
X307881Y323829D01*
X314060D01*
X314095Y323794D01*
X316575D01*
X316606Y323762D01*
X217386Y368860D02*
X227350D01*
X291850Y325118D02*
Y329618D01*
Y325118D02*
X308296Y308672D01*
X324379D01*
X326185Y310477D01*
Y311570D01*
X326220Y311606D01*
Y314085D01*
X326252Y314116D01*
X294850Y326360D02*
Y330860D01*
X261850Y363860D02*
X294850Y330860D01*
Y326360D02*
X307094Y314116D01*
X262608Y358860D02*
X291850Y329618D01*
X254315Y358860D02*
X262608D01*
X307094Y314116D02*
X323102D01*
X301850Y347384D02*
X301854Y347388D01*
X301850Y339404D02*
Y347384D01*
X254315Y363860D02*
X261850D01*
X329850Y421620D02*
Y423392D01*
X329669Y423573D02*
X329850Y423392D01*
X327897Y423573D02*
X329669D01*
X321110Y430360D02*
X327897Y423573D01*
X317606Y430360D02*
X321110D01*
X305850Y403467D02*
X306956Y402360D01*
X305850Y403467D02*
Y423860D01*
X302516Y427195D02*
X305850Y423860D01*
X301854Y427195D02*
X302516D01*
X300689Y428360D02*
X301854Y427195D01*
X294090Y397360D02*
X301956D01*
X306956Y402360D01*
X315350D01*
X285017Y391527D02*
X290850Y397360D01*
X294090D01*
X281350Y422360D02*
Y427872D01*
Y404860D02*
Y410372D01*
X293114Y427872D02*
X293602Y428360D01*
X281350Y427872D02*
X293114D01*
X293602Y428360D02*
X294200Y427762D01*
Y420860D02*
Y427762D01*
X299328Y412360D02*
X300500Y413532D01*
X294090Y412360D02*
X299328D01*
X300500Y413532D02*
Y420860D01*
X288850Y409691D02*
Y413860D01*
X286575Y416135D02*
X288850Y413860D01*
X282064Y416135D02*
X286575D01*
X288850Y409691D02*
X291000Y407542D01*
X292039D01*
X292220Y407360D01*
X294090D01*
X281350Y399349D02*
X284598D01*
X285468Y400219D01*
Y401189D01*
X286640Y402360D01*
X294090D01*
X311504Y422860D02*
X312094Y423451D01*
Y430360D01*
X291000Y387860D02*
X297594D01*
X303106D02*
X311504D01*
X318850Y397360D02*
X326850D01*
X318197Y396707D02*
X318850Y397360D01*
X318350Y412360D02*
X327350D01*
X318197Y412514D02*
X318350Y412360D01*
X329850Y398589D02*
Y400360D01*
X329669Y398408D02*
X329850Y398589D01*
X327897Y398408D02*
X329669D01*
X326850Y397360D02*
X327897Y398408D01*
X334850Y400360D02*
Y404860D01*
X327350Y412360D02*
X334850Y404860D01*
X386350Y413360D02*
Y424593D01*
X367350Y394360D02*
X386350Y413360D01*
X356507Y394360D02*
X367350D01*
X352732Y391128D02*
X386350D01*
X350031Y393829D02*
X352732Y391128D01*
X350031Y393829D02*
Y398408D01*
X354850Y396018D02*
X356507Y394360D01*
X354850Y396018D02*
Y400360D01*
X349850Y398589D02*
X350031Y398408D01*
X349850Y398589D02*
Y400360D01*
X368653Y407711D02*
X368850D01*
X367881Y406939D02*
X368653Y407711D01*
X367881Y406742D02*
Y406939D01*
X362860Y401720D02*
X367881Y406742D01*
X360031Y401720D02*
X362860D01*
X359850Y401539D02*
X360031Y401720D01*
X359850Y400360D02*
Y401539D01*
X386350Y391128D02*
X387267Y390211D01*
X401350D01*
X386350Y424593D02*
X386433Y424510D01*
X401350D01*
X309350Y336360D02*
X316606D01*
X305844Y332854D02*
X309350Y336360D01*
X302387Y332854D02*
X305844D01*
X301850Y332317D02*
X302387Y332854D01*
X301850Y339404D02*
X301956Y339510D01*
X316606D01*
X325350Y336360D02*
X325850D01*
X338850Y321360D02*
X339850Y322360D01*
X338850Y314116D02*
Y321360D01*
X335700Y314116D02*
Y341730D01*
X338830Y344860D01*
X350480Y333211D02*
X361094D01*
X338830Y344860D02*
X350480Y333211D01*
X335732Y356094D02*
X335768Y356058D01*
X335732Y356094D02*
Y358573D01*
X335700Y358604D02*
X335732Y358573D01*
X316606Y336360D02*
X325350D01*
X338830Y358585D02*
X338850Y358604D01*
X391350Y278521D02*
Y288860D01*
X379365Y360860D02*
X382350D01*
X367530Y349026D02*
X379365Y360860D01*
X361094Y348959D02*
X361126Y348990D01*
X363605D01*
X363640Y349026D01*
X367530D01*
X384850Y353360D02*
X392350Y360860D01*
X376108Y353360D02*
X384850D01*
X368556Y345809D02*
X376108Y353360D01*
X361094Y345809D02*
X368556D01*
X414082Y350360D02*
X415350Y349093D01*
X377350Y350360D02*
X414082D01*
X369716Y342727D02*
X377350Y350360D01*
X363640Y342727D02*
X369716D01*
X361094Y342660D02*
X361126Y342691D01*
X363605D01*
X363640Y342727D01*
X397350Y346860D02*
X415350Y328860D01*
Y315628D02*
Y328860D01*
X378350Y346860D02*
X397350D01*
X371000Y339510D02*
X378350Y346860D01*
X361094Y339510D02*
X371000D01*
X379043Y342553D02*
X390350D01*
X372850Y336360D02*
X379043Y342553D01*
X361094Y336360D02*
X372850D01*
X415350Y349093D02*
Y350664D01*
X417303Y352616D01*
X428850D01*
X415350Y313813D02*
Y315628D01*
Y313813D02*
X417303Y311860D01*
X428850D01*
X380153Y335711D02*
X380350D01*
X379381Y334939D02*
X380153Y335711D01*
X379381Y334742D02*
Y334939D01*
X377850Y333211D02*
X379381Y334742D01*
X361094Y333211D02*
X377850D01*
X390106Y329412D02*
X390350Y329167D01*
X380350Y329412D02*
X390106D01*
X361094Y330061D02*
X363501D01*
X363568Y329994D01*
X379767D01*
X380350Y329412D01*
X390350Y313360D02*
X417850Y285860D01*
X390350Y313360D02*
Y329167D01*
X417850Y275021D02*
Y285860D01*
X411350Y268521D02*
X417850Y275021D01*
X409700Y64711D02*
Y105360D01*
X400850Y55860D02*
X409700Y64711D01*
X378420Y27430D02*
X382420D01*
X378350Y27360D02*
X378420Y27430D01*
X382420D02*
X400850Y45860D01*
X421850Y171904D02*
X425350Y168404D01*
X417393Y176360D02*
X421850Y171904D01*
X418350Y168404D02*
X421850Y171904D01*
X378015Y176360D02*
X387850D01*
X375791Y207872D02*
X378153Y205510D01*
X364862Y207872D02*
X375791D01*
X358850Y201860D02*
X364862Y207872D01*
X378153Y205510D02*
X378350D01*
X358850Y201360D02*
Y201860D01*
X351850Y176360D02*
Y194360D01*
Y138360D02*
Y176360D01*
X378015D01*
X425350Y137860D02*
Y168404D01*
X418850Y131360D02*
X425350Y137860D01*
X417393Y176360D02*
Y184770D01*
X416000Y186164D02*
X417393Y184770D01*
X416000Y186164D02*
Y186360D01*
X384350Y138404D02*
Y144860D01*
Y138404D02*
X393850D01*
X404850Y131317D02*
X404893Y131360D01*
X410850D01*
X366850D02*
X372850D01*
X377728Y93632D02*
X377850Y93510D01*
X377728Y93632D02*
Y103360D01*
X358850D02*
Y131360D01*
Y37860D02*
Y103360D01*
X377728D01*
X348350Y27360D02*
X358850Y37860D01*
X351850Y194360D02*
X358850Y201360D01*
X351850Y138360D02*
X358850Y131360D01*
X410307Y169404D02*
X410350Y169360D01*
X410307Y169404D02*
Y176360D01*
X396350Y215360D02*
Y219404D01*
X393393Y222360D02*
X396350Y219404D01*
X398350Y201360D02*
X404208D01*
X322150Y218860D02*
X323650Y217360D01*
X305150Y218860D02*
X322150D01*
X303650Y217360D02*
X305150Y218860D01*
X323650Y212120D02*
Y217360D01*
X303650Y212120D02*
Y217360D01*
X406350Y227360D02*
X417850Y215860D01*
X378496Y227360D02*
X406350D01*
X417850Y196360D02*
Y215860D01*
X410472Y188982D02*
X417850Y196360D01*
X410472Y187132D02*
Y188982D01*
X409700Y186360D02*
X410472Y187132D01*
X383201Y219254D02*
X386307Y222360D01*
X383201Y213860D02*
Y219254D01*
X407350Y191860D02*
X411492Y196002D01*
Y201360D01*
X395850Y191860D02*
X407350D01*
X393862Y207955D02*
X397268Y211360D01*
X393370Y207955D02*
X393862D01*
X393287Y207872D02*
X393370Y207955D01*
X393287Y207380D02*
Y207872D01*
X397268Y211360D02*
X404307D01*
X379496Y206282D02*
X383201Y209986D01*
X379122Y206282D02*
X379496D01*
X378350Y205510D02*
X379122Y206282D01*
X383201Y209986D02*
Y213860D01*
Y209986D02*
X385232Y207955D01*
X385724D01*
X385807Y207872D01*
Y207380D02*
Y207872D01*
X410850Y161360D02*
X418850D01*
X398685D02*
X410850D01*
X393287Y158360D02*
X395204Y156443D01*
X398602D01*
X398685Y156360D01*
X393287Y158360D02*
Y189297D01*
X395850Y191860D01*
X404208Y201262D02*
Y201360D01*
X402354Y199408D02*
X404208Y201262D01*
X402255Y199408D02*
X402354D01*
X400189Y197341D02*
X402255Y199408D01*
X393287Y197341D02*
X400189D01*
X378350Y186443D02*
Y196860D01*
X378831Y197341D01*
X385807D01*
X378268Y186360D02*
X378350Y186443D01*
X378015Y186360D02*
X378268D01*
X389500Y197388D02*
X389547Y197341D01*
X389500Y197388D02*
Y213860D01*
X389547Y187360D02*
Y197341D01*
X383547Y181360D02*
X389547Y187360D01*
X378015Y181360D02*
X383547D01*
X398685Y166360D02*
Y171360D01*
Y176360D01*
X410307D01*
X398685Y186360D02*
X409700D01*
X378350Y17860D02*
Y27360D01*
X378819Y86242D02*
X381700Y83360D01*
X400850D01*
X399850Y130860D02*
Y143360D01*
Y115211D02*
Y130860D01*
X399394Y131317D02*
X399850Y130860D01*
X393850Y131317D02*
X399394D01*
X399850Y115211D02*
X409700Y105360D01*
X389500Y153711D02*
X399850Y143360D01*
X389500Y153711D02*
Y159860D01*
X383000Y166360D02*
X389500Y159860D01*
X378015Y166360D02*
X383000D01*
X378015Y131360D02*
Y156360D01*
Y116195D02*
Y131360D01*
X378059Y131317D01*
X384350D01*
X378015Y116195D02*
X400850Y93360D01*
X383185Y132482D02*
X384350Y131317D01*
X383112Y132482D02*
X383185D01*
X358850Y171360D02*
X366850D01*
X378015D01*
X366850Y161360D02*
X378015D01*
X358850D02*
X366850D01*
X346850Y251923D02*
Y258148D01*
Y251923D02*
X348295Y250479D01*
X312830Y250538D02*
X322870D01*
X308850Y253360D02*
X310850Y255360D01*
X308850Y247120D02*
Y253360D01*
X308527Y246798D02*
X308850Y247120D01*
X330350Y255360D02*
X337850Y262860D01*
X310850Y255360D02*
X330350D01*
X300850Y237360D02*
Y246601D01*
X304787Y250538D01*
X312830Y243057D02*
X312850Y243038D01*
X308527Y246798D02*
X312830D01*
X348870Y262860D02*
X353350Y258380D01*
X337850Y262860D02*
X348870D01*
X338830Y249904D02*
Y255640D01*
X340567Y257376D01*
X340960D01*
X341338Y257754D01*
Y258148D01*
X330697Y243057D02*
X330850Y243211D01*
X322870Y243057D02*
X330697D01*
X330850Y249510D02*
X331244Y249904D01*
X338830D01*
X296885Y264780D02*
X296913Y264753D01*
Y246798D02*
Y264753D01*
X304649Y268631D02*
X304760Y268521D01*
X304649Y268631D02*
Y276860D01*
X300850Y265360D02*
X303435Y267946D01*
X304185D01*
X304760Y268521D01*
X300850Y254475D02*
Y265360D01*
Y254475D02*
X304015Y251309D01*
Y251113D02*
Y251309D01*
Y251113D02*
X304590Y250538D01*
X304787D01*
X305559Y243829D02*
X308527Y246798D01*
X305559Y243632D02*
Y243829D01*
X304984Y243057D02*
X305559Y243632D01*
X304787Y243057D02*
X304984D01*
X322323Y268324D02*
X322914Y267733D01*
X313536Y268324D02*
X322323D01*
X313339Y261040D02*
X313536Y261237D01*
X304760Y261040D02*
X313339D01*
X247156Y259666D02*
X250435D01*
X297850Y277360D02*
X298350Y276860D01*
X27484Y236309D02*
X27933Y235860D01*
X20051Y243742D02*
X27484Y236309D01*
X28496D01*
X34850Y174601D02*
X34850Y174601D01*
X303650D02*
Y183860D01*
X248850Y174601D02*
Y183860D01*
X193450Y174601D02*
Y183860D01*
X137250Y174601D02*
Y183860D01*
X81350Y174901D02*
Y183860D01*
X81050Y174601D02*
X81350Y174901D01*
X24850Y183860D02*
X24850D01*
Y174601D02*
Y183860D01*
X368700Y57310D02*
Y90410D01*
Y55910D02*
Y57310D01*
X370450Y59060D01*
X371850D01*
X372800Y60010D01*
X377850D01*
X377728Y53589D02*
X377850Y53711D01*
X377728Y44860D02*
Y53589D01*
X351000Y91810D02*
Y93210D01*
X349250Y94960D02*
X351000Y93210D01*
X348900Y94960D02*
X349250D01*
X347728Y96132D02*
X348900Y94960D01*
X347728Y96132D02*
Y103360D01*
X349250Y52760D02*
X351000Y54510D01*
X348900Y52760D02*
X349250D01*
X347728Y51589D02*
X348900Y52760D01*
X347728Y44860D02*
Y51589D01*
X313650Y60636D02*
X328532Y45754D01*
X313650Y60636D02*
Y130085D01*
X298768Y144967D02*
X313650Y130085D01*
X258850Y60636D02*
X273732Y45754D01*
X258850Y60636D02*
Y130085D01*
X243968Y144967D02*
X258850Y130085D01*
X203450Y60636D02*
X218332Y45754D01*
X203450Y60636D02*
Y130085D01*
X188568Y144967D02*
X203450Y130085D01*
X146850Y61036D02*
X162132Y45754D01*
X146850Y61036D02*
Y130485D01*
X132368Y144967D02*
X146850Y130485D01*
X76168Y144967D02*
X91050Y130085D01*
Y60636D02*
Y130085D01*
Y60636D02*
X105932Y45754D01*
X19968Y144967D02*
X34850Y130085D01*
Y60636D02*
Y130085D01*
Y60636D02*
X49732Y45754D01*
X12850Y132242D02*
X19968Y125124D01*
X12850Y132242D02*
Y194360D01*
X24850Y206360D01*
Y212120D01*
X24850D01*
X68850Y132442D02*
X76168Y125124D01*
X68850Y132442D02*
Y193360D01*
X81050Y205561D01*
Y212120D01*
X125350Y132142D02*
X132368Y125124D01*
X125350Y132142D02*
Y193860D01*
X137250Y205761D01*
Y212120D01*
X181350Y194260D02*
X193450Y206360D01*
X181350Y132342D02*
Y194260D01*
Y132342D02*
X188568Y125124D01*
X193450Y206360D02*
Y212120D01*
X291850Y132042D02*
X298768Y125124D01*
X237350Y131742D02*
X243968Y125124D01*
X237350Y131742D02*
Y194460D01*
X248850Y205961D01*
Y212120D01*
X296350Y148682D02*
Y188560D01*
Y148682D02*
X298768Y146263D01*
Y144967D02*
Y146263D01*
X241850Y148461D02*
X243968Y146343D01*
Y144967D02*
Y146343D01*
X241850Y148461D02*
Y188960D01*
X186350Y148561D02*
X188568Y146343D01*
Y144967D02*
Y146343D01*
X186350Y148561D02*
Y188860D01*
X203450Y205961D01*
X130350Y148361D02*
X132368Y146343D01*
Y144967D02*
Y146343D01*
X130350Y148361D02*
Y188860D01*
X147250Y205761D01*
X17850Y148461D02*
X19968Y146343D01*
Y144967D02*
Y146343D01*
X17850Y148461D02*
Y188860D01*
X34850Y205860D01*
X268850Y212120D02*
Y218860D01*
X248850Y212120D02*
Y216860D01*
X213450Y218860D02*
Y226979D01*
Y212120D02*
Y218860D01*
X195450D02*
X213450D01*
X193450Y216860D02*
X195450Y218860D01*
X193450Y212120D02*
Y216860D01*
X266881Y236388D02*
X267433Y236939D01*
X252496Y236388D02*
X266881D01*
X251921Y236963D02*
X252496Y236388D01*
X250516Y236963D02*
X251921D01*
X243917Y243561D02*
X250516Y236963D01*
X243917Y243561D02*
Y243758D01*
X243145Y244530D02*
X243917Y243758D01*
X242949Y244530D02*
X243145D01*
X242949Y250829D02*
Y255459D01*
X247156Y259666D01*
X250435D02*
X251082Y260313D01*
Y253227D02*
X252496Y251813D01*
Y243868D02*
Y251813D01*
X259582Y240916D02*
X259598Y240900D01*
Y240703D02*
Y240900D01*
Y240703D02*
X260173Y240128D01*
X260370D01*
X259582Y240916D02*
Y253620D01*
X267236Y259920D02*
X267433Y259723D01*
X259582Y259920D02*
X267236D01*
X267433Y259526D02*
Y259723D01*
X266448Y258542D02*
X267433Y259526D01*
X266448Y251420D02*
Y258542D01*
X273732Y259723D02*
X274323Y259132D01*
Y247679D02*
Y259132D01*
X273732Y236939D02*
Y240624D01*
X270417Y243939D02*
X273732Y240624D01*
X266448Y243939D02*
X270417D01*
X273732Y231861D02*
Y236939D01*
X187879Y251325D02*
Y255360D01*
X187682Y251128D02*
X187879Y251325D01*
Y255360D02*
X192098Y259580D01*
X194693D01*
X195682Y260569D01*
X196521Y237002D02*
X197096Y236427D01*
X195509Y237002D02*
X196521D01*
X188651Y243860D02*
X195509Y237002D01*
X188651Y243860D02*
Y244057D01*
X187879Y244829D02*
X188651Y244057D01*
X187682Y244829D02*
X187879D01*
X211836Y260175D02*
X212033Y259979D01*
X204182Y260175D02*
X211836D01*
X212033Y259782D02*
Y259979D01*
X211049Y258798D02*
X212033Y259782D01*
X211049Y251719D02*
Y258798D01*
X218332Y259979D02*
X218922Y259388D01*
Y247979D02*
Y259388D01*
X195682Y253482D02*
X197096Y252069D01*
Y243908D02*
Y252069D01*
X204182Y253876D02*
X204198D01*
X204970Y253105D01*
Y240168D02*
Y253105D01*
X211481Y236427D02*
X212033Y236979D01*
X197096Y236427D02*
X211481D01*
X218350Y236997D02*
Y240624D01*
X218332Y236979D02*
X218350Y236997D01*
X214736Y244238D02*
X218350Y240624D01*
X211049Y244238D02*
X214736D01*
X213450Y226979D02*
X218332Y231860D01*
Y236979D01*
X44850Y218880D02*
Y226979D01*
X26720Y218880D02*
X44850D01*
X24850Y217010D02*
X26720Y218880D01*
X24850Y212120D02*
Y217010D01*
X101050Y218860D02*
Y226979D01*
Y212120D02*
Y218860D01*
X82901D02*
X101050D01*
X81050Y217010D02*
X82901Y218860D01*
X81050Y212120D02*
Y217010D01*
X157250Y218860D02*
Y226979D01*
Y212120D02*
Y218860D01*
X139250D02*
X157250D01*
X137250Y216860D02*
X139250Y218860D01*
X137250Y212120D02*
Y216860D01*
X98633Y235860D02*
X99633Y236860D01*
X85145Y235860D02*
X98633D01*
X84696Y236309D02*
X85145Y235860D01*
X42433D02*
X43433Y236860D01*
X140896Y236309D02*
X141344Y235860D01*
X140321Y236884D02*
X140896Y236309D01*
X154833Y235860D02*
X155833Y236860D01*
X141344Y235860D02*
X154833D01*
X139049Y236884D02*
X140321D01*
X132451Y243482D02*
X139049Y236884D01*
X132451Y243482D02*
Y243679D01*
X131679Y244451D02*
X132451Y243679D01*
X131482Y244451D02*
X131679D01*
X131482Y250750D02*
Y254860D01*
X135883Y259261D01*
X138509D01*
X139482Y260234D01*
Y253148D02*
X140896Y251734D01*
Y243790D02*
Y251734D01*
X148573Y240049D02*
X148770D01*
X147998Y240624D02*
X148573Y240049D01*
X147998Y240624D02*
Y241780D01*
X147982Y241796D02*
X147998Y241780D01*
X147982Y241796D02*
Y253542D01*
X155636Y259841D02*
X155833Y259644D01*
X147982Y259841D02*
X155636D01*
X154849Y251341D02*
Y257504D01*
X155061Y257716D01*
Y258872D01*
X155833Y259644D01*
X162132D02*
X162723Y259053D01*
Y247601D02*
Y259053D01*
X162132Y236860D02*
Y240860D01*
X159132Y243860D02*
X162132Y240860D01*
X154849Y243860D02*
X159132D01*
X157250Y226979D02*
X162132Y231860D01*
Y236860D01*
X105932Y231860D02*
Y236860D01*
X101050Y226979D02*
X105932Y231860D01*
X49732D02*
Y236860D01*
X44850Y226979D02*
X49732Y231860D01*
X105932Y259860D02*
X106523Y259270D01*
Y247860D02*
Y259270D01*
X105932Y236860D02*
Y240821D01*
X102633Y244120D02*
X105932Y240821D01*
X98649Y244120D02*
X102633D01*
X99633Y259664D02*
Y259860D01*
X98649Y258679D02*
X99633Y259664D01*
X98649Y251601D02*
Y258679D01*
X91782Y260057D02*
X91979Y259860D01*
X99633D01*
X83282Y253364D02*
X84696Y251951D01*
Y243790D02*
Y251951D01*
X91782Y253758D02*
X91798D01*
X92570Y252987D01*
Y240049D02*
Y252987D01*
X84121Y236884D02*
X84696Y236309D01*
X83109Y236884D02*
X84121D01*
X76251Y243742D02*
X83109Y236884D01*
X76251Y243742D02*
Y243939D01*
X75479Y244711D02*
X76251Y243939D01*
X75282Y244711D02*
X75479D01*
X75282Y251010D02*
Y254860D01*
X79791Y259369D01*
X82200D01*
X83282Y260451D01*
X19082Y251010D02*
Y254860D01*
X23317Y259095D01*
X26274D01*
X27082Y259904D01*
X43236Y260101D02*
X43433Y259904D01*
X35582Y260101D02*
X43236D01*
X43433Y259707D02*
Y259904D01*
X42448Y258723D02*
X43433Y259707D01*
X42448Y251601D02*
Y258723D01*
X49732Y259904D02*
X50323Y259313D01*
Y247860D02*
Y259313D01*
X49732Y236860D02*
Y240624D01*
X46236Y244120D02*
X49732Y240624D01*
X42448Y244120D02*
X46236D01*
X19082Y244711D02*
X19279D01*
X20051Y243939D01*
Y243742D02*
Y243939D01*
X27082Y252817D02*
X28496Y251404D01*
Y243790D02*
Y251404D01*
X35582Y240837D02*
X35598Y240821D01*
Y240624D02*
Y240821D01*
Y240624D02*
X36173Y240049D01*
X36370D01*
X35582Y240837D02*
Y253801D01*
D90*
X204850Y367860D02*
X209350D01*
X185850Y298360D02*
X190850D01*
X180850D02*
X185850D01*
X174350D02*
X180850D01*
X189253Y367860D02*
X204850D01*
X169260Y347867D02*
X189253Y367860D01*
X169260Y303451D02*
Y347867D01*
Y303451D02*
X174350Y298360D01*
X223393Y382868D02*
X226334D01*
X217386Y376860D02*
X223393Y382868D01*
X203054Y376860D02*
X217386D01*
X195682Y384232D02*
X203054Y376860D01*
X178850Y405860D02*
X195682Y389028D01*
X313350Y160860D02*
X318850D01*
X323350D01*
X351850Y211614D02*
Y217120D01*
Y206282D02*
Y211614D01*
X122850Y259860D02*
X123350Y260360D01*
X105932Y259860D02*
X122850D01*
X50323Y247860D02*
X56350Y241833D01*
Y240288D02*
Y241833D01*
X169850Y227360D02*
Y240473D01*
X162723Y247601D02*
X169850Y240473D01*
X225850Y227360D02*
Y241051D01*
X218922Y247979D02*
X225850Y241051D01*
X281350Y227605D02*
Y240652D01*
X274323Y247679D02*
X281350Y240652D01*
X195682Y384232D02*
Y389028D01*
X157620Y346170D02*
X195682Y384232D01*
X157620Y303860D02*
Y346170D01*
X211350Y402360D02*
X215350D01*
X208850D02*
X211350D01*
X215350D02*
X218922D01*
X224952D01*
X323791Y160860D02*
X336791Y173860D01*
Y191223D01*
X351850Y206282D01*
X224952Y402360D02*
X226334Y400978D01*
X204397Y397907D02*
X208850Y402360D01*
X204397Y396085D02*
Y397907D01*
X226334Y391923D02*
X249169D01*
X214468Y392089D02*
Y392967D01*
Y392089D02*
X214634Y391923D01*
X226334D01*
X204232Y395919D02*
X204397Y396085D01*
X204232Y392967D02*
Y395919D01*
Y392967D02*
X204397Y392801D01*
Y386506D02*
Y392801D01*
Y386506D02*
X207980Y382923D01*
X226303Y382899D02*
X226334Y382868D01*
X222438Y382899D02*
X226303D01*
X222415Y382923D02*
X222438Y382899D01*
X214279Y382923D02*
X222415D01*
X140716Y405860D02*
X178850D01*
X128905D02*
X140716D01*
D91*
X43850Y16309D02*
D03*
X426850Y229860D02*
D03*
Y397719D02*
D03*
X228850Y427860D02*
D03*
X15850Y397719D02*
D03*
D92*
X169768Y16043D02*
D03*
X123309Y15860D02*
D03*
X76850Y15860D02*
D03*
X262685Y16043D02*
D03*
X309144D02*
D03*
X216226D02*
D03*
X382350Y360860D02*
D03*
X391350Y268521D02*
D03*
D93*
X179768Y16043D02*
D03*
X133309Y15860D02*
D03*
X86850Y15860D02*
D03*
X272685Y16043D02*
D03*
X319144D02*
D03*
X226226D02*
D03*
X392350Y360860D02*
D03*
X391350Y278521D02*
D03*
X401350Y268521D02*
D03*
Y278521D02*
D03*
X411350Y268521D02*
D03*
Y278521D02*
D03*
X400850Y93360D02*
D03*
Y103360D02*
D03*
Y55860D02*
D03*
Y65860D02*
D03*
D94*
X132368Y45754D02*
D03*
Y125124D02*
D03*
Y144967D02*
D03*
Y105282D02*
D03*
X162132D02*
D03*
Y144967D02*
D03*
Y125124D02*
D03*
Y45754D02*
D03*
X76168D02*
D03*
Y125124D02*
D03*
Y144967D02*
D03*
Y105282D02*
D03*
X105932D02*
D03*
Y144967D02*
D03*
Y125124D02*
D03*
Y45754D02*
D03*
X19968D02*
D03*
Y125124D02*
D03*
Y144967D02*
D03*
Y105282D02*
D03*
X49732D02*
D03*
Y144967D02*
D03*
Y125124D02*
D03*
Y45754D02*
D03*
X243968D02*
D03*
Y125124D02*
D03*
Y144967D02*
D03*
Y105282D02*
D03*
X273732D02*
D03*
Y144967D02*
D03*
Y125124D02*
D03*
Y45754D02*
D03*
X298768D02*
D03*
Y125124D02*
D03*
Y144967D02*
D03*
Y105282D02*
D03*
X328532D02*
D03*
Y144967D02*
D03*
Y125124D02*
D03*
Y45754D02*
D03*
X188568D02*
D03*
Y125124D02*
D03*
Y144967D02*
D03*
Y105282D02*
D03*
X218332D02*
D03*
Y144967D02*
D03*
Y125124D02*
D03*
Y45754D02*
D03*
D95*
X192882Y431451D02*
D03*
X41307D02*
D03*
D96*
X164338Y405860D02*
D03*
X152527D02*
D03*
X140716D02*
D03*
X128905D02*
D03*
X117094D02*
D03*
X105283D02*
D03*
X93472D02*
D03*
X81661D02*
D03*
X69850D02*
D03*
X158433Y396018D02*
D03*
X146622D02*
D03*
X134811D02*
D03*
X123000D02*
D03*
X111189D02*
D03*
X99378D02*
D03*
X87567D02*
D03*
X75756D02*
D03*
X158433Y384207D02*
D03*
X146622D02*
D03*
X134811D02*
D03*
X123000D02*
D03*
X111189D02*
D03*
X99378D02*
D03*
X87567D02*
D03*
X75756D02*
D03*
X152527Y374364D02*
D03*
X140716D02*
D03*
X128905D02*
D03*
X117094D02*
D03*
X105283D02*
D03*
X93472D02*
D03*
X81661D02*
D03*
X69850D02*
D03*
D97*
X164338D02*
D03*
D98*
X400850Y83360D02*
D03*
Y45860D02*
D03*
D99*
X377728Y103360D02*
D03*
X347728D02*
D03*
Y44860D02*
D03*
X377728D02*
D03*
X348350Y27360D02*
D03*
X378350D02*
D03*
Y17860D02*
D03*
X348350D02*
D03*
X358850Y161360D02*
D03*
Y131360D02*
D03*
X366850D02*
D03*
Y161360D02*
D03*
X418850Y131360D02*
D03*
Y161360D02*
D03*
X410850D02*
D03*
Y131360D02*
D03*
X358850Y201360D02*
D03*
Y171360D02*
D03*
X366850D02*
D03*
Y201360D02*
D03*
D100*
X209350Y367860D02*
D03*
X190850Y298360D02*
D03*
X185850D02*
D03*
X180850D02*
D03*
X204850Y367860D02*
D03*
X198456Y392967D02*
D03*
X342031Y304360D02*
D03*
X371350Y361892D02*
D03*
X346850Y237153D02*
D03*
X324850Y247360D02*
D03*
X330564Y263148D02*
D03*
X313350Y160860D02*
D03*
X318850D02*
D03*
X351850Y217120D02*
D03*
Y211614D02*
D03*
X56350Y240288D02*
D03*
X61350Y223860D02*
D03*
X49350D02*
D03*
X39850Y223360D02*
D03*
X128905Y226360D02*
D03*
X274850Y222360D02*
D03*
X219850Y223360D02*
D03*
X163850Y222360D02*
D03*
X169850Y227360D02*
D03*
X225850D02*
D03*
X281350Y227605D02*
D03*
X123350Y260360D02*
D03*
X112850Y199860D02*
D03*
X157620Y303860D02*
D03*
X211350Y402360D02*
D03*
X215350D02*
D03*
X218922D02*
D03*
X249350Y402646D02*
D03*
X400850Y332075D02*
D03*
X428850D02*
D03*
X282350Y177360D02*
D03*
Y199860D02*
D03*
X323350Y160860D02*
D03*
X351850Y206282D02*
D03*
X225850Y177360D02*
D03*
Y199860D02*
D03*
X169850Y177360D02*
D03*
Y199860D02*
D03*
X112811Y177360D02*
D03*
X247622Y231360D02*
D03*
X193151D02*
D03*
X136350D02*
D03*
X82901D02*
D03*
X26850Y230860D02*
D03*
X34850Y167860D02*
D03*
X91050D02*
D03*
X147250D02*
D03*
X203350D02*
D03*
X258850D02*
D03*
X313850Y168360D02*
D03*
X341564Y235860D02*
D03*
X291350Y219360D02*
D03*
X292350Y276860D02*
D03*
X199850Y405360D02*
D03*
X185082Y390211D02*
D03*
X269850Y340860D02*
D03*
X261850Y338860D02*
D03*
X313650Y206282D02*
D03*
X266350Y333860D02*
D03*
X203450Y205961D02*
D03*
X245850Y343860D02*
D03*
X147350Y205860D02*
D03*
X91050Y205861D02*
D03*
X238850Y348860D02*
D03*
X234350Y353860D02*
D03*
X34850Y205860D02*
D03*
X241350Y323860D02*
D03*
Y328860D02*
D03*
Y318860D02*
D03*
X183350D02*
D03*
Y323762D02*
D03*
Y328860D02*
D03*
Y333860D02*
D03*
Y338860D02*
D03*
Y343860D02*
D03*
Y348860D02*
D03*
Y353860D02*
D03*
X212350Y287860D02*
D03*
X222350Y284360D02*
D03*
X234850Y280860D02*
D03*
X330350Y348360D02*
D03*
X250850Y276860D02*
D03*
X387350Y407360D02*
D03*
X367850Y401360D02*
D03*
X344850Y428860D02*
D03*
X347350Y323860D02*
D03*
X340350Y338360D02*
D03*
X349850Y428860D02*
D03*
X361126Y314360D02*
D03*
X339350Y330360D02*
D03*
X339850Y428860D02*
D03*
X334850D02*
D03*
X324850Y416860D02*
D03*
X353850Y339360D02*
D03*
X227350Y363860D02*
D03*
X281850Y393360D02*
D03*
X268350Y368860D02*
D03*
X323850Y407360D02*
D03*
X227350Y358860D02*
D03*
X307881Y319860D02*
D03*
X307850Y323860D02*
D03*
X227350Y368860D02*
D03*
X281350Y422360D02*
D03*
Y404860D02*
D03*
X325850Y336360D02*
D03*
X339850Y322360D02*
D03*
X376850Y288860D02*
D03*
X391350D02*
D03*
X418350Y168404D02*
D03*
X387850Y176360D02*
D03*
X384350Y144860D02*
D03*
X404850Y131317D02*
D03*
X372850Y131360D02*
D03*
X410350Y169360D02*
D03*
X396350Y215360D02*
D03*
X398350Y201360D02*
D03*
X300850Y237360D02*
D03*
X303650Y183860D02*
D03*
X248850D02*
D03*
X193450D02*
D03*
X137250D02*
D03*
X81350D02*
D03*
X24850D02*
D03*
M02*
