G04*
G04 #@! TF.GenerationSoftware,Altium Limited,Altium Designer,19.0.15 (446)*
G04*
G04 Layer_Color=32896*
%FSLAX25Y25*%
%MOIN*%
G70*
G01*
G75*
%ADD14C,0.01000*%
D14*
X10047Y55587D02*
Y95360D01*
Y55587D02*
X10062Y55572D01*
X338350D01*
Y95360D01*
X10047D02*
X338350D01*
X246850Y72360D02*
Y78359D01*
X244851Y76359D01*
X242851Y78359D01*
Y72360D01*
X237853D02*
X239852D01*
X240852Y73360D01*
Y75359D01*
X239852Y76359D01*
X237853D01*
X236853Y75359D01*
Y74360D01*
X240852D01*
X230855Y76359D02*
X233854D01*
X234854Y75359D01*
Y73360D01*
X233854Y72360D01*
X230855D01*
X228856Y78359D02*
Y72360D01*
Y75359D01*
X227856Y76359D01*
X225857D01*
X224857Y75359D01*
Y72360D01*
X221858Y76359D02*
X219859D01*
X218859Y75359D01*
Y72360D01*
X221858D01*
X222858Y73360D01*
X221858Y74360D01*
X218859D01*
X216860Y72360D02*
Y76359D01*
X213861D01*
X212861Y75359D01*
Y72360D01*
X210862D02*
X208862D01*
X209862D01*
Y76359D01*
X210862D01*
X201865D02*
X204864D01*
X205863Y75359D01*
Y73360D01*
X204864Y72360D01*
X201865D01*
X198866Y76359D02*
X196866D01*
X195867Y75359D01*
Y72360D01*
X198866D01*
X199865Y73360D01*
X198866Y74360D01*
X195867D01*
X193867Y72360D02*
X191868D01*
X192868D01*
Y78359D01*
X193867D01*
X182871D02*
Y72360D01*
X179872D01*
X178872Y73360D01*
Y74360D01*
X179872Y75359D01*
X182871D01*
X179872D01*
X178872Y76359D01*
Y77359D01*
X179872Y78359D01*
X182871D01*
X176873Y72360D02*
X174873D01*
X175873D01*
Y78359D01*
X176873D01*
X170875Y72360D02*
X168875D01*
X167876Y73360D01*
Y75359D01*
X168875Y76359D01*
X170875D01*
X171874Y75359D01*
Y73360D01*
X170875Y72360D01*
X161878Y76359D02*
X164877D01*
X165876Y75359D01*
Y73360D01*
X164877Y72360D01*
X161878D01*
X159878D02*
Y78359D01*
Y74360D02*
X156879Y76359D01*
X159878Y74360D02*
X156879Y72360D01*
X147882D02*
Y78359D01*
X145883Y76359D01*
X143883Y78359D01*
Y72360D01*
X140884D02*
X138885D01*
X137885Y73360D01*
Y75359D01*
X138885Y76359D01*
X140884D01*
X141884Y75359D01*
Y73360D01*
X140884Y72360D01*
X135886Y76359D02*
Y73360D01*
X134886Y72360D01*
X131887D01*
Y76359D01*
X129888Y72360D02*
Y76359D01*
X126889D01*
X125889Y75359D01*
Y72360D01*
X122890Y77359D02*
Y76359D01*
X123890D01*
X121891D01*
X122890D01*
Y73360D01*
X121891Y72360D01*
M02*
