G04*
G04 #@! TF.GenerationSoftware,Altium Limited,Altium Designer,19.0.15 (446)*
G04*
G04 Layer_Color=16711935*
%FSLAX25Y25*%
%MOIN*%
G70*
G01*
G75*
%ADD51C,0.24422*%
%ADD52R,0.06706X0.06706*%
%ADD53C,0.06706*%
%ADD54C,0.07887*%
%ADD55C,0.13792*%
%ADD56C,0.08477*%
%ADD57R,0.08477X0.08477*%
%ADD58R,0.06706X0.06706*%
%ADD59C,0.06312*%
%ADD60C,0.03556*%
D51*
X43850Y16309D02*
D03*
X426850Y229860D02*
D03*
Y397719D02*
D03*
X228850Y427860D02*
D03*
X15850Y397719D02*
D03*
D52*
X169768Y16043D02*
D03*
X123309Y15860D02*
D03*
X76850Y15860D02*
D03*
X262685Y16043D02*
D03*
X309144D02*
D03*
X216226D02*
D03*
X382350Y360860D02*
D03*
X391350Y268521D02*
D03*
D53*
X179768Y16043D02*
D03*
X133309Y15860D02*
D03*
X86850Y15860D02*
D03*
X272685Y16043D02*
D03*
X319144D02*
D03*
X226226D02*
D03*
X392350Y360860D02*
D03*
X391350Y278521D02*
D03*
X401350Y268521D02*
D03*
Y278521D02*
D03*
X411350Y268521D02*
D03*
Y278521D02*
D03*
X400850Y93360D02*
D03*
Y103360D02*
D03*
Y55860D02*
D03*
Y65860D02*
D03*
D54*
X132368Y45754D02*
D03*
Y125124D02*
D03*
Y144967D02*
D03*
Y105282D02*
D03*
X162132D02*
D03*
Y144967D02*
D03*
Y125124D02*
D03*
Y45754D02*
D03*
X76168D02*
D03*
Y125124D02*
D03*
Y144967D02*
D03*
Y105282D02*
D03*
X105932D02*
D03*
Y144967D02*
D03*
Y125124D02*
D03*
Y45754D02*
D03*
X19968D02*
D03*
Y125124D02*
D03*
Y144967D02*
D03*
Y105282D02*
D03*
X49732D02*
D03*
Y144967D02*
D03*
Y125124D02*
D03*
Y45754D02*
D03*
X243968D02*
D03*
Y125124D02*
D03*
Y144967D02*
D03*
Y105282D02*
D03*
X273732D02*
D03*
Y144967D02*
D03*
Y125124D02*
D03*
Y45754D02*
D03*
X298768D02*
D03*
Y125124D02*
D03*
Y144967D02*
D03*
Y105282D02*
D03*
X328532D02*
D03*
Y144967D02*
D03*
Y125124D02*
D03*
Y45754D02*
D03*
X188568D02*
D03*
Y125124D02*
D03*
Y144967D02*
D03*
Y105282D02*
D03*
X218332D02*
D03*
Y144967D02*
D03*
Y125124D02*
D03*
Y45754D02*
D03*
D55*
X192882Y431451D02*
D03*
X41307D02*
D03*
D56*
X164338Y405860D02*
D03*
X152527D02*
D03*
X140716D02*
D03*
X128905D02*
D03*
X117094D02*
D03*
X105283D02*
D03*
X93472D02*
D03*
X81661D02*
D03*
X69850D02*
D03*
X158433Y396018D02*
D03*
X146622D02*
D03*
X134811D02*
D03*
X123000D02*
D03*
X111189D02*
D03*
X99378D02*
D03*
X87567D02*
D03*
X75756D02*
D03*
X158433Y384207D02*
D03*
X146622D02*
D03*
X134811D02*
D03*
X123000D02*
D03*
X111189D02*
D03*
X99378D02*
D03*
X87567D02*
D03*
X75756D02*
D03*
X152527Y374364D02*
D03*
X140716D02*
D03*
X128905D02*
D03*
X117094D02*
D03*
X105283D02*
D03*
X93472D02*
D03*
X81661D02*
D03*
X69850D02*
D03*
D57*
X164338D02*
D03*
D58*
X400850Y83360D02*
D03*
Y45860D02*
D03*
D59*
X377728Y103360D02*
D03*
X347728D02*
D03*
Y44860D02*
D03*
X377728D02*
D03*
X348350Y27360D02*
D03*
X378350D02*
D03*
Y17860D02*
D03*
X348350D02*
D03*
X358850Y161360D02*
D03*
Y131360D02*
D03*
X366850D02*
D03*
Y161360D02*
D03*
X418850Y131360D02*
D03*
Y161360D02*
D03*
X410850D02*
D03*
Y131360D02*
D03*
X358850Y201360D02*
D03*
Y171360D02*
D03*
X366850D02*
D03*
Y201360D02*
D03*
D60*
X209350Y367860D02*
D03*
X190850Y298360D02*
D03*
X185850D02*
D03*
X180850D02*
D03*
X204850Y367860D02*
D03*
X198456Y392967D02*
D03*
X342031Y304360D02*
D03*
X371350Y361892D02*
D03*
X346850Y237153D02*
D03*
X324850Y247360D02*
D03*
X330564Y263148D02*
D03*
X313350Y160860D02*
D03*
X318850D02*
D03*
X351850Y217120D02*
D03*
Y211614D02*
D03*
X56350Y240288D02*
D03*
X61350Y223860D02*
D03*
X49350D02*
D03*
X39850Y223360D02*
D03*
X128905Y226360D02*
D03*
X274850Y222360D02*
D03*
X219850Y223360D02*
D03*
X163850Y222360D02*
D03*
X169850Y227360D02*
D03*
X225850D02*
D03*
X281350Y227605D02*
D03*
X123350Y260360D02*
D03*
X112850Y199860D02*
D03*
X157620Y303860D02*
D03*
X211350Y402360D02*
D03*
X215350D02*
D03*
X218922D02*
D03*
X249350Y402646D02*
D03*
X400850Y332075D02*
D03*
X428850D02*
D03*
X282350Y177360D02*
D03*
Y199860D02*
D03*
X323350Y160860D02*
D03*
X351850Y206282D02*
D03*
X225850Y177360D02*
D03*
Y199860D02*
D03*
X169850Y177360D02*
D03*
Y199860D02*
D03*
X112811Y177360D02*
D03*
X247622Y231360D02*
D03*
X193151D02*
D03*
X136350D02*
D03*
X82901D02*
D03*
X26850Y230860D02*
D03*
X34850Y167860D02*
D03*
X91050D02*
D03*
X147250D02*
D03*
X203350D02*
D03*
X258850D02*
D03*
X313850Y168360D02*
D03*
X341564Y235860D02*
D03*
X291350Y219360D02*
D03*
X292350Y276860D02*
D03*
X199850Y405360D02*
D03*
X185082Y390211D02*
D03*
X269850Y340860D02*
D03*
X261850Y338860D02*
D03*
X313650Y206282D02*
D03*
X266350Y333860D02*
D03*
X203450Y205961D02*
D03*
X245850Y343860D02*
D03*
X147350Y205860D02*
D03*
X91050Y205861D02*
D03*
X238850Y348860D02*
D03*
X234350Y353860D02*
D03*
X34850Y205860D02*
D03*
X241350Y323860D02*
D03*
Y328860D02*
D03*
Y318860D02*
D03*
X183350D02*
D03*
Y323762D02*
D03*
Y328860D02*
D03*
Y333860D02*
D03*
Y338860D02*
D03*
Y343860D02*
D03*
Y348860D02*
D03*
Y353860D02*
D03*
X212350Y287860D02*
D03*
X222350Y284360D02*
D03*
X234850Y280860D02*
D03*
X330350Y348360D02*
D03*
X250850Y276860D02*
D03*
X387350Y407360D02*
D03*
X367850Y401360D02*
D03*
X344850Y428860D02*
D03*
X347350Y323860D02*
D03*
X340350Y338360D02*
D03*
X349850Y428860D02*
D03*
X361126Y314360D02*
D03*
X339350Y330360D02*
D03*
X339850Y428860D02*
D03*
X334850D02*
D03*
X324850Y416860D02*
D03*
X353850Y339360D02*
D03*
X227350Y363860D02*
D03*
X281850Y393360D02*
D03*
X268350Y368860D02*
D03*
X323850Y407360D02*
D03*
X227350Y358860D02*
D03*
X307881Y319860D02*
D03*
X307850Y323860D02*
D03*
X227350Y368860D02*
D03*
X281350Y422360D02*
D03*
Y404860D02*
D03*
X325850Y336360D02*
D03*
X339850Y322360D02*
D03*
X376850Y288860D02*
D03*
X391350D02*
D03*
X418350Y168404D02*
D03*
X387850Y176360D02*
D03*
X384350Y144860D02*
D03*
X404850Y131317D02*
D03*
X372850Y131360D02*
D03*
X410350Y169360D02*
D03*
X396350Y215360D02*
D03*
X398350Y201360D02*
D03*
X300850Y237360D02*
D03*
X303650Y183860D02*
D03*
X248850D02*
D03*
X193450D02*
D03*
X137250D02*
D03*
X81350D02*
D03*
X24850D02*
D03*
M02*
